M48
; DRILL file {KiCad 9.0.1-1.fc42} date 2025-04-18T11:34:46+1000
; FORMAT={-:-/ absolute / inch / decimal}
; #@! TF.CreationDate,2025-04-18T11:34:46+10:00
; #@! TF.GenerationSoftware,Kicad,Pcbnew,9.0.1-1.fc42
; #@! TF.FileFunction,Plated,1,2,PTH
FMAT,2
INCH
; #@! TA.AperFunction,Plated,PTH,ViaDrill
T1C0.0157
; #@! TA.AperFunction,Plated,PTH,ComponentDrill
T2C0.0354
; #@! TA.AperFunction,Plated,PTH,ComponentDrill
T3C0.0394
; #@! TA.AperFunction,Plated,PTH,ComponentDrill
T4C0.0430
; #@! TA.AperFunction,Plated,PTH,ComponentDrill
T5C0.0500
%
G90
G05
T1
X3.0335Y-4.9629
X3.0864Y-4.7144
X3.163Y-4.7031
X3.9015Y-4.6828
X3.9667Y-4.6121
X4.0116Y-4.6048
X4.0758Y-4.6528
X4.1701Y-4.0067
X4.1921Y-3.9573
X4.2113Y-4.0267
X4.3502Y-3.8559
X4.6649Y-4.7087
X4.702Y-4.7617
X4.7829Y-4.7199
X5.0178Y-4.0318
X5.0336Y-4.1014
X5.2635Y-5.1681
X5.4062Y-5.1214
X5.5874Y-6.1902
X5.6184Y-4.489
X5.6308Y-4.5649
X5.7542Y-6.119
X5.7542Y-5.6981
X5.8341Y-5.8237
X5.8341Y-6.0962
X5.8424Y-5.7645
X6.0479Y-5.8373
X6.1261Y-5.7802
X6.1443Y-5.1091
X6.162Y-5.0546
X6.6514Y-5.4568
X7.5195Y-5.7471
X7.6277Y-6.1343
X7.6277Y-5.6574
X7.6783Y-4.9277
X7.6927Y-5.6882
X7.6927Y-6.0922
X7.7332Y-4.9609
X7.9404Y-5.7019
X7.9539Y-6.2283
X8.2052Y-4.3127
X8.2659Y-4.3342
X8.4547Y-5.1082
X8.47Y-5.0384
X8.549Y-5.0312
X8.8466Y-3.9339
X8.9052Y-3.9719
X9.0864Y-4.6157
X9.1077Y-3.8284
X9.1436Y-4.5618
X9.372Y-4.5956
X9.3947Y-3.9639
X9.5968Y-4.5509
X9.6587Y-3.8218
X9.7049Y-3.8356
X9.8389Y-4.5768
X9.8624Y-4.5254
X9.9605Y-4.5811
X10.7066Y-4.5942
X10.7441Y-4.6201
T2
X6.6115Y-5.6408
T3
X6.4824Y-5.9574
X6.4824Y-5.4574
X6.4824Y-5.5574
X6.4824Y-5.8574
X6.4824Y-5.6574
X6.4824Y-5.7574
X6.4824Y-5.3574
X7.0824Y-5.9574
X7.0824Y-5.5574
X7.0824Y-5.6574
X7.0824Y-5.4574
X7.0824Y-5.7574
X7.0824Y-5.8574
X7.0824Y-5.3574
T4
X6.5034Y-6.1596
X6.6034Y-6.1596
X6.7036Y-6.1596
T5
X2.8429Y-5.1856
X3.0096Y-4.5171
X3.0139Y-5.3134
X3.1806Y-4.6449
X3.7587Y-4.7346
X3.9179Y-4.8768
X3.983Y-4.0831
X4.1423Y-4.2254
X4.2074Y-3.4317
X4.3666Y-3.5739
X4.5303Y-4.8189
X4.6819Y-4.9693
X4.7884Y-4.1801
X4.94Y-4.3305
X5.0465Y-3.5413
X5.1411Y-5.2514
X5.1981Y-3.6917
X5.2313Y-6.3611
X5.2926Y-5.4018
X5.3387Y-6.5456
X5.3992Y-4.6126
X5.5507Y-4.763
X5.6573Y-3.9738
X5.8088Y-4.1242
X5.9455Y-5.2049
X6.097Y-5.3553
X6.2036Y-4.566
X6.2405Y-6.7392
X6.3143Y-6.9396
X6.3551Y-4.7164
X7.3244Y-6.7392
X7.3612Y-4.566
X7.5191Y-6.6517
X7.5747Y-4.5689
X7.6195Y-5.2049
X7.8329Y-5.2078
X7.9079Y-3.974
X8.0188Y-6.598
X8.1214Y-3.9769
X8.1657Y-4.6126
X8.2258Y-6.5456
X8.3792Y-4.6155
X8.4238Y-5.2514
X8.5184Y-3.5412
X8.6373Y-5.2543
X8.7318Y-3.5441
X8.7765Y-4.1801
X8.99Y-4.183
X9.0346Y-4.8189
X9.2481Y-4.8218
X9.3579Y-3.432
X9.5709Y-3.446
X9.5816Y-4.0829
X9.7947Y-4.097
X9.8062Y-4.7346
X10.0192Y-4.7487
X10.5553Y-4.5171
X10.722Y-5.1856
X10.7663Y-4.5497
X10.933Y-5.2182
M30
