%TF.GenerationSoftware,KiCad,Pcbnew,9.0.1-1.fc42*%
%TF.CreationDate,2025-04-18T11:26:06+10:00*%
%TF.ProjectId,iiwi,69697769-2e6b-4696-9361-645f70636258,0.1*%
%TF.SameCoordinates,Original*%
%TF.FileFunction,Legend,Top*%
%TF.FilePolarity,Positive*%
%FSLAX46Y46*%
G04 Gerber Fmt 4.6, Leading zero omitted, Abs format (unit mm)*
G04 Created by KiCad (PCBNEW 9.0.1-1.fc42) date 2025-04-18 11:26:06*
%MOMM*%
%LPD*%
G01*
G04 APERTURE LIST*
%ADD10C,0.200000*%
%ADD11C,0.100000*%
%ADD12C,0.000000*%
G04 APERTURE END LIST*
D10*
X169603347Y-138998983D02*
X169603347Y-138237079D01*
X169603349Y-136398981D02*
X169603349Y-135637077D01*
X169984302Y-136018029D02*
X169222397Y-136018029D01*
D11*
%TO.C,SW12*%
X126231574Y-143491342D02*
X126531254Y-142749584D01*
X126381417Y-143120475D02*
X125917820Y-142933168D01*
X126531254Y-142749584D02*
X126937733Y-143345203D01*
X126937733Y-143345203D02*
X126231574Y-143491342D01*
X126937733Y-143345203D02*
X126731689Y-143855193D01*
X126937733Y-143345203D02*
X127143759Y-142835254D01*
X127308610Y-143495062D02*
X126937733Y-143345203D01*
%TO.C,S14*%
X274563184Y-141671825D02*
X275242131Y-141914791D01*
X274659954Y-142059942D02*
X274174805Y-142180901D01*
X274756724Y-142448061D02*
X274563184Y-141671825D01*
X275242131Y-141914791D02*
X274756724Y-142448061D01*
X275242131Y-141914791D02*
X275109073Y-141381130D01*
X275242131Y-141914791D02*
X275375187Y-142448454D01*
X275630248Y-141818021D02*
X275242131Y-141914791D01*
%TO.C,SW1*%
X103049217Y-97484221D02*
X103309653Y-96727795D01*
X103179449Y-97106015D02*
X102706684Y-96943234D01*
X103309653Y-96727795D02*
X103746773Y-97301331D01*
X103746773Y-97301331D02*
X103049217Y-97484221D01*
X103746773Y-97301331D02*
X103567707Y-97821385D01*
X103746773Y-97301331D02*
X103925829Y-96781299D01*
X104124980Y-97431555D02*
X103746773Y-97301331D01*
%TO.C,S27*%
X150293917Y-178495650D02*
X150878994Y-177950054D01*
X150586464Y-178222864D02*
X150245461Y-177857171D01*
X150878994Y-177950054D02*
X150995664Y-178661646D01*
X150995664Y-178661646D02*
X150293917Y-178495650D01*
X150995664Y-178661646D02*
X150593418Y-179036767D01*
X150995664Y-178661646D02*
X151397919Y-178286549D01*
X151268470Y-178954221D02*
X150995664Y-178661646D01*
%TO.C,SW26*%
X204449343Y-110489582D02*
X205155504Y-110635664D01*
X204599224Y-110860448D02*
X204135619Y-111047747D01*
X204749051Y-111231336D02*
X204449343Y-110489582D01*
X205155504Y-110635664D02*
X204749051Y-111231336D01*
X205155504Y-110635664D02*
X204949468Y-110125704D01*
X205155504Y-110635664D02*
X205361554Y-111145632D01*
X205526384Y-110485823D02*
X205155504Y-110635664D01*
%TO.C,SW27*%
X219955321Y-99496182D02*
X220661482Y-99642264D01*
X220105202Y-99867048D02*
X219641597Y-100054347D01*
X220255029Y-100237936D02*
X219955321Y-99496182D01*
X220661482Y-99642264D02*
X220255029Y-100237936D01*
X220661482Y-99642264D02*
X220455446Y-99132304D01*
X220661482Y-99642264D02*
X220867532Y-100152232D01*
X221032362Y-99492423D02*
X220661482Y-99642264D01*
%TO.C,SW3*%
X139342812Y-111039861D02*
X139642492Y-110298103D01*
X139492655Y-110668994D02*
X139029058Y-110481687D01*
X139642492Y-110298103D02*
X140048971Y-110893722D01*
X140048971Y-110893722D02*
X139342812Y-111039861D01*
X140048971Y-110893722D02*
X139842927Y-111403712D01*
X140048971Y-110893722D02*
X140254997Y-110383773D01*
X140419848Y-111043581D02*
X140048971Y-110893722D01*
%TO.C,SW6*%
X117273194Y-116278921D02*
X117572874Y-115537163D01*
X117423037Y-115908054D02*
X116959440Y-115720747D01*
X117572874Y-115537163D02*
X117979353Y-116132782D01*
X117979353Y-116132782D02*
X117273194Y-116278921D01*
X117979353Y-116132782D02*
X117773309Y-116642772D01*
X117979353Y-116132782D02*
X118185379Y-115622833D01*
X118350230Y-116282641D02*
X117979353Y-116132782D01*
%TO.C,S14*%
X201956196Y-158242999D02*
X202275648Y-158002275D01*
X202275648Y-158002275D02*
X201944650Y-157563025D01*
X202275648Y-158002275D02*
X202514103Y-157321735D01*
X202275648Y-158002275D02*
X202606644Y-158441522D01*
X202514103Y-157321735D02*
X202995554Y-157960637D01*
X202754827Y-157641188D02*
X203154147Y-157340283D01*
X202995554Y-157960637D02*
X202275648Y-158002275D01*
%TO.C,SW10*%
X91654308Y-130577385D02*
X91914744Y-129820959D01*
X91784540Y-130199179D02*
X91311775Y-130036398D01*
X91914744Y-129820959D02*
X92351864Y-130394495D01*
X92351864Y-130394495D02*
X91654308Y-130577385D01*
X92351864Y-130394495D02*
X92172798Y-130914549D01*
X92351864Y-130394495D02*
X92530920Y-129874463D01*
X92730071Y-130524719D02*
X92351864Y-130394495D01*
%TO.C,SW19*%
X252161465Y-129983780D02*
X252859005Y-130166624D01*
X252291725Y-130361989D02*
X251818960Y-130524777D01*
X252421938Y-130740195D02*
X252161465Y-129983780D01*
X252859005Y-130166624D02*
X252421938Y-130740195D01*
X252859005Y-130166624D02*
X252679949Y-129646586D01*
X252859005Y-130166624D02*
X253038077Y-130686668D01*
X253237226Y-130036394D02*
X252859005Y-130166624D01*
%TO.C,SW21*%
X197123468Y-141754240D02*
X197829629Y-141900322D01*
X197273349Y-142125106D02*
X196809744Y-142312405D01*
X197423176Y-142495994D02*
X197123468Y-141754240D01*
X197829629Y-141900322D02*
X197423176Y-142495994D01*
X197829629Y-141900322D02*
X197623593Y-141390362D01*
X197829629Y-141900322D02*
X198035679Y-142410290D01*
X198200509Y-141750481D02*
X197829629Y-141900322D01*
%TO.C,SW22*%
X210998560Y-126711160D02*
X211704721Y-126857242D01*
X211148441Y-127082026D02*
X210684836Y-127269325D01*
X211298268Y-127452914D02*
X210998560Y-126711160D01*
X211704721Y-126857242D02*
X211298268Y-127452914D01*
X211704721Y-126857242D02*
X211498685Y-126347282D01*
X211704721Y-126857242D02*
X211910771Y-127367210D01*
X212075601Y-126707401D02*
X211704721Y-126857242D01*
D12*
%TO.C,G\u002A\u002A\u002A*%
G36*
X180214887Y-157062587D02*
G01*
X180253487Y-157144014D01*
X180252176Y-157228777D01*
X180245317Y-157242886D01*
X180179044Y-157284435D01*
X180101525Y-157266585D01*
X180065393Y-157221566D01*
X180057530Y-157122312D01*
X180099825Y-157046632D01*
X180153950Y-157026181D01*
X180214887Y-157062587D01*
G37*
G36*
X182597970Y-157232919D02*
G01*
X182628021Y-157284012D01*
X182633111Y-157373531D01*
X182622559Y-157480145D01*
X182580423Y-157528026D01*
X182535224Y-157539397D01*
X182445516Y-157525008D01*
X182412389Y-157488281D01*
X182398123Y-157394034D01*
X182401728Y-157322416D01*
X182438265Y-157242858D01*
X182524564Y-157221566D01*
X182597970Y-157232919D01*
G37*
G36*
X179533024Y-156282661D02*
G01*
X179625633Y-156380218D01*
X179698997Y-156512565D01*
X179724466Y-156593882D01*
X179725521Y-156772737D01*
X179665506Y-156953847D01*
X179558191Y-157098219D01*
X179541377Y-157112340D01*
X179434085Y-157183234D01*
X179369421Y-157196840D01*
X179354991Y-157170141D01*
X179365905Y-157115399D01*
X179394212Y-157003732D01*
X179425379Y-156889564D01*
X179462849Y-156746895D01*
X179473722Y-156654713D01*
X179456214Y-156580286D01*
X179408543Y-156490886D01*
X179403167Y-156481758D01*
X179342227Y-156352492D01*
X179346121Y-156275872D01*
X179415849Y-156245676D01*
X179441240Y-156244643D01*
X179533024Y-156282661D01*
G37*
G36*
X186873994Y-158166063D02*
G01*
X186953687Y-158205593D01*
X186974991Y-158257919D01*
X186932978Y-158334760D01*
X186824238Y-158388175D01*
X186692354Y-158469740D01*
X186576669Y-158607344D01*
X186498212Y-158770324D01*
X186476389Y-158895360D01*
X186450725Y-159007897D01*
X186389368Y-159085073D01*
X186313345Y-159112512D01*
X186243682Y-159075835D01*
X186233518Y-159061438D01*
X186229851Y-158999619D01*
X186245103Y-158873599D01*
X186275714Y-158703054D01*
X186318122Y-158507662D01*
X186368766Y-158307099D01*
X186372520Y-158293402D01*
X186421756Y-158250549D01*
X186464524Y-158248024D01*
X186560142Y-158236853D01*
X186640642Y-158204708D01*
X186760590Y-158164327D01*
X186873994Y-158166063D01*
G37*
G36*
X180091824Y-157759853D02*
G01*
X180106344Y-157818224D01*
X180097003Y-157927580D01*
X180062796Y-158097799D01*
X180002719Y-158338758D01*
X179988158Y-158393873D01*
X179941700Y-158585842D01*
X179909129Y-158754862D01*
X179894387Y-158878206D01*
X179896313Y-158923450D01*
X179919933Y-159018838D01*
X180029452Y-158917340D01*
X180146490Y-158827959D01*
X180241531Y-158790319D01*
X180299496Y-158808164D01*
X180310205Y-158847592D01*
X180282884Y-158932703D01*
X180213706Y-159046520D01*
X180121844Y-159165214D01*
X180026471Y-159264953D01*
X179946761Y-159321908D01*
X179924176Y-159327378D01*
X179838664Y-159296926D01*
X179763344Y-159235734D01*
X179699355Y-159104891D01*
X179679391Y-158911294D01*
X179702602Y-158666530D01*
X179768138Y-158382189D01*
X179842662Y-158155070D01*
X179920352Y-157959341D01*
X179987771Y-157820470D01*
X180039249Y-157749499D01*
X180054450Y-157742591D01*
X180091824Y-157759853D01*
G37*
G36*
X182399665Y-157932010D02*
G01*
X182412162Y-158023091D01*
X182400016Y-158178214D01*
X182364156Y-158406390D01*
X182354328Y-158460994D01*
X182320934Y-158657132D01*
X182297692Y-158820540D01*
X182286852Y-158933251D01*
X182289775Y-158976730D01*
X182310902Y-158978862D01*
X182349700Y-158947799D01*
X182415468Y-158873387D01*
X182517508Y-158745473D01*
X182603849Y-158633827D01*
X182694617Y-158532802D01*
X182752716Y-158510995D01*
X182781083Y-158568422D01*
X182785076Y-158634833D01*
X182758007Y-158789427D01*
X182686903Y-158952794D01*
X182586922Y-159103378D01*
X182473223Y-159219622D01*
X182360964Y-159279971D01*
X182328624Y-159283959D01*
X182233698Y-159253568D01*
X182141363Y-159183468D01*
X182061043Y-159035663D01*
X182046957Y-158920261D01*
X182057072Y-158788094D01*
X182084054Y-158617593D01*
X182122854Y-158429235D01*
X182168423Y-158243495D01*
X182215714Y-158080851D01*
X182259679Y-157961778D01*
X182295270Y-157906752D01*
X182297020Y-157905938D01*
X182361594Y-157895962D01*
X182399665Y-157932010D01*
G37*
G36*
X189772504Y-158081731D02*
G01*
X189855542Y-158148360D01*
X189897593Y-158279543D01*
X189898011Y-158283601D01*
X189880981Y-158429081D01*
X189811173Y-158533006D01*
X189662295Y-158658490D01*
X189501292Y-158740324D01*
X189384328Y-158762933D01*
X189322947Y-158779313D01*
X189319606Y-158806352D01*
X189379356Y-158839758D01*
X189454155Y-158849771D01*
X189558524Y-158829835D01*
X189691607Y-158780236D01*
X189819952Y-158716285D01*
X189910106Y-158653294D01*
X189927086Y-158633297D01*
X189994489Y-158592896D01*
X190083931Y-158599840D01*
X190148099Y-158649216D01*
X190151419Y-158656595D01*
X190141209Y-158741679D01*
X190065622Y-158842084D01*
X189941428Y-158944975D01*
X189785394Y-159037517D01*
X189614291Y-159106874D01*
X189536700Y-159127131D01*
X189386440Y-159123388D01*
X189268104Y-159069625D01*
X189132934Y-158969287D01*
X189070246Y-158866914D01*
X189074904Y-158741537D01*
X189141771Y-158572189D01*
X189144758Y-158566059D01*
X189190813Y-158489753D01*
X189487620Y-158489753D01*
X189528935Y-158474049D01*
X189565986Y-158450323D01*
X189645403Y-158382840D01*
X189680156Y-158332566D01*
X189670046Y-158307249D01*
X189621255Y-158325419D01*
X189558451Y-158371168D01*
X189506302Y-158428589D01*
X189493222Y-158453105D01*
X189487620Y-158489753D01*
X189190813Y-158489753D01*
X189260336Y-158374564D01*
X189392393Y-158226073D01*
X189529436Y-158124898D01*
X189659970Y-158075347D01*
X189772504Y-158081731D01*
G37*
G36*
X181938410Y-157807719D02*
G01*
X181984741Y-157895337D01*
X182003369Y-158048990D01*
X182003538Y-158067715D01*
X181980173Y-158236743D01*
X181916897Y-158431112D01*
X181823932Y-158633895D01*
X181711505Y-158828167D01*
X181589841Y-158997001D01*
X181469164Y-159123469D01*
X181359700Y-159190644D01*
X181321294Y-159197121D01*
X181212377Y-159157470D01*
X181117665Y-159053258D01*
X181056697Y-158906600D01*
X181054059Y-158894651D01*
X181026615Y-158762299D01*
X180874260Y-158968336D01*
X180760802Y-159106174D01*
X180669323Y-159174099D01*
X180583802Y-159180282D01*
X180516444Y-159150808D01*
X180474367Y-159115216D01*
X180451067Y-159060158D01*
X180447173Y-158972468D01*
X180463311Y-158838981D01*
X180500111Y-158646532D01*
X180551745Y-158410563D01*
X180609179Y-158166886D01*
X180655927Y-157999641D01*
X180696106Y-157899695D01*
X180733833Y-157857915D01*
X180773225Y-157865167D01*
X180790814Y-157880192D01*
X180808039Y-157935765D01*
X180804244Y-158053108D01*
X180778801Y-158240737D01*
X180753320Y-158388192D01*
X180720188Y-158575137D01*
X180695124Y-158725735D01*
X180680916Y-158822610D01*
X180679323Y-158849771D01*
X180707941Y-158814918D01*
X180767476Y-158722971D01*
X180846856Y-158592846D01*
X180935008Y-158443460D01*
X181020859Y-158293729D01*
X181093338Y-158162570D01*
X181141371Y-158068899D01*
X181153550Y-158039589D01*
X181211339Y-157923824D01*
X181286865Y-157870144D01*
X181363485Y-157889253D01*
X181373294Y-157898287D01*
X181405107Y-157946709D01*
X181409866Y-158016474D01*
X181387386Y-158133095D01*
X181371115Y-158197096D01*
X181334188Y-158387047D01*
X181312721Y-158593231D01*
X181310399Y-158674703D01*
X181311960Y-158914899D01*
X181419565Y-158784643D01*
X181556354Y-158586986D01*
X181663831Y-158369903D01*
X181729184Y-158162759D01*
X181743025Y-158043314D01*
X181761504Y-157894598D01*
X181810828Y-157802800D01*
X181881833Y-157778973D01*
X181938410Y-157807719D01*
G37*
G36*
X179114222Y-156474385D02*
G01*
X179157977Y-156503196D01*
X179162181Y-156509322D01*
X179160747Y-156578269D01*
X179083583Y-156651135D01*
X178941065Y-156720583D01*
X178800361Y-156765263D01*
X178551743Y-156831007D01*
X178503609Y-157047996D01*
X178467984Y-157231434D01*
X178429915Y-157465895D01*
X178391639Y-157732770D01*
X178355394Y-158013452D01*
X178323419Y-158289334D01*
X178297950Y-158541810D01*
X178281226Y-158752271D01*
X178275485Y-158902110D01*
X178276473Y-158936608D01*
X178291230Y-159175412D01*
X178552818Y-159161186D01*
X178708296Y-159157802D01*
X178805311Y-159172805D01*
X178871364Y-159212302D01*
X178896284Y-159237435D01*
X178946688Y-159311288D01*
X178950224Y-159355848D01*
X178895669Y-159375021D01*
X178774151Y-159401296D01*
X178604963Y-159431739D01*
X178407397Y-159463417D01*
X178200746Y-159493393D01*
X178004303Y-159518733D01*
X177837361Y-159536503D01*
X177719211Y-159543768D01*
X177714568Y-159543804D01*
X177575075Y-159530428D01*
X177507528Y-159486766D01*
X177502564Y-159476425D01*
X177496317Y-159404738D01*
X177549214Y-159353243D01*
X177671921Y-159315051D01*
X177782137Y-159295856D01*
X178008906Y-159262249D01*
X178026150Y-158784643D01*
X178037619Y-158566001D01*
X178054770Y-158357998D01*
X178074945Y-158189120D01*
X178088923Y-158111651D01*
X178115674Y-157981794D01*
X178149394Y-157796731D01*
X178184602Y-157587199D01*
X178201173Y-157482078D01*
X178232015Y-157288556D01*
X178260845Y-157120268D01*
X178283581Y-157000452D01*
X178292725Y-156961053D01*
X178299151Y-156913826D01*
X178272375Y-156887736D01*
X178194670Y-156876594D01*
X178048308Y-156874216D01*
X178043881Y-156874215D01*
X177893964Y-156871340D01*
X177811360Y-156858603D01*
X177776622Y-156829832D01*
X177770205Y-156787378D01*
X177802050Y-156713458D01*
X177878752Y-156687960D01*
X177964832Y-156673312D01*
X178112754Y-156643536D01*
X178299818Y-156603338D01*
X178454865Y-156568558D01*
X178715726Y-156511645D01*
X178904782Y-156477630D01*
X179033719Y-156465536D01*
X179114222Y-156474385D01*
G37*
G36*
X188255585Y-158062198D02*
G01*
X188335082Y-158152480D01*
X188366994Y-158262854D01*
X188359029Y-158311772D01*
X188318774Y-158388468D01*
X188242780Y-158506615D01*
X188159290Y-158624422D01*
X187988595Y-158854970D01*
X188154784Y-158827278D01*
X188299975Y-158799866D01*
X188381804Y-158765164D01*
X188422679Y-158702322D01*
X188445012Y-158590489D01*
X188450344Y-158552287D01*
X188487881Y-158379454D01*
X188539215Y-158263051D01*
X188594704Y-158208038D01*
X188644704Y-158219373D01*
X188679572Y-158302013D01*
X188690112Y-158429000D01*
X188690190Y-158610967D01*
X188920624Y-158353482D01*
X189053920Y-158213897D01*
X189148259Y-158138910D01*
X189213344Y-158121196D01*
X189224477Y-158124171D01*
X189287174Y-158177268D01*
X189297897Y-158212682D01*
X189270453Y-158271252D01*
X189196955Y-158377519D01*
X189090653Y-158515746D01*
X188964797Y-158670197D01*
X188832636Y-158825134D01*
X188707420Y-158964822D01*
X188602399Y-159073524D01*
X188530824Y-159135503D01*
X188513902Y-159143819D01*
X188436851Y-159138346D01*
X188416549Y-159126257D01*
X188392491Y-159062801D01*
X188386102Y-158994500D01*
X188382447Y-158925305D01*
X188357394Y-158924911D01*
X188300369Y-158978923D01*
X188144606Y-159077415D01*
X187956769Y-159096806D01*
X187824064Y-159067659D01*
X187686961Y-159036672D01*
X187587358Y-159053634D01*
X187570266Y-159061983D01*
X187466914Y-159094162D01*
X187331379Y-159109954D01*
X187311055Y-159110284D01*
X187159889Y-159083325D01*
X187035474Y-158994859D01*
X186923217Y-158833500D01*
X186899888Y-158789416D01*
X186865325Y-158707570D01*
X186865172Y-158636961D01*
X186893537Y-158569050D01*
X187140697Y-158569050D01*
X187169020Y-158568893D01*
X187200139Y-158553147D01*
X187290493Y-158488031D01*
X187362362Y-158419338D01*
X187415388Y-158347543D01*
X187424384Y-158307768D01*
X187376122Y-158312747D01*
X187298601Y-158363149D01*
X187218631Y-158438090D01*
X187167425Y-158507934D01*
X187140697Y-158569050D01*
X186893537Y-158569050D01*
X186903945Y-158544132D01*
X186942602Y-158473087D01*
X187055742Y-158316880D01*
X187197988Y-158185137D01*
X187345707Y-158096293D01*
X187461676Y-158068232D01*
X187568623Y-158106103D01*
X187643046Y-158199814D01*
X187666494Y-158319518D01*
X187653699Y-158378838D01*
X187600162Y-158465334D01*
X187506943Y-158572571D01*
X187396376Y-158679307D01*
X187290795Y-158764300D01*
X187212535Y-158806308D01*
X187202815Y-158807672D01*
X187185653Y-158824171D01*
X187219758Y-158850511D01*
X187330135Y-158870719D01*
X187461607Y-158837037D01*
X187581843Y-158764036D01*
X187658514Y-158666285D01*
X187664325Y-158650170D01*
X187726700Y-158480711D01*
X187953544Y-158480711D01*
X187970543Y-158488711D01*
X188015782Y-158431032D01*
X188079694Y-158320170D01*
X188086539Y-158307036D01*
X188100339Y-158268664D01*
X188065181Y-158301832D01*
X188042631Y-158328745D01*
X187980616Y-158416837D01*
X187953583Y-158479532D01*
X187953544Y-158480711D01*
X187726700Y-158480711D01*
X187767216Y-158370639D01*
X187882594Y-158174866D01*
X188012355Y-158060422D01*
X188152153Y-158024813D01*
X188255585Y-158062198D01*
G37*
G36*
X184093216Y-157979870D02*
G01*
X184107158Y-158079003D01*
X184100836Y-158145011D01*
X184089856Y-158245475D01*
X184102166Y-158274486D01*
X184134088Y-158252762D01*
X184229706Y-158209628D01*
X184356224Y-158201723D01*
X184463917Y-158232020D01*
X184465392Y-158232943D01*
X184520341Y-158296307D01*
X184560332Y-158373390D01*
X184592020Y-158432575D01*
X184605823Y-158412052D01*
X184605914Y-158410044D01*
X184639621Y-158321876D01*
X184668034Y-158290107D01*
X184737201Y-158268922D01*
X184788400Y-158314989D01*
X184808729Y-158408869D01*
X184799008Y-158487412D01*
X184787916Y-158547053D01*
X184801755Y-158558914D01*
X184850741Y-158517370D01*
X184945090Y-158416795D01*
X184963034Y-158397097D01*
X185082748Y-158275679D01*
X185167563Y-158216947D01*
X185231214Y-158211648D01*
X185235893Y-158213290D01*
X185285477Y-158249561D01*
X185297693Y-158322221D01*
X185287062Y-158413281D01*
X185274915Y-158523877D01*
X185292616Y-158576083D01*
X185350136Y-158596043D01*
X185357167Y-158597089D01*
X185446288Y-158636729D01*
X185465267Y-158706101D01*
X185414341Y-158784073D01*
X185354606Y-158824018D01*
X185251541Y-158907509D01*
X185198985Y-159038995D01*
X185196217Y-159052977D01*
X185132910Y-159272961D01*
X185038758Y-159453507D01*
X184924142Y-159585897D01*
X184799448Y-159661415D01*
X184675056Y-159671341D01*
X184561351Y-159606959D01*
X184550267Y-159595326D01*
X184490124Y-159500866D01*
X184489853Y-159397988D01*
X184494657Y-159386461D01*
X184739587Y-159386461D01*
X184757000Y-159399317D01*
X184802495Y-159343353D01*
X184868003Y-159228704D01*
X184873085Y-159218831D01*
X184892696Y-159172201D01*
X184867457Y-159190840D01*
X184828212Y-159234495D01*
X184765217Y-159321640D01*
X184739587Y-159386461D01*
X184494657Y-159386461D01*
X184544621Y-159266569D01*
X184585278Y-159173350D01*
X184578307Y-159112777D01*
X184540156Y-159063127D01*
X184500532Y-159002864D01*
X184491210Y-158925078D01*
X184509967Y-158800249D01*
X184517631Y-158763593D01*
X184522213Y-158741224D01*
X184956017Y-158741224D01*
X184977726Y-158762933D01*
X184999435Y-158741224D01*
X184977726Y-158719514D01*
X184956017Y-158741224D01*
X184522213Y-158741224D01*
X184549884Y-158606153D01*
X184560630Y-158527476D01*
X184548696Y-158521900D01*
X184512910Y-158583765D01*
X184489887Y-158629711D01*
X184414374Y-158752106D01*
X184308318Y-158889262D01*
X184258795Y-158944498D01*
X184108926Y-159066348D01*
X183967942Y-159113764D01*
X183846164Y-159085335D01*
X183772069Y-159011011D01*
X183744339Y-158958209D01*
X183733615Y-158896232D01*
X183738897Y-158835538D01*
X184003598Y-158835538D01*
X184024805Y-158838473D01*
X184059144Y-158811985D01*
X184128116Y-158736913D01*
X184207641Y-158626927D01*
X184222325Y-158603802D01*
X184275882Y-158506151D01*
X184297563Y-158443600D01*
X184295667Y-158435461D01*
X184255217Y-158447823D01*
X184188010Y-158511060D01*
X184113207Y-158602341D01*
X184049967Y-158698836D01*
X184021127Y-158762593D01*
X184003598Y-158835538D01*
X183738897Y-158835538D01*
X183741450Y-158806200D01*
X183769396Y-158669231D01*
X183815814Y-158479130D01*
X183866885Y-158291216D01*
X183917251Y-158131823D01*
X183959857Y-158022060D01*
X183980247Y-157987112D01*
X184048322Y-157945849D01*
X184093216Y-157979870D01*
G37*
D11*
%TO.C,SW23*%
X226512519Y-115724489D02*
X227218680Y-115870571D01*
X226662400Y-116095355D02*
X226198795Y-116282654D01*
X226812227Y-116466243D02*
X226512519Y-115724489D01*
X227218680Y-115870571D02*
X226812227Y-116466243D01*
X227218680Y-115870571D02*
X227012644Y-115360611D01*
X227218680Y-115870571D02*
X227424730Y-116380539D01*
X227589560Y-115720730D02*
X227218680Y-115870571D01*
%TO.C,SW2*%
X123828811Y-100053230D02*
X124128491Y-99311472D01*
X123978654Y-99682363D02*
X123515057Y-99495056D01*
X124128491Y-99311472D02*
X124534970Y-99907091D01*
X124534970Y-99907091D02*
X123828811Y-100053230D01*
X124534970Y-99907091D02*
X124328926Y-100417081D01*
X124534970Y-99907091D02*
X124740996Y-99397142D01*
X124905847Y-100056950D02*
X124534970Y-99907091D01*
%TO.C,SW9*%
X73540784Y-125346931D02*
X73734300Y-124570684D01*
X73637554Y-124958821D02*
X73152406Y-124837837D01*
X73734300Y-124570684D02*
X74219736Y-125103939D01*
X74219736Y-125103939D02*
X73540784Y-125346931D01*
X74219736Y-125103939D02*
X74086671Y-125637634D01*
X74219736Y-125103939D02*
X74352779Y-124570283D01*
X74607862Y-125200710D02*
X74219736Y-125103939D01*
%TO.C,SW11*%
X110717529Y-132504694D02*
X111017209Y-131762936D01*
X110867372Y-132133827D02*
X110403775Y-131946520D01*
X111017209Y-131762936D02*
X111423688Y-132358555D01*
X111423688Y-132358555D02*
X110717529Y-132504694D01*
X111423688Y-132358555D02*
X111217644Y-132868545D01*
X111423688Y-132358555D02*
X111629714Y-131848606D01*
X111794565Y-132508414D02*
X111423688Y-132358555D01*
%TO.C,S1*%
X69307150Y-142327103D02*
X69500690Y-141550863D01*
X69403921Y-141938981D02*
X68918769Y-141818020D01*
X69500690Y-141550863D02*
X69986098Y-142084138D01*
X69986098Y-142084138D02*
X69307150Y-142327103D01*
X69986098Y-142084138D02*
X69853042Y-142617798D01*
X69986098Y-142084138D02*
X70119155Y-141550474D01*
X70374214Y-142180905D02*
X69986098Y-142084138D01*
%TO.C,S28*%
X193329013Y-178315737D02*
X194030738Y-178149715D01*
X193621565Y-178588527D02*
X193280550Y-178954212D01*
X193914102Y-178861327D02*
X193329013Y-178315737D01*
X194030738Y-178149715D02*
X193628490Y-177774605D01*
X194030738Y-178149715D02*
X193914102Y-178861327D01*
X194030738Y-178149715D02*
X194433003Y-178524811D01*
X194303565Y-177857163D02*
X194030738Y-178149715D01*
%TO.C,SW7*%
X132787155Y-127265604D02*
X133086835Y-126523846D01*
X132936998Y-126894737D02*
X132473401Y-126707430D01*
X133086835Y-126523846D02*
X133493314Y-127119465D01*
X133493314Y-127119465D02*
X132787155Y-127265604D01*
X133493314Y-127119465D02*
X133287270Y-127629455D01*
X133493314Y-127119465D02*
X133699340Y-126609516D01*
X133864191Y-127269324D02*
X133493314Y-127119465D01*
%TO.C,S15*%
X270329549Y-124691650D02*
X271008496Y-124934616D01*
X270426319Y-125079767D02*
X269941170Y-125200726D01*
X270523089Y-125467886D02*
X270329549Y-124691650D01*
X271008496Y-124934616D02*
X270523089Y-125467886D01*
X271008496Y-124934616D02*
X270875438Y-124400955D01*
X271008496Y-124934616D02*
X271141552Y-125468279D01*
X271396613Y-124837846D02*
X271008496Y-124934616D01*
%TO.C,SW24*%
X246457329Y-113430977D02*
X247154869Y-113613821D01*
X246587589Y-113809186D02*
X246114824Y-113971974D01*
X246717802Y-114187392D02*
X246457329Y-113430977D01*
X247154869Y-113613821D02*
X246717802Y-114187392D01*
X247154869Y-113613821D02*
X246975813Y-113093783D01*
X247154869Y-113613821D02*
X247333941Y-114133865D01*
X247533090Y-113483591D02*
X247154869Y-113613821D01*
%TO.C,SW25*%
X190564400Y-125526462D02*
X191270561Y-125672544D01*
X190714281Y-125897328D02*
X190250676Y-126084627D01*
X190864108Y-126268216D02*
X190564400Y-125526462D01*
X191270561Y-125672544D02*
X190864108Y-126268216D01*
X191270561Y-125672544D02*
X191064525Y-125162584D01*
X191270561Y-125672544D02*
X191476611Y-126182512D01*
X191641441Y-125522703D02*
X191270561Y-125672544D01*
%TO.C,SW5*%
X97351771Y-114030785D02*
X97612207Y-113274359D01*
X97482003Y-113652579D02*
X97009238Y-113489798D01*
X97612207Y-113274359D02*
X98049327Y-113847895D01*
X98049327Y-113847895D02*
X97351771Y-114030785D01*
X98049327Y-113847895D02*
X97870261Y-114367949D01*
X98049327Y-113847895D02*
X98228383Y-113327863D01*
X98427534Y-113978119D02*
X98049327Y-113847895D01*
%TO.C,SW4*%
X153217902Y-126082982D02*
X153517582Y-125341224D01*
X153367745Y-125712115D02*
X152904148Y-125524808D01*
X153517582Y-125341224D02*
X153924061Y-125936843D01*
X153924061Y-125936843D02*
X153217902Y-126082982D01*
X153924061Y-125936843D02*
X153718017Y-126446833D01*
X153924061Y-125936843D02*
X154130087Y-125426894D01*
X154294938Y-126086702D02*
X153924061Y-125936843D01*
%TO.C,S14*%
X141383693Y-157340868D02*
X141703145Y-157581593D01*
X141703145Y-157581593D02*
X141372149Y-158020843D01*
X141703145Y-157581593D02*
X142034143Y-157142344D01*
X141703145Y-157581593D02*
X142423052Y-157623228D01*
X141941600Y-158262135D02*
X141703145Y-157581593D01*
X142182326Y-157942682D02*
X142581643Y-158243591D01*
X142423052Y-157623228D02*
X141941600Y-158262135D01*
D12*
%TO.C,G\u002A\u002A\u002A*%
G36*
X195167616Y-152395929D02*
G01*
X195177925Y-152471107D01*
X195171650Y-152506454D01*
X195140865Y-152580419D01*
X195097524Y-152588304D01*
X195053404Y-152554104D01*
X195014056Y-152479727D01*
X195043861Y-152406699D01*
X195065284Y-152386326D01*
X195126164Y-152363258D01*
X195167616Y-152395929D01*
G37*
G36*
X194983831Y-152191141D02*
G01*
X195003570Y-152262091D01*
X194999650Y-152350145D01*
X194970140Y-152430597D01*
X194964071Y-152439554D01*
X194926275Y-152485004D01*
X194906268Y-152473116D01*
X194890268Y-152417059D01*
X194875456Y-152303141D01*
X194888590Y-152213078D01*
X194925897Y-152165329D01*
X194942365Y-152162000D01*
X194983831Y-152191141D01*
G37*
G36*
X190044997Y-155841180D02*
G01*
X190033322Y-155873601D01*
X189984262Y-155936950D01*
X189945140Y-155979460D01*
X189855736Y-156056029D01*
X189777996Y-156095662D01*
X189724365Y-156095188D01*
X189707288Y-156051437D01*
X189708878Y-156039664D01*
X189741063Y-155996263D01*
X189811031Y-155941792D01*
X189897576Y-155888773D01*
X189979493Y-155849729D01*
X190035578Y-155837182D01*
X190044997Y-155841180D01*
G37*
G36*
X190610181Y-152363780D02*
G01*
X190666846Y-152375866D01*
X190674333Y-152384187D01*
X190643340Y-152441219D01*
X190564282Y-152486384D01*
X190458042Y-152515735D01*
X190345499Y-152525321D01*
X190247534Y-152511196D01*
X190189802Y-152475815D01*
X190162891Y-152420202D01*
X190165904Y-152396100D01*
X190207131Y-152378888D01*
X190292899Y-152366565D01*
X190402481Y-152359615D01*
X190515150Y-152358525D01*
X190610181Y-152363780D01*
G37*
G36*
X194023433Y-150112789D02*
G01*
X194049968Y-150128417D01*
X194064960Y-150167662D01*
X194027536Y-150209433D01*
X193931717Y-150258591D01*
X193849333Y-150291533D01*
X193756649Y-150327441D01*
X193688020Y-150355308D01*
X193626142Y-150355950D01*
X193604425Y-150337025D01*
X193607296Y-150285890D01*
X193660510Y-150229229D01*
X193746400Y-150175316D01*
X193847297Y-150132423D01*
X193945531Y-150108823D01*
X194023433Y-150112789D01*
G37*
G36*
X195321029Y-150220765D02*
G01*
X195306328Y-150278189D01*
X195234728Y-150373115D01*
X195140796Y-150471587D01*
X195027248Y-150579507D01*
X194953972Y-150638227D01*
X194915990Y-150651168D01*
X194907666Y-150631906D01*
X194930014Y-150574449D01*
X194987363Y-150488782D01*
X195065168Y-150391787D01*
X195148883Y-150300346D01*
X195223966Y-150231341D01*
X195275870Y-150201652D01*
X195278502Y-150201481D01*
X195321029Y-150220765D01*
G37*
G36*
X195473931Y-150362919D02*
G01*
X195467164Y-150400328D01*
X195432357Y-150486153D01*
X195375024Y-150608059D01*
X195300676Y-150753714D01*
X195291706Y-150770638D01*
X195201799Y-150944314D01*
X195114529Y-151121049D01*
X195040701Y-151278509D01*
X194996285Y-151381263D01*
X194939330Y-151510055D01*
X194879832Y-151624133D01*
X194834499Y-151693558D01*
X194763268Y-151780306D01*
X194782646Y-151616272D01*
X194823696Y-151429931D01*
X194908370Y-151202161D01*
X195038044Y-150929673D01*
X195174354Y-150678599D01*
X195270059Y-150516109D01*
X195342497Y-150410251D01*
X195397650Y-150354721D01*
X195441500Y-150343216D01*
X195473931Y-150362919D01*
G37*
G36*
X187263155Y-153052524D02*
G01*
X187319321Y-153071544D01*
X187434260Y-153089624D01*
X187597349Y-153106294D01*
X187797965Y-153121081D01*
X188025483Y-153133514D01*
X188269280Y-153143121D01*
X188518732Y-153149432D01*
X188763215Y-153151974D01*
X188992106Y-153150275D01*
X189194781Y-153143865D01*
X189251655Y-153140785D01*
X189562928Y-153122823D01*
X189810972Y-153110955D01*
X190001690Y-153105232D01*
X190140989Y-153105701D01*
X190234773Y-153112411D01*
X190288948Y-153125411D01*
X190309419Y-153144750D01*
X190309988Y-153149512D01*
X190278473Y-153191679D01*
X190196589Y-153224200D01*
X190188540Y-153226004D01*
X190087410Y-153242462D01*
X189932844Y-153261484D01*
X189740694Y-153281707D01*
X189526811Y-153301766D01*
X189307046Y-153320299D01*
X189097253Y-153335942D01*
X188913282Y-153347332D01*
X188770984Y-153353105D01*
X188709350Y-153353230D01*
X188604736Y-153349945D01*
X188447750Y-153344697D01*
X188255373Y-153338066D01*
X188044587Y-153330637D01*
X187912189Y-153325888D01*
X187653449Y-153313851D01*
X187456569Y-153297510D01*
X187314047Y-153274855D01*
X187218381Y-153243874D01*
X187162072Y-153202555D01*
X187137616Y-153148887D01*
X187134988Y-153117483D01*
X187156498Y-153043714D01*
X187210687Y-153025392D01*
X187263155Y-153052524D01*
G37*
G36*
X194712124Y-149656004D02*
G01*
X194794714Y-149695585D01*
X194866739Y-149761313D01*
X194975084Y-149909606D01*
X195016746Y-150058323D01*
X194991615Y-150201653D01*
X194899580Y-150333783D01*
X194878059Y-150354014D01*
X194774872Y-150408193D01*
X194636442Y-150433963D01*
X194491766Y-150429174D01*
X194369902Y-150391705D01*
X194235243Y-150304558D01*
X194189336Y-150253530D01*
X194525972Y-150253530D01*
X194543322Y-150270880D01*
X194560671Y-150253530D01*
X194543322Y-150236181D01*
X194525972Y-150253530D01*
X194189336Y-150253530D01*
X194149156Y-150208868D01*
X194109093Y-150130910D01*
X194099451Y-150045334D01*
X194213677Y-150045334D01*
X194231026Y-150062683D01*
X194248376Y-150045334D01*
X194240706Y-150037664D01*
X194465005Y-150037664D01*
X194486855Y-150054435D01*
X194525972Y-150066302D01*
X194613651Y-150088471D01*
X194653593Y-150087505D01*
X194664415Y-150060589D01*
X194664770Y-150045334D01*
X194638270Y-150000719D01*
X194563555Y-149999137D01*
X194502785Y-150017711D01*
X194465005Y-150037664D01*
X194240706Y-150037664D01*
X194231026Y-150027984D01*
X194213677Y-150045334D01*
X194099451Y-150045334D01*
X194096345Y-150017773D01*
X194137626Y-149908977D01*
X194352475Y-149908977D01*
X194377977Y-149908742D01*
X194421873Y-149889186D01*
X194476405Y-149853352D01*
X194491272Y-149834695D01*
X194465770Y-149834931D01*
X194421873Y-149854487D01*
X194367342Y-149890321D01*
X194352475Y-149908977D01*
X194137626Y-149908977D01*
X194140074Y-149902525D01*
X194223788Y-149802437D01*
X194525972Y-149802437D01*
X194543322Y-149819787D01*
X194560671Y-149802437D01*
X194543322Y-149785088D01*
X194525972Y-149802437D01*
X194223788Y-149802437D01*
X194228688Y-149796578D01*
X194350595Y-149711345D01*
X194494203Y-149658238D01*
X194601334Y-149646290D01*
X194712124Y-149656004D01*
G37*
G36*
X196620774Y-149128711D02*
G01*
X196973434Y-149245226D01*
X197312757Y-149415961D01*
X197453442Y-149506546D01*
X197658881Y-149663174D01*
X197840967Y-149830172D01*
X197994769Y-150000070D01*
X198115353Y-150165402D01*
X198197789Y-150318699D01*
X198237143Y-150452496D01*
X198228483Y-150559323D01*
X198187215Y-150617501D01*
X198105114Y-150645995D01*
X198013676Y-150618051D01*
X197931814Y-150540620D01*
X197917389Y-150518348D01*
X197837872Y-150417274D01*
X197717090Y-150301807D01*
X197575533Y-150189213D01*
X197433691Y-150096759D01*
X197388677Y-150072801D01*
X197186263Y-149989038D01*
X196981732Y-149941920D01*
X196750765Y-149927094D01*
X196598607Y-149931389D01*
X196345129Y-149961035D01*
X196138132Y-150019273D01*
X195983984Y-150103495D01*
X195889056Y-150211095D01*
X195882341Y-150224596D01*
X195862184Y-150297667D01*
X195841613Y-150422125D01*
X195823144Y-150580021D01*
X195810177Y-150739323D01*
X195795771Y-150930873D01*
X195777385Y-151078291D01*
X195749447Y-151206826D01*
X195706386Y-151341727D01*
X195642633Y-151508243D01*
X195637920Y-151520060D01*
X195562983Y-151719764D01*
X195512874Y-151889274D01*
X195479892Y-152059704D01*
X195457609Y-152248749D01*
X195412832Y-152578569D01*
X195344360Y-152900933D01*
X195257167Y-153196825D01*
X195156225Y-153447224D01*
X195131041Y-153497421D01*
X195033702Y-153663792D01*
X194904643Y-153858279D01*
X194759839Y-154058591D01*
X194615267Y-154242433D01*
X194512588Y-154360434D01*
X194398424Y-154469852D01*
X194246140Y-154596763D01*
X194070482Y-154730751D01*
X193886196Y-154861400D01*
X193708030Y-154978296D01*
X193550731Y-155071022D01*
X193429045Y-155129163D01*
X193419047Y-155132798D01*
X193313544Y-155192804D01*
X193273342Y-155273691D01*
X193299858Y-155370744D01*
X193333347Y-155417736D01*
X193389009Y-155505844D01*
X193415281Y-155590187D01*
X193415589Y-155597650D01*
X193428248Y-155693037D01*
X193451705Y-155774468D01*
X193470503Y-155861978D01*
X193463895Y-155924200D01*
X193447246Y-156003736D01*
X193447291Y-156054557D01*
X193429288Y-156165328D01*
X193364527Y-156290775D01*
X193264961Y-156407970D01*
X193177137Y-156490004D01*
X193197678Y-157231966D01*
X193218218Y-157973928D01*
X193370333Y-158138866D01*
X193459660Y-158245329D01*
X193500387Y-158321406D01*
X193501026Y-158373202D01*
X193479651Y-158453317D01*
X193455211Y-158559164D01*
X193451805Y-158575184D01*
X193416299Y-158674618D01*
X193364799Y-158748187D01*
X193355171Y-158755982D01*
X193305150Y-158808053D01*
X193234970Y-158902318D01*
X193158167Y-159020304D01*
X193142765Y-159045859D01*
X193056270Y-159206444D01*
X193009570Y-159334647D01*
X192995737Y-159437602D01*
X192983332Y-159585120D01*
X192956555Y-159696693D01*
X192919818Y-159763553D01*
X192877538Y-159776935D01*
X192842213Y-159742479D01*
X192836256Y-159694585D01*
X192837540Y-159592107D01*
X192845481Y-159449418D01*
X192859496Y-159280889D01*
X192861990Y-159255239D01*
X192880167Y-159053104D01*
X192888364Y-158904594D01*
X192886598Y-158794660D01*
X192874885Y-158708252D01*
X192862623Y-158659858D01*
X192764588Y-158447619D01*
X192609048Y-158268535D01*
X192513147Y-158195416D01*
X192379707Y-158107110D01*
X192247033Y-158253202D01*
X192156843Y-158374087D01*
X192079270Y-158514214D01*
X192053634Y-158577095D01*
X192001014Y-158694564D01*
X191935038Y-158794564D01*
X191900641Y-158830000D01*
X191861158Y-158865784D01*
X191833994Y-158906349D01*
X191815922Y-158965601D01*
X191803712Y-159057446D01*
X191794138Y-159195791D01*
X191787870Y-159315793D01*
X191778328Y-159490378D01*
X191768727Y-159607123D01*
X191756547Y-159677542D01*
X191739265Y-159713150D01*
X191714362Y-159725463D01*
X191697966Y-159726481D01*
X191664223Y-159720992D01*
X191643611Y-159695480D01*
X191632939Y-159636373D01*
X191629014Y-159530103D01*
X191628567Y-159431536D01*
X191624451Y-159266131D01*
X191610352Y-159153275D01*
X191583645Y-159076509D01*
X191567843Y-159050796D01*
X191512611Y-158915952D01*
X191508681Y-158752904D01*
X191551862Y-158575120D01*
X191637962Y-158396068D01*
X191762788Y-158229213D01*
X191849956Y-158144473D01*
X191939582Y-158063467D01*
X192003427Y-157998470D01*
X192027594Y-157963713D01*
X191998682Y-157934255D01*
X191926455Y-157894520D01*
X191897488Y-157881766D01*
X191800113Y-157839526D01*
X191668056Y-157780062D01*
X191529298Y-157715979D01*
X191524469Y-157713716D01*
X191270840Y-157595072D01*
X191073487Y-157503475D01*
X190926061Y-157436077D01*
X190822207Y-157390028D01*
X190755576Y-157362480D01*
X190719814Y-157350584D01*
X190712589Y-157349569D01*
X190667296Y-157336444D01*
X190579422Y-157302329D01*
X190486814Y-157262820D01*
X190367623Y-157216006D01*
X190261897Y-157184509D01*
X190206884Y-157176071D01*
X190122734Y-157158570D01*
X190021229Y-157115323D01*
X190000505Y-157103733D01*
X189869882Y-157051311D01*
X189780974Y-157052684D01*
X189672852Y-157049517D01*
X189650848Y-157036302D01*
X190399976Y-157036302D01*
X190430487Y-157068890D01*
X190474811Y-157081875D01*
X190557649Y-157106497D01*
X190679959Y-157148973D01*
X190818124Y-157200395D01*
X190948533Y-157251859D01*
X191047569Y-157294459D01*
X191076117Y-157308641D01*
X191143000Y-157341951D01*
X191254728Y-157394287D01*
X191395466Y-157458575D01*
X191549381Y-157527742D01*
X191700640Y-157594714D01*
X191833408Y-157652419D01*
X191931853Y-157693784D01*
X191975562Y-157710453D01*
X192055520Y-157748356D01*
X192125390Y-157794486D01*
X192180197Y-157865794D01*
X192179849Y-157956455D01*
X192122775Y-158071123D01*
X192007406Y-158214451D01*
X191970324Y-158254202D01*
X191886521Y-158353164D01*
X191809722Y-158462918D01*
X191747244Y-158569804D01*
X191706403Y-158660160D01*
X191694515Y-158720324D01*
X191711477Y-158737547D01*
X191764797Y-158707759D01*
X191826105Y-158630962D01*
X191881509Y-158526009D01*
X191897098Y-158485644D01*
X191946750Y-158385473D01*
X192025424Y-158271297D01*
X192119673Y-158158121D01*
X192216051Y-158060954D01*
X192301112Y-157994802D01*
X192355380Y-157974159D01*
X192423750Y-157991564D01*
X192525477Y-158036728D01*
X192616406Y-158086932D01*
X192783006Y-158215683D01*
X192922248Y-158377085D01*
X193019885Y-158551980D01*
X193057120Y-158679720D01*
X193073745Y-158762184D01*
X193089169Y-158781692D01*
X193104242Y-158753635D01*
X193111482Y-158668460D01*
X193097417Y-158601996D01*
X193055238Y-158514952D01*
X192990459Y-158407571D01*
X192917208Y-158300579D01*
X192849616Y-158214699D01*
X192804239Y-158171956D01*
X192762534Y-158123470D01*
X192763325Y-158070977D01*
X192805156Y-158043766D01*
X192810630Y-158043558D01*
X192892212Y-158060826D01*
X192973940Y-158118752D01*
X193066836Y-158226518D01*
X193121057Y-158302165D01*
X193189517Y-158396417D01*
X193242582Y-158459955D01*
X193268979Y-158479307D01*
X193269172Y-158479137D01*
X193260623Y-158444678D01*
X193219286Y-158380653D01*
X193211348Y-158370350D01*
X193160595Y-158290394D01*
X193137668Y-158223832D01*
X193137564Y-158221050D01*
X193132088Y-158196945D01*
X193113001Y-158169466D01*
X193075780Y-158136197D01*
X193015903Y-158094723D01*
X192928848Y-158042627D01*
X192810093Y-157977493D01*
X192655114Y-157896906D01*
X192459391Y-157798449D01*
X192218400Y-157679706D01*
X191927619Y-157538261D01*
X191582526Y-157371699D01*
X191235797Y-157205055D01*
X190986524Y-157092135D01*
X190776586Y-157010946D01*
X190610656Y-156962809D01*
X190493406Y-156949042D01*
X190429509Y-156970965D01*
X190425539Y-156976228D01*
X190399976Y-157036302D01*
X189650848Y-157036302D01*
X189588480Y-156998846D01*
X189548448Y-156913459D01*
X189547936Y-156907929D01*
X189519831Y-156827465D01*
X189483954Y-156778823D01*
X189430981Y-156692417D01*
X189438489Y-156612094D01*
X189504430Y-156554506D01*
X189511901Y-156551481D01*
X189586307Y-156507107D01*
X189599554Y-156458702D01*
X189559368Y-156410659D01*
X189473478Y-156367372D01*
X189349609Y-156333232D01*
X189195489Y-156312633D01*
X189084657Y-156308585D01*
X188963334Y-156307175D01*
X188871708Y-156298715D01*
X188790163Y-156276861D01*
X188699080Y-156235271D01*
X188578841Y-156167600D01*
X188494476Y-156117738D01*
X188361396Y-156039895D01*
X188250748Y-155977370D01*
X188175785Y-155937514D01*
X188150492Y-155926891D01*
X188113324Y-155909032D01*
X188032785Y-155861219D01*
X187923177Y-155792101D01*
X187865434Y-155754547D01*
X187745733Y-155677934D01*
X187650665Y-155625883D01*
X187559079Y-155591174D01*
X187449824Y-155566588D01*
X187301747Y-155544906D01*
X187221483Y-155534754D01*
X187052413Y-155512597D01*
X186935904Y-155492406D01*
X186855521Y-155468658D01*
X186794831Y-155435829D01*
X186737400Y-155388393D01*
X186710509Y-155362988D01*
X186642306Y-155302112D01*
X186573702Y-155255399D01*
X186490180Y-155217009D01*
X186377223Y-155181101D01*
X186220317Y-155141832D01*
X186084015Y-155110875D01*
X185868123Y-155073574D01*
X185682319Y-155070356D01*
X185498378Y-155103625D01*
X185288075Y-155175786D01*
X185278812Y-155179477D01*
X185140022Y-155226699D01*
X184960369Y-155276239D01*
X184767719Y-155320804D01*
X184656350Y-155342322D01*
X184469091Y-155376202D01*
X184277182Y-155412559D01*
X184108636Y-155446016D01*
X184029387Y-155462677D01*
X183866393Y-155494546D01*
X183676624Y-155526399D01*
X183508895Y-155550307D01*
X183300992Y-155566674D01*
X183155341Y-155554659D01*
X183070133Y-155512574D01*
X183043559Y-155438731D01*
X183067426Y-155354090D01*
X183286154Y-155354090D01*
X183315997Y-155371677D01*
X183318048Y-155371700D01*
X183331599Y-155358699D01*
X183452031Y-155358699D01*
X183498120Y-155364706D01*
X183508895Y-155364935D01*
X183568156Y-155361184D01*
X183573373Y-155350322D01*
X183570280Y-155348939D01*
X183501395Y-155342075D01*
X183466181Y-155347653D01*
X183452031Y-155358699D01*
X183331599Y-155358699D01*
X183344857Y-155345980D01*
X183344115Y-155332287D01*
X183674488Y-155332287D01*
X183682393Y-155333433D01*
X183735800Y-155326708D01*
X183826197Y-155307601D01*
X183855890Y-155300350D01*
X183974173Y-155273645D01*
X184117253Y-155245486D01*
X184185535Y-155233450D01*
X184329408Y-155209384D01*
X184496694Y-155181381D01*
X184601928Y-155163755D01*
X184720724Y-155138013D01*
X184884578Y-155094599D01*
X185073216Y-155039240D01*
X185266362Y-154977662D01*
X185295917Y-154967754D01*
X185749679Y-154829487D01*
X186173166Y-154733376D01*
X186587695Y-154675165D01*
X186857393Y-154655867D01*
X187060818Y-154645346D01*
X187201683Y-154634909D01*
X187286806Y-154622998D01*
X187323007Y-154608059D01*
X187317104Y-154588535D01*
X187275916Y-154562870D01*
X187272551Y-154561142D01*
X187210659Y-154508275D01*
X187192386Y-154455632D01*
X187181166Y-154411591D01*
X187125846Y-154413059D01*
X187122987Y-154413814D01*
X187038166Y-154432433D01*
X186996190Y-154438446D01*
X186988307Y-154447287D01*
X187037512Y-154462903D01*
X187048240Y-154465285D01*
X187123218Y-154496536D01*
X187152338Y-154539254D01*
X187140081Y-154561977D01*
X187096648Y-154579164D01*
X187012051Y-154592501D01*
X186876298Y-154603674D01*
X186718595Y-154612464D01*
X186568992Y-154620768D01*
X186431604Y-154631091D01*
X186298807Y-154645089D01*
X186162978Y-154664418D01*
X186016493Y-154690732D01*
X185851728Y-154725689D01*
X185661061Y-154770942D01*
X185436868Y-154828147D01*
X185171525Y-154898960D01*
X184857409Y-154985037D01*
X184486896Y-155088032D01*
X184341682Y-155128607D01*
X184101246Y-155196152D01*
X183921236Y-155247545D01*
X183795103Y-155284821D01*
X183716299Y-155310013D01*
X183678277Y-155325157D01*
X183674488Y-155332287D01*
X183344115Y-155332287D01*
X183344073Y-155331518D01*
X183367758Y-155285768D01*
X183449766Y-155234410D01*
X183579966Y-155183237D01*
X183630343Y-155167793D01*
X183751792Y-155132745D01*
X183625642Y-155151240D01*
X183527539Y-155153908D01*
X183475062Y-155130195D01*
X183474788Y-155129762D01*
X183439904Y-155125968D01*
X183381106Y-155183920D01*
X183366716Y-155202786D01*
X183302493Y-155299762D01*
X183286154Y-155354090D01*
X183067426Y-155354090D01*
X183073812Y-155331441D01*
X183144551Y-155210170D01*
X183209889Y-155111454D01*
X183838540Y-155111454D01*
X183855890Y-155128804D01*
X183873240Y-155111454D01*
X183855890Y-155094104D01*
X183838540Y-155111454D01*
X183209889Y-155111454D01*
X183210580Y-155110410D01*
X183231640Y-155070971D01*
X183954205Y-155070971D01*
X183958968Y-155091600D01*
X183977338Y-155094104D01*
X184005900Y-155081408D01*
X184000471Y-155070971D01*
X183959291Y-155066818D01*
X183954205Y-155070971D01*
X183231640Y-155070971D01*
X183240216Y-155054911D01*
X183238679Y-155045363D01*
X184046737Y-155045363D01*
X184073941Y-155052670D01*
X184107461Y-155045599D01*
X184158550Y-155030670D01*
X184265060Y-154999983D01*
X184415667Y-154956785D01*
X184599047Y-154904324D01*
X184803877Y-154845846D01*
X184827475Y-154839116D01*
X185034700Y-154780034D01*
X185222422Y-154726532D01*
X185379133Y-154681888D01*
X185493321Y-154649380D01*
X185553476Y-154632289D01*
X185556163Y-154631529D01*
X185567641Y-154623906D01*
X185520805Y-154625917D01*
X185469414Y-154631693D01*
X185375660Y-154649488D01*
X185234614Y-154683509D01*
X185065111Y-154728927D01*
X184885990Y-154780916D01*
X184879524Y-154782872D01*
X184694435Y-154838615D01*
X184512861Y-154892705D01*
X184355893Y-154938894D01*
X184246259Y-154970473D01*
X184140559Y-155003092D01*
X184068225Y-155030888D01*
X184046737Y-155045363D01*
X183238679Y-155045363D01*
X183236320Y-155030708D01*
X183201755Y-155024832D01*
X183185496Y-155024705D01*
X183122716Y-155002417D01*
X183103682Y-154990006D01*
X183508895Y-154990006D01*
X183513895Y-155018939D01*
X183580765Y-155020170D01*
X183707846Y-154993923D01*
X183893478Y-154940425D01*
X183909395Y-154935421D01*
X184059589Y-154885503D01*
X184147197Y-154851407D01*
X184171646Y-154834807D01*
X184132362Y-154837378D01*
X184028771Y-154860793D01*
X183925541Y-154888300D01*
X183794130Y-154921857D01*
X183680173Y-154945895D01*
X183607954Y-154955302D01*
X183607118Y-154955306D01*
X183536816Y-154969364D01*
X183508895Y-154990006D01*
X183103682Y-154990006D01*
X183036821Y-154946409D01*
X182947192Y-154872968D01*
X182873210Y-154798381D01*
X182844626Y-154754762D01*
X183093454Y-154754762D01*
X183105367Y-154778182D01*
X183136797Y-154801103D01*
X183219660Y-154835380D01*
X183337332Y-154859142D01*
X183455429Y-154867254D01*
X183526245Y-154859269D01*
X183588665Y-154842222D01*
X183689691Y-154814979D01*
X183734615Y-154802935D01*
X184246127Y-154802935D01*
X184285230Y-154801350D01*
X184324333Y-154794828D01*
X184428379Y-154770932D01*
X184512795Y-154743463D01*
X184515179Y-154742437D01*
X184541336Y-154725983D01*
X184502233Y-154727568D01*
X184463130Y-154734090D01*
X184359084Y-154757987D01*
X184274668Y-154785455D01*
X184272283Y-154786482D01*
X184246127Y-154802935D01*
X183734615Y-154802935D01*
X183751792Y-154798330D01*
X183923158Y-154749413D01*
X184027590Y-154713400D01*
X184044217Y-154704114D01*
X184616978Y-154704114D01*
X184651086Y-154709671D01*
X184696091Y-154703291D01*
X184696629Y-154691446D01*
X184650187Y-154683162D01*
X184630121Y-154688706D01*
X184616978Y-154704114D01*
X184044217Y-154704114D01*
X184066583Y-154691623D01*
X184041628Y-154685415D01*
X183954220Y-154696106D01*
X183805852Y-154725030D01*
X183697132Y-154749585D01*
X183497245Y-154790137D01*
X183344879Y-154807554D01*
X183245426Y-154801728D01*
X183204278Y-154772554D01*
X183204089Y-154759343D01*
X183183809Y-154733886D01*
X183141950Y-154737736D01*
X183093454Y-154754762D01*
X182844626Y-154754762D01*
X182834255Y-154738936D01*
X182832256Y-154727856D01*
X182858773Y-154674387D01*
X182881038Y-154654578D01*
X184127702Y-154654578D01*
X184132465Y-154675206D01*
X184150835Y-154677711D01*
X184179397Y-154665015D01*
X184173968Y-154654578D01*
X184752292Y-154654578D01*
X184757056Y-154675206D01*
X184775425Y-154677711D01*
X184803987Y-154665015D01*
X184798558Y-154654578D01*
X184757378Y-154650425D01*
X184752292Y-154654578D01*
X184173968Y-154654578D01*
X184132788Y-154650425D01*
X184127702Y-154654578D01*
X182881038Y-154654578D01*
X182911874Y-154627143D01*
X182915367Y-154625661D01*
X184879524Y-154625661D01*
X184896873Y-154643011D01*
X184914223Y-154625661D01*
X184896873Y-154608312D01*
X184879524Y-154625661D01*
X182915367Y-154625661D01*
X182982773Y-154597064D01*
X183003463Y-154590962D01*
X185018322Y-154590962D01*
X185035671Y-154608312D01*
X185053021Y-154590962D01*
X185047238Y-154585179D01*
X185654478Y-154585179D01*
X185659241Y-154605808D01*
X185677611Y-154608312D01*
X185706173Y-154595616D01*
X185700744Y-154585179D01*
X185659564Y-154581026D01*
X185654478Y-154585179D01*
X185047238Y-154585179D01*
X185035671Y-154573612D01*
X185018322Y-154590962D01*
X183003463Y-154590962D01*
X183107144Y-154560383D01*
X183147611Y-154550479D01*
X185827975Y-154550479D01*
X185832739Y-154571108D01*
X185851108Y-154573612D01*
X185879670Y-154560916D01*
X185874241Y-154550479D01*
X185833061Y-154546326D01*
X185827975Y-154550479D01*
X183147611Y-154550479D01*
X183228766Y-154530617D01*
X185970257Y-154530617D01*
X186004364Y-154536173D01*
X186049370Y-154529794D01*
X186049907Y-154517949D01*
X186003466Y-154509665D01*
X185983400Y-154515209D01*
X185970257Y-154530617D01*
X183228766Y-154530617D01*
X183269797Y-154520575D01*
X183425229Y-154487556D01*
X186133795Y-154487556D01*
X186156336Y-154493338D01*
X186231281Y-154492993D01*
X186342011Y-154487593D01*
X186471906Y-154478207D01*
X186604347Y-154465907D01*
X186722713Y-154451763D01*
X186749139Y-154447914D01*
X186819157Y-154428837D01*
X186839108Y-154404892D01*
X186835888Y-154400490D01*
X186792628Y-154394389D01*
X186699661Y-154398096D01*
X186575612Y-154409301D01*
X186439105Y-154425694D01*
X186308766Y-154444965D01*
X186203220Y-154464804D01*
X186141092Y-154482902D01*
X186133795Y-154487556D01*
X183425229Y-154487556D01*
X183455540Y-154481117D01*
X183612881Y-154452164D01*
X184428431Y-154452164D01*
X184445781Y-154469514D01*
X184463130Y-154452164D01*
X184445781Y-154434814D01*
X184428431Y-154452164D01*
X183612881Y-154452164D01*
X183649182Y-154445484D01*
X183821190Y-154419077D01*
X183862159Y-154411681D01*
X184544096Y-154411681D01*
X184548859Y-154432310D01*
X184567229Y-154434814D01*
X184595790Y-154422118D01*
X184590362Y-154411681D01*
X184549182Y-154407529D01*
X184544096Y-154411681D01*
X183862159Y-154411681D01*
X183947216Y-154396326D01*
X184031341Y-154376982D01*
X184682894Y-154376982D01*
X184687657Y-154397611D01*
X184706026Y-154400115D01*
X184734588Y-154387419D01*
X184729159Y-154376982D01*
X184687979Y-154372829D01*
X184682894Y-154376982D01*
X184031341Y-154376982D01*
X184103068Y-154360489D01*
X184115574Y-154357120D01*
X184825175Y-154357120D01*
X184859282Y-154362676D01*
X184904288Y-154356296D01*
X184904825Y-154344451D01*
X184858384Y-154336168D01*
X184838318Y-154341712D01*
X184825175Y-154357120D01*
X184115574Y-154357120D01*
X184237584Y-154324251D01*
X184244130Y-154322420D01*
X184963972Y-154322420D01*
X184998080Y-154327977D01*
X185043086Y-154321597D01*
X185043623Y-154309752D01*
X184997182Y-154301468D01*
X184977116Y-154307012D01*
X184963972Y-154322420D01*
X184244130Y-154322420D01*
X184345163Y-154294160D01*
X184424591Y-154272884D01*
X185099287Y-154272884D01*
X185104050Y-154293512D01*
X185122420Y-154296017D01*
X185150982Y-154283321D01*
X185145553Y-154272884D01*
X185104373Y-154268731D01*
X185099287Y-154272884D01*
X184424591Y-154272884D01*
X184476207Y-154259058D01*
X186865900Y-154259058D01*
X186870647Y-154261317D01*
X186902313Y-154236889D01*
X186909442Y-154226618D01*
X186918284Y-154194178D01*
X186913538Y-154191918D01*
X186881871Y-154216346D01*
X186874742Y-154226618D01*
X186865900Y-154259058D01*
X184476207Y-154259058D01*
X184498745Y-154253021D01*
X185206869Y-154253021D01*
X185240976Y-154258578D01*
X185285982Y-154252198D01*
X185286519Y-154240353D01*
X185240078Y-154232070D01*
X185220012Y-154237614D01*
X185206869Y-154253021D01*
X184498745Y-154253021D01*
X184505838Y-154251121D01*
X184638764Y-154216302D01*
X185352282Y-154216302D01*
X185400016Y-154221139D01*
X185449276Y-154215686D01*
X185443390Y-154203637D01*
X185372348Y-154199054D01*
X185356641Y-154203637D01*
X185352282Y-154216302D01*
X184638764Y-154216302D01*
X184705340Y-154198863D01*
X184764476Y-154183622D01*
X185519164Y-154183622D01*
X185553271Y-154189179D01*
X185598277Y-154182799D01*
X185598815Y-154170954D01*
X185552373Y-154162671D01*
X185532307Y-154168215D01*
X185519164Y-154183622D01*
X184764476Y-154183622D01*
X184897207Y-154149413D01*
X185689384Y-154149413D01*
X185751643Y-154141180D01*
X185877824Y-154113410D01*
X186067262Y-154066110D01*
X186110840Y-154054788D01*
X186273502Y-154011763D01*
X186308180Y-154001732D01*
X186787994Y-154001732D01*
X186807723Y-154037995D01*
X186870957Y-154033620D01*
X186942681Y-154031103D01*
X186977103Y-154050309D01*
X187016382Y-154084201D01*
X187072793Y-154068891D01*
X187139819Y-154019575D01*
X187221737Y-153951331D01*
X187004865Y-153950177D01*
X186881677Y-153953098D01*
X186814244Y-153965634D01*
X186789224Y-153990956D01*
X186787994Y-154001732D01*
X186308180Y-154001732D01*
X186376617Y-153981936D01*
X186427891Y-153961390D01*
X186435033Y-153946209D01*
X186405750Y-153932474D01*
X186371086Y-153922536D01*
X186258313Y-153907648D01*
X186205091Y-153925078D01*
X186152608Y-153952921D01*
X186053558Y-153995349D01*
X185926984Y-154044328D01*
X185892796Y-154056827D01*
X185759295Y-154107243D01*
X185691713Y-154138103D01*
X185689384Y-154149413D01*
X184897207Y-154149413D01*
X184929400Y-154141116D01*
X185163749Y-154081608D01*
X185223304Y-154066634D01*
X185439965Y-154011787D01*
X185633096Y-153961961D01*
X185792834Y-153919779D01*
X185860032Y-153901366D01*
X188886740Y-153901366D01*
X188887311Y-153901488D01*
X188978525Y-153914921D01*
X189111411Y-153927647D01*
X189277153Y-153939443D01*
X189466937Y-153950085D01*
X189671946Y-153959348D01*
X189883366Y-153967009D01*
X190092382Y-153972843D01*
X190290178Y-153976626D01*
X190467939Y-153978135D01*
X190616850Y-153977145D01*
X190728097Y-153973432D01*
X190792863Y-153966771D01*
X190802333Y-153956940D01*
X190782920Y-153950950D01*
X191003977Y-153950950D01*
X191298923Y-153930424D01*
X191455679Y-153916056D01*
X191604052Y-153896569D01*
X191716430Y-153875709D01*
X191732666Y-153871562D01*
X191842397Y-153835609D01*
X191901416Y-153804377D01*
X191904129Y-153782410D01*
X191852379Y-153774295D01*
X191756859Y-153755789D01*
X191680617Y-153723476D01*
X191571081Y-153680390D01*
X191474101Y-153675764D01*
X191408558Y-153708719D01*
X191394021Y-153736795D01*
X191350063Y-153790411D01*
X191252819Y-153849098D01*
X191190452Y-153876557D01*
X191003977Y-153950950D01*
X190782920Y-153950950D01*
X190778431Y-153949565D01*
X190711510Y-153941584D01*
X190585878Y-153933171D01*
X190412216Y-153924784D01*
X190201207Y-153916882D01*
X189963532Y-153909923D01*
X189737447Y-153904879D01*
X189497425Y-153900766D01*
X189285852Y-153898020D01*
X189110862Y-153896675D01*
X188980590Y-153896762D01*
X188903171Y-153898315D01*
X188886740Y-153901366D01*
X185860032Y-153901366D01*
X185909314Y-153887862D01*
X185972672Y-153868833D01*
X185977859Y-153866622D01*
X188587550Y-153866622D01*
X188633639Y-153872630D01*
X188644414Y-153872859D01*
X188703675Y-153869108D01*
X188708892Y-153858245D01*
X188705799Y-153856863D01*
X188636914Y-153849998D01*
X188601701Y-153855577D01*
X188587550Y-153866622D01*
X185977859Y-153866622D01*
X185981197Y-153865199D01*
X185973629Y-153844540D01*
X185908578Y-153832400D01*
X185797417Y-153828638D01*
X185651522Y-153833115D01*
X185482264Y-153845693D01*
X185301019Y-153866231D01*
X185243868Y-153874238D01*
X185022704Y-153903617D01*
X184859810Y-153916767D01*
X184745803Y-153912924D01*
X184671300Y-153891320D01*
X184626916Y-153851192D01*
X184612628Y-153822758D01*
X184621819Y-153760090D01*
X184626289Y-153753975D01*
X184808332Y-153753975D01*
X184833843Y-153758508D01*
X184912167Y-153752745D01*
X184914961Y-153752392D01*
X187215954Y-153752392D01*
X187220717Y-153773021D01*
X187239087Y-153775525D01*
X187267648Y-153762829D01*
X187262220Y-153752392D01*
X187221039Y-153748239D01*
X187215954Y-153752392D01*
X184914961Y-153752392D01*
X185038053Y-153736838D01*
X185206252Y-153710937D01*
X185244431Y-153704583D01*
X185352935Y-153688776D01*
X186198103Y-153688776D01*
X186215453Y-153706126D01*
X186232802Y-153688776D01*
X186215453Y-153671426D01*
X186198103Y-153688776D01*
X185352935Y-153688776D01*
X185494024Y-153668222D01*
X185697553Y-153652223D01*
X185874855Y-153655191D01*
X185908196Y-153657872D01*
X186037099Y-153668360D01*
X186110559Y-153668875D01*
X186140825Y-153657305D01*
X188474843Y-153657305D01*
X188475910Y-153658481D01*
X188532391Y-153668205D01*
X188648383Y-153678011D01*
X188814002Y-153687670D01*
X189019360Y-153696951D01*
X189254573Y-153705625D01*
X189509754Y-153713462D01*
X189775016Y-153720233D01*
X190040475Y-153725707D01*
X190296243Y-153729654D01*
X190532436Y-153731845D01*
X190739166Y-153732050D01*
X190906547Y-153730039D01*
X191024695Y-153725582D01*
X191081661Y-153719057D01*
X191135478Y-153688645D01*
X191130008Y-153661111D01*
X192361572Y-153661111D01*
X192409305Y-153665948D01*
X192458566Y-153660495D01*
X192452679Y-153648446D01*
X192381638Y-153643863D01*
X192365931Y-153648446D01*
X192361572Y-153661111D01*
X191130008Y-153661111D01*
X191128869Y-153655378D01*
X191067655Y-153637080D01*
X191054779Y-153636727D01*
X191029307Y-153626411D01*
X192535069Y-153626411D01*
X192582802Y-153631248D01*
X192632063Y-153625795D01*
X192626177Y-153613746D01*
X192555135Y-153609163D01*
X192539428Y-153613746D01*
X192535069Y-153626411D01*
X191029307Y-153626411D01*
X190988048Y-153609701D01*
X190933818Y-153553688D01*
X190849009Y-153478756D01*
X190822748Y-153471905D01*
X191078886Y-153471905D01*
X191119159Y-153488802D01*
X191195503Y-153496706D01*
X191280558Y-153495704D01*
X191346966Y-153485883D01*
X191368322Y-153470986D01*
X191337343Y-153454951D01*
X191259149Y-153445821D01*
X191215636Y-153444961D01*
X191127735Y-153450679D01*
X191081126Y-153464089D01*
X191078886Y-153471905D01*
X190822748Y-153471905D01*
X190739018Y-153450061D01*
X190630332Y-153471523D01*
X190585012Y-153502054D01*
X190508593Y-153541691D01*
X190372467Y-153574318D01*
X190174805Y-153600107D01*
X189913775Y-153619230D01*
X189587548Y-153631859D01*
X189194295Y-153638164D01*
X189130207Y-153638571D01*
X188922399Y-153640433D01*
X188743348Y-153643530D01*
X188602665Y-153647569D01*
X188509960Y-153652258D01*
X188474843Y-153657305D01*
X186140825Y-153657305D01*
X186142141Y-153656802D01*
X186145410Y-153629526D01*
X186141596Y-153612879D01*
X186150544Y-153536494D01*
X186176674Y-153501315D01*
X186246960Y-153470484D01*
X186314787Y-153478203D01*
X186352665Y-153519552D01*
X186354251Y-153533104D01*
X186386357Y-153586009D01*
X186482958Y-153616159D01*
X186644472Y-153623632D01*
X186800677Y-153615056D01*
X187073607Y-153592367D01*
X186939475Y-153545671D01*
X186854193Y-153516436D01*
X186803242Y-153499837D01*
X186797889Y-153498452D01*
X186777965Y-153471716D01*
X186753294Y-153428530D01*
X186736143Y-153336680D01*
X186775200Y-153260643D01*
X186857492Y-153221776D01*
X186879725Y-153220334D01*
X186943180Y-153229584D01*
X186954898Y-153270785D01*
X186948197Y-153303276D01*
X186943075Y-153361799D01*
X186978248Y-153392154D01*
X187041580Y-153407642D01*
X187116133Y-153414812D01*
X187250428Y-153420709D01*
X187435453Y-153425368D01*
X187662195Y-153428823D01*
X187921640Y-153431110D01*
X188204775Y-153432264D01*
X188502589Y-153432319D01*
X188806067Y-153431311D01*
X189106197Y-153429275D01*
X189393965Y-153426245D01*
X189660360Y-153422257D01*
X189896367Y-153417346D01*
X190092974Y-153411547D01*
X190241168Y-153404894D01*
X190331936Y-153397423D01*
X190347675Y-153394801D01*
X190389627Y-153385535D01*
X191695666Y-153385535D01*
X191729774Y-153391091D01*
X191774780Y-153384712D01*
X191775317Y-153372867D01*
X191728876Y-153364583D01*
X191708810Y-153370127D01*
X191695666Y-153385535D01*
X190389627Y-153385535D01*
X190524161Y-153355820D01*
X190450367Y-153202708D01*
X190450347Y-153202676D01*
X190607414Y-153202676D01*
X190641965Y-153230240D01*
X190684229Y-153230302D01*
X190685405Y-153229574D01*
X190740519Y-153208053D01*
X190838617Y-153181026D01*
X190917229Y-153163146D01*
X191108076Y-153123309D01*
X190865179Y-153141866D01*
X190743368Y-153152408D01*
X190652299Y-153162616D01*
X190610656Y-153170376D01*
X190610134Y-153170720D01*
X190607414Y-153202676D01*
X190450347Y-153202676D01*
X190392026Y-153107939D01*
X191140475Y-153107939D01*
X191174583Y-153113496D01*
X191219589Y-153107116D01*
X191220126Y-153095271D01*
X191173685Y-153086988D01*
X191153619Y-153092532D01*
X191140475Y-153107939D01*
X190392026Y-153107939D01*
X190379572Y-153087709D01*
X190355915Y-153058403D01*
X191275790Y-153058403D01*
X191280553Y-153079032D01*
X191298923Y-153081536D01*
X191327484Y-153068840D01*
X191322056Y-153058403D01*
X191280875Y-153054250D01*
X191275790Y-153058403D01*
X190355915Y-153058403D01*
X190312942Y-153005169D01*
X190535535Y-153005169D01*
X190565704Y-153019890D01*
X190639997Y-153020433D01*
X190656983Y-153018723D01*
X190737186Y-153005962D01*
X190777356Y-152992917D01*
X190778431Y-152990991D01*
X190747879Y-152982026D01*
X190672769Y-152977552D01*
X190656983Y-152977437D01*
X190576686Y-152984407D01*
X190536575Y-153001545D01*
X190535535Y-153005169D01*
X190312942Y-153005169D01*
X190282571Y-152967546D01*
X190230508Y-152914748D01*
X190142341Y-152819664D01*
X190091697Y-152736281D01*
X190084442Y-152703951D01*
X190065530Y-152617600D01*
X190030140Y-152545126D01*
X189994357Y-152454945D01*
X189984720Y-152351042D01*
X189999384Y-152256866D01*
X190036505Y-152195868D01*
X190058417Y-152185769D01*
X190100700Y-152192381D01*
X190117512Y-152244437D01*
X190119141Y-152290917D01*
X190135701Y-152402812D01*
X190176034Y-152518833D01*
X190180670Y-152528258D01*
X190242200Y-152648944D01*
X190531287Y-152601676D01*
X190690893Y-152579134D01*
X190793554Y-152573936D01*
X190849445Y-152585802D01*
X190858639Y-152592673D01*
X190878919Y-152645023D01*
X190836600Y-152692056D01*
X190738459Y-152730262D01*
X190591274Y-152756130D01*
X190532975Y-152761370D01*
X190405415Y-152772466D01*
X190337680Y-152784734D01*
X190320217Y-152801127D01*
X190338938Y-152821377D01*
X190405429Y-152837618D01*
X190524335Y-152835360D01*
X190681666Y-152816271D01*
X190863434Y-152782016D01*
X191044762Y-152737289D01*
X191156053Y-152719041D01*
X191209642Y-152735479D01*
X191219353Y-152783460D01*
X191170399Y-152838228D01*
X191072059Y-152892430D01*
X190963379Y-152930640D01*
X190795781Y-152978623D01*
X190951928Y-152959131D01*
X191071730Y-152937720D01*
X191219745Y-152902547D01*
X191328602Y-152871789D01*
X191505099Y-152823363D01*
X191620352Y-152805654D01*
X191675297Y-152818561D01*
X191680617Y-152833262D01*
X191651370Y-152887195D01*
X191578985Y-152944870D01*
X191486491Y-152989106D01*
X191462129Y-152996251D01*
X191398067Y-153017901D01*
X191380478Y-153035860D01*
X191418262Y-153033306D01*
X191506177Y-153013395D01*
X191628265Y-152979949D01*
X191687505Y-152962294D01*
X191885561Y-152906522D01*
X192022944Y-152878888D01*
X192102297Y-152879115D01*
X192126264Y-152906929D01*
X192124368Y-152916713D01*
X192077191Y-152968743D01*
X191968751Y-153029279D01*
X191806225Y-153095328D01*
X191596789Y-153163894D01*
X191403021Y-153217835D01*
X191258893Y-153257288D01*
X191153545Y-153290076D01*
X191096193Y-153313001D01*
X191096056Y-153322868D01*
X191099686Y-153323016D01*
X191181206Y-153314764D01*
X191313660Y-153290935D01*
X191481300Y-153255172D01*
X191668378Y-153211119D01*
X191859144Y-153162419D01*
X192037848Y-153112716D01*
X192131710Y-153084251D01*
X192280386Y-153039549D01*
X192374764Y-153017862D01*
X192425543Y-153017880D01*
X192443421Y-153038294D01*
X192444005Y-153046036D01*
X192410916Y-153096763D01*
X192315286Y-153158312D01*
X192162567Y-153227616D01*
X192038374Y-153274273D01*
X191922774Y-153318578D01*
X191867688Y-153347370D01*
X191866153Y-153361346D01*
X191911203Y-153361200D01*
X191995876Y-153347630D01*
X192113205Y-153321331D01*
X192256226Y-153282998D01*
X192404571Y-153237683D01*
X192560213Y-153188937D01*
X192695300Y-153149525D01*
X192793999Y-153123885D01*
X192837672Y-153116235D01*
X192891636Y-153132007D01*
X192892543Y-153171895D01*
X192847112Y-153224757D01*
X192762061Y-153279450D01*
X192730275Y-153294353D01*
X192606713Y-153340877D01*
X192446362Y-153391410D01*
X192268693Y-153440908D01*
X192093179Y-153484329D01*
X191939292Y-153516627D01*
X191826505Y-153532759D01*
X191806290Y-153533684D01*
X191737395Y-153537307D01*
X191730256Y-153550714D01*
X191762995Y-153572517D01*
X191843096Y-153592937D01*
X191920769Y-153578895D01*
X192698467Y-153578895D01*
X192703230Y-153599523D01*
X192721600Y-153602028D01*
X192750162Y-153589332D01*
X192744733Y-153578895D01*
X192703553Y-153574742D01*
X192698467Y-153578895D01*
X191920769Y-153578895D01*
X191953842Y-153572916D01*
X192042224Y-153550167D01*
X192068517Y-153544195D01*
X192802566Y-153544195D01*
X192807329Y-153564824D01*
X192825699Y-153567328D01*
X192854260Y-153554632D01*
X192848832Y-153544195D01*
X192807651Y-153540042D01*
X192802566Y-153544195D01*
X192068517Y-153544195D01*
X192177024Y-153519550D01*
X192197259Y-153515279D01*
X192895098Y-153515279D01*
X192912447Y-153532629D01*
X192929797Y-153515279D01*
X192912447Y-153497929D01*
X192895098Y-153515279D01*
X192197259Y-153515279D01*
X192336433Y-153485904D01*
X192363106Y-153480579D01*
X192964496Y-153480579D01*
X192981846Y-153497929D01*
X192999196Y-153480579D01*
X192981846Y-153463230D01*
X192964496Y-153480579D01*
X192363106Y-153480579D01*
X192432426Y-153466740D01*
X192524301Y-153445880D01*
X193033895Y-153445880D01*
X193051245Y-153463230D01*
X193068595Y-153445880D01*
X193051245Y-153428530D01*
X193033895Y-153445880D01*
X192524301Y-153445880D01*
X192604210Y-153427737D01*
X192771517Y-153380354D01*
X192908877Y-153332188D01*
X192959714Y-153309506D01*
X193068656Y-153264158D01*
X193158874Y-153243879D01*
X193216615Y-153249436D01*
X193228126Y-153281596D01*
X193221556Y-153294888D01*
X193223585Y-153345514D01*
X193241972Y-153376336D01*
X193268744Y-153453000D01*
X193229031Y-153533942D01*
X193125287Y-153615485D01*
X193058111Y-153651521D01*
X192833177Y-153742330D01*
X192596146Y-153806629D01*
X192372690Y-153838437D01*
X192252555Y-153839238D01*
X192154167Y-153837400D01*
X192094757Y-153844981D01*
X192085881Y-153855119D01*
X192082272Y-153906159D01*
X192018419Y-153960675D01*
X191902804Y-154012516D01*
X191842533Y-154031534D01*
X191605966Y-154083684D01*
X191313212Y-154123738D01*
X190976411Y-154151742D01*
X190607707Y-154167741D01*
X190219239Y-154171780D01*
X189823150Y-154163904D01*
X189431580Y-154144158D01*
X189056672Y-154112587D01*
X188710566Y-154069236D01*
X188427492Y-154018876D01*
X188240741Y-153985347D01*
X188022805Y-153954957D01*
X187811869Y-153932809D01*
X187747936Y-153928026D01*
X187389401Y-153904846D01*
X187310319Y-154032804D01*
X187239779Y-154127941D01*
X187163877Y-154203632D01*
X187147330Y-154215740D01*
X187086384Y-154263996D01*
X187085893Y-154285407D01*
X187141220Y-154277194D01*
X187209311Y-154252885D01*
X187320341Y-154223040D01*
X187402979Y-154227654D01*
X187446601Y-154260085D01*
X187440586Y-154313690D01*
X187392681Y-154367534D01*
X187361736Y-154403206D01*
X187381923Y-154433328D01*
X187430118Y-154461074D01*
X187490035Y-154508260D01*
X187504962Y-154554105D01*
X187504927Y-154554197D01*
X187524490Y-154595645D01*
X187600715Y-154656641D01*
X187699619Y-154716477D01*
X187852402Y-154815717D01*
X187972460Y-154933564D01*
X188053329Y-155042055D01*
X188143104Y-155163340D01*
X188225161Y-155242717D01*
X188322902Y-155300307D01*
X188385066Y-155327259D01*
X188517724Y-155371101D01*
X188650532Y-155399494D01*
X188715856Y-155405333D01*
X188837355Y-155420842D01*
X188926748Y-155459869D01*
X188969332Y-155514176D01*
X188967835Y-155546521D01*
X188925201Y-155574041D01*
X188833083Y-155585374D01*
X188709309Y-155581227D01*
X188571708Y-155562306D01*
X188438105Y-155529318D01*
X188424844Y-155525003D01*
X188253946Y-155459737D01*
X188129497Y-155387587D01*
X188029243Y-155291852D01*
X187930932Y-155155831D01*
X187929038Y-155152902D01*
X187830593Y-155013916D01*
X187735669Y-154919194D01*
X187627396Y-154860549D01*
X187488907Y-154829795D01*
X187303330Y-154818745D01*
X187239087Y-154818061D01*
X187056590Y-154821686D01*
X186856588Y-154832808D01*
X186656176Y-154849719D01*
X186472448Y-154870709D01*
X186322497Y-154894073D01*
X186223417Y-154918101D01*
X186217996Y-154920078D01*
X186182724Y-154938986D01*
X186201291Y-154954051D01*
X186281136Y-154971013D01*
X186284852Y-154971663D01*
X186466341Y-155010902D01*
X186604143Y-155062256D01*
X186723962Y-155136957D01*
X186793744Y-155194006D01*
X186868343Y-155255392D01*
X186935875Y-155296652D01*
X187015415Y-155324474D01*
X187126036Y-155345547D01*
X187285353Y-155366382D01*
X187492801Y-155397036D01*
X187652152Y-155436300D01*
X187784701Y-155491605D01*
X187911739Y-155570387D01*
X187950425Y-155598564D01*
X188037815Y-155656014D01*
X188158772Y-155726030D01*
X188262720Y-155780957D01*
X188411317Y-155859132D01*
X188574998Y-155950420D01*
X188677073Y-156010329D01*
X188789316Y-156074618D01*
X188879620Y-156112022D01*
X188975550Y-156129722D01*
X189104672Y-156134902D01*
X189155913Y-156135088D01*
X189367320Y-156146243D01*
X189514000Y-156179807D01*
X189539649Y-156191196D01*
X189689731Y-156285723D01*
X189778645Y-156384414D01*
X189804176Y-156482664D01*
X189764108Y-156575864D01*
X189737770Y-156603238D01*
X189691927Y-156652001D01*
X189697767Y-156684334D01*
X189726058Y-156707697D01*
X189764387Y-156764076D01*
X189763389Y-156801849D01*
X189768168Y-156836869D01*
X189820353Y-156866218D01*
X189930657Y-156895971D01*
X190037746Y-156924632D01*
X190114430Y-156953876D01*
X190137947Y-156970231D01*
X190161359Y-156996470D01*
X190191340Y-156989992D01*
X190241718Y-156943063D01*
X190297293Y-156881126D01*
X190370882Y-156808382D01*
X190433524Y-156765011D01*
X190452381Y-156759678D01*
X190489986Y-156728717D01*
X190498463Y-156675636D01*
X190674333Y-156675636D01*
X190684652Y-156732815D01*
X190725814Y-156777278D01*
X190813120Y-156823057D01*
X190854409Y-156840737D01*
X190963841Y-156887533D01*
X191113278Y-156952982D01*
X191279601Y-157026909D01*
X191383576Y-157073673D01*
X191732666Y-157231521D01*
X191756118Y-157091023D01*
X191756595Y-157086911D01*
X191940261Y-157086911D01*
X191950205Y-157203987D01*
X191983816Y-157292680D01*
X192048573Y-157365453D01*
X192151956Y-157434772D01*
X192301442Y-157513101D01*
X192496054Y-157608732D01*
X192669377Y-157693937D01*
X192819910Y-157767462D01*
X192937114Y-157824196D01*
X193010451Y-157859033D01*
X193030279Y-157867709D01*
X193033075Y-157835181D01*
X193033923Y-157742315D01*
X193032923Y-157598140D01*
X193030175Y-157411687D01*
X193025781Y-157191987D01*
X193020134Y-156959200D01*
X192996256Y-156048339D01*
X192847649Y-155898718D01*
X192779341Y-155840142D01*
X193063096Y-155840142D01*
X193143919Y-155965541D01*
X193194995Y-156033993D01*
X193230356Y-156061588D01*
X193237557Y-156057218D01*
X193223429Y-156013425D01*
X193172271Y-155947688D01*
X193156734Y-155931820D01*
X193063096Y-155840142D01*
X192779341Y-155840142D01*
X192725465Y-155793942D01*
X192615864Y-155748156D01*
X192503612Y-155760784D01*
X192373472Y-155831248D01*
X192309340Y-155878316D01*
X192200120Y-155961840D01*
X192098956Y-156037663D01*
X192043449Y-156078112D01*
X191978069Y-156143973D01*
X191970945Y-156215669D01*
X191971703Y-156218814D01*
X191976826Y-156282228D01*
X191976559Y-156398184D01*
X191971243Y-156550065D01*
X191961463Y-156717752D01*
X191946507Y-156928987D01*
X191940261Y-157086911D01*
X191756595Y-157086911D01*
X191769026Y-156979748D01*
X191778569Y-156834530D01*
X191782143Y-156716304D01*
X191778846Y-156596901D01*
X191767573Y-156513192D01*
X191750815Y-156482082D01*
X191702241Y-156451142D01*
X191652175Y-156371253D01*
X191611156Y-156261819D01*
X191596654Y-156198282D01*
X191589391Y-156110307D01*
X191598102Y-156083039D01*
X191784715Y-156083039D01*
X191802065Y-156100388D01*
X191819414Y-156083039D01*
X191802065Y-156065689D01*
X191784715Y-156083039D01*
X191598102Y-156083039D01*
X191611946Y-156039702D01*
X191644637Y-155996290D01*
X191871763Y-155996290D01*
X191905667Y-155978530D01*
X191978172Y-155932921D01*
X192038201Y-155893122D01*
X192135572Y-155822435D01*
X192213645Y-155757072D01*
X192239462Y-155730477D01*
X192269125Y-155688147D01*
X192247483Y-155686639D01*
X192224295Y-155694848D01*
X192137684Y-155715678D01*
X192100336Y-155718694D01*
X192046795Y-155745836D01*
X191980096Y-155814626D01*
X191949065Y-155857492D01*
X191898958Y-155937880D01*
X191872587Y-155987985D01*
X191871763Y-155996290D01*
X191644637Y-155996290D01*
X191674765Y-155956282D01*
X191684126Y-155945546D01*
X191745095Y-155869992D01*
X191777432Y-155817600D01*
X191778707Y-155805218D01*
X191731182Y-155801572D01*
X191638293Y-155826660D01*
X191515062Y-155875014D01*
X191376511Y-155941167D01*
X191316272Y-155973551D01*
X191189854Y-156057938D01*
X191056109Y-156170124D01*
X190926630Y-156297430D01*
X190813008Y-156427177D01*
X190726838Y-156546686D01*
X190679713Y-156643277D01*
X190674333Y-156675636D01*
X190498463Y-156675636D01*
X190500835Y-156660786D01*
X190527475Y-156558314D01*
X190600340Y-156427982D01*
X190708850Y-156281796D01*
X190842425Y-156131762D01*
X190990484Y-155989886D01*
X191142446Y-155868174D01*
X191270299Y-155787654D01*
X191416463Y-155722378D01*
X191613699Y-155652845D01*
X191844435Y-155584982D01*
X191890687Y-155573057D01*
X192611466Y-155573057D01*
X192709907Y-155595310D01*
X192798555Y-155631833D01*
X192900192Y-155695980D01*
X192929797Y-155719245D01*
X193018322Y-155791158D01*
X193056540Y-155815671D01*
X193045349Y-155792223D01*
X192985646Y-155720258D01*
X192965411Y-155697085D01*
X192898526Y-155609999D01*
X192881847Y-155554741D01*
X192893284Y-155533131D01*
X192943965Y-155514867D01*
X193008737Y-155542966D01*
X193060597Y-155573085D01*
X193061815Y-155563047D01*
X193039583Y-155534942D01*
X193010710Y-155475443D01*
X193014124Y-155445016D01*
X193019597Y-155402386D01*
X192979178Y-155387897D01*
X192911356Y-155403788D01*
X192867547Y-155427281D01*
X192772041Y-155486303D01*
X192692558Y-155530951D01*
X192611466Y-155573057D01*
X191890687Y-155573057D01*
X191957440Y-155555846D01*
X192144441Y-155506640D01*
X192321318Y-155454531D01*
X192469861Y-155405247D01*
X192571862Y-155364518D01*
X192582802Y-155359097D01*
X192671266Y-155313206D01*
X192804971Y-155243910D01*
X192967525Y-155159702D01*
X193142536Y-155069074D01*
X193189299Y-155044865D01*
X193550558Y-154847639D01*
X193854394Y-154658078D01*
X194111041Y-154468409D01*
X194330738Y-154270862D01*
X194523720Y-154057664D01*
X194575821Y-153992222D01*
X194692663Y-153835134D01*
X194806296Y-153671485D01*
X194902200Y-153522769D01*
X194956644Y-153428530D01*
X195052050Y-153218044D01*
X195135898Y-152978029D01*
X195201782Y-152731780D01*
X195243296Y-152502595D01*
X195254660Y-152344667D01*
X195266491Y-152148638D01*
X195304626Y-151943657D01*
X195373030Y-151713738D01*
X195475668Y-151442899D01*
X195482464Y-151426307D01*
X195538720Y-151282037D01*
X195577687Y-151157748D01*
X195604152Y-151030784D01*
X195622904Y-150878492D01*
X195637845Y-150690976D01*
X195649871Y-150511977D01*
X195655607Y-150389146D01*
X195653685Y-150309428D01*
X195642732Y-150259766D01*
X195621378Y-150227105D01*
X195588251Y-150198387D01*
X195585931Y-150196561D01*
X195551348Y-150166435D01*
X195528913Y-150131953D01*
X195516840Y-150079609D01*
X195513340Y-149995896D01*
X195516392Y-149876543D01*
X195665298Y-149876543D01*
X195666122Y-150005164D01*
X195692062Y-150070198D01*
X195748067Y-150074458D01*
X195839086Y-150020760D01*
X195872870Y-149994642D01*
X196013209Y-149896770D01*
X196159127Y-149829497D01*
X196329504Y-149786913D01*
X196543220Y-149763105D01*
X196627740Y-149758302D01*
X196983525Y-149768765D01*
X197299201Y-149835680D01*
X197575251Y-149959210D01*
X197812160Y-150139521D01*
X197843275Y-150170371D01*
X197931188Y-150258220D01*
X197977194Y-150297210D01*
X197986051Y-150289853D01*
X197962517Y-150238658D01*
X197958538Y-150231174D01*
X197858806Y-150089729D01*
X197708864Y-149934201D01*
X197522989Y-149776150D01*
X197315457Y-149627136D01*
X197100547Y-149498719D01*
X196980674Y-149439376D01*
X196797929Y-149369924D01*
X196593194Y-149314078D01*
X196380567Y-149273370D01*
X196174146Y-149249332D01*
X195988030Y-149243494D01*
X195836316Y-149257390D01*
X195733103Y-149292550D01*
X195719429Y-149302344D01*
X195684693Y-149363823D01*
X195671054Y-149449282D01*
X195676642Y-149518248D01*
X195697200Y-149527342D01*
X195712693Y-149514432D01*
X195779162Y-149480816D01*
X195834141Y-149472793D01*
X195899419Y-149489941D01*
X195910287Y-149532528D01*
X195869926Y-149587270D01*
X195795421Y-149634536D01*
X195725716Y-149673480D01*
X195688620Y-149719812D01*
X195671628Y-149796789D01*
X195665298Y-149876543D01*
X195516392Y-149876543D01*
X195516628Y-149867308D01*
X195523029Y-149721192D01*
X195541965Y-149310196D01*
X195323824Y-149287396D01*
X195096431Y-149270966D01*
X194851488Y-149265593D01*
X194609511Y-149270745D01*
X194391016Y-149285890D01*
X194216518Y-149310498D01*
X194187296Y-149316838D01*
X194028742Y-149363766D01*
X193859159Y-149428190D01*
X193769832Y-149469134D01*
X193609647Y-149563488D01*
X193424960Y-149693316D01*
X193235128Y-149843020D01*
X193059511Y-149997006D01*
X192917467Y-150139677D01*
X192873378Y-150191344D01*
X192708059Y-150390946D01*
X192536759Y-150584863D01*
X192369511Y-150762704D01*
X192216348Y-150914076D01*
X192087300Y-151028588D01*
X192010261Y-151085370D01*
X191871333Y-151161006D01*
X191680238Y-151248665D01*
X191451938Y-151342764D01*
X191201395Y-151437717D01*
X190943571Y-151527940D01*
X190693427Y-151607850D01*
X190465925Y-151671862D01*
X190387115Y-151691185D01*
X190265690Y-151734969D01*
X190123186Y-151808731D01*
X189983020Y-151897998D01*
X189868605Y-151988296D01*
X189816906Y-152043647D01*
X189761848Y-152080370D01*
X189662018Y-152117597D01*
X189565335Y-152141610D01*
X189455872Y-152165265D01*
X189380031Y-152185704D01*
X189355753Y-152197140D01*
X189387224Y-152201505D01*
X189469520Y-152198973D01*
X189578564Y-152190632D01*
X189704100Y-152183091D01*
X189807578Y-152184311D01*
X189860068Y-152192348D01*
X189896954Y-152225490D01*
X189879072Y-152265289D01*
X189818854Y-152301066D01*
X189728729Y-152322143D01*
X189707174Y-152323701D01*
X189581300Y-152329254D01*
X189702748Y-152343525D01*
X189817305Y-152368433D01*
X189865223Y-152409062D01*
X189847709Y-152466540D01*
X189842107Y-152473619D01*
X189814765Y-152512935D01*
X189836877Y-152513140D01*
X189845312Y-152510154D01*
X189914856Y-152511435D01*
X189943413Y-152524064D01*
X189974829Y-152560899D01*
X189950403Y-152607359D01*
X189927125Y-152659795D01*
X189944879Y-152682019D01*
X189973349Y-152732110D01*
X189972589Y-152752574D01*
X189990199Y-152807571D01*
X190032393Y-152851720D01*
X190076148Y-152899903D01*
X190066335Y-152940644D01*
X190000907Y-152974195D01*
X189877819Y-153000808D01*
X189695024Y-153020735D01*
X189450478Y-153034228D01*
X189142134Y-153041539D01*
X188767947Y-153042920D01*
X188497179Y-153040855D01*
X187477948Y-153029487D01*
X187416216Y-152947600D01*
X187372679Y-152896171D01*
X187332839Y-152884664D01*
X187268963Y-152909845D01*
X187236061Y-152926591D01*
X187144954Y-152978268D01*
X187024669Y-153052730D01*
X186913945Y-153125377D01*
X186625049Y-153291411D01*
X186313874Y-153409415D01*
X186019819Y-153477513D01*
X185753153Y-153529091D01*
X185423699Y-153600220D01*
X185029845Y-153691249D01*
X184936745Y-153713419D01*
X184840883Y-153738995D01*
X184808332Y-153753975D01*
X184626289Y-153753975D01*
X184677027Y-153684572D01*
X184760779Y-153611378D01*
X184855603Y-153555681D01*
X184944026Y-153532656D01*
X184946705Y-153532629D01*
X185086090Y-153520362D01*
X185265968Y-153486927D01*
X185462575Y-153437371D01*
X185608212Y-153392150D01*
X185747542Y-153352171D01*
X185915051Y-153314424D01*
X186044932Y-153291707D01*
X186273010Y-153244587D01*
X186487848Y-153167169D01*
X186711491Y-153050422D01*
X186857393Y-152958847D01*
X186960309Y-152892713D01*
X187049988Y-152840407D01*
X187537807Y-152840407D01*
X187563051Y-152861187D01*
X187655871Y-152872422D01*
X187704838Y-152873339D01*
X187815990Y-152871374D01*
X187869739Y-152862697D01*
X187878035Y-152843135D01*
X187861476Y-152818638D01*
X187803693Y-152782335D01*
X187709633Y-152783692D01*
X187692405Y-152786639D01*
X187580729Y-152814188D01*
X187537807Y-152840407D01*
X187049988Y-152840407D01*
X187054240Y-152837927D01*
X187150329Y-152790267D01*
X187259725Y-152745508D01*
X187302900Y-152730643D01*
X187915726Y-152730643D01*
X188224026Y-152732592D01*
X188532325Y-152734541D01*
X188442049Y-152663530D01*
X188351773Y-152592519D01*
X188133750Y-152661581D01*
X187915726Y-152730643D01*
X187302900Y-152730643D01*
X187393572Y-152699425D01*
X187563018Y-152647795D01*
X187779207Y-152586394D01*
X187881267Y-152558279D01*
X188505617Y-152558279D01*
X188783212Y-152556109D01*
X188913452Y-152553724D01*
X188979566Y-152548482D01*
X188986798Y-152539406D01*
X188943549Y-152526258D01*
X188857559Y-152497193D01*
X188804863Y-152463392D01*
X188802604Y-152460250D01*
X188760239Y-152446264D01*
X188672588Y-152475572D01*
X188642267Y-152490101D01*
X188505617Y-152558279D01*
X187881267Y-152558279D01*
X188002475Y-152524889D01*
X188208200Y-152467109D01*
X188394882Y-152411888D01*
X188550545Y-152362991D01*
X188663213Y-152324182D01*
X188720911Y-152299223D01*
X188721267Y-152298992D01*
X188809409Y-152254516D01*
X188857126Y-152260587D01*
X188860296Y-152316637D01*
X188859907Y-152318148D01*
X188855661Y-152357268D01*
X188879215Y-152377248D01*
X188945417Y-152383409D01*
X189038032Y-152381994D01*
X189134831Y-152377656D01*
X189164131Y-152371726D01*
X189127822Y-152363695D01*
X189112996Y-152361809D01*
X188987551Y-152335284D01*
X188928244Y-152295612D01*
X188933561Y-152245105D01*
X189001985Y-152186075D01*
X189132001Y-152120835D01*
X189314745Y-152054058D01*
X189452160Y-152006785D01*
X189565152Y-151962512D01*
X189636600Y-151928187D01*
X189650699Y-151917766D01*
X189693974Y-151880679D01*
X189778581Y-151816351D01*
X189888603Y-151736771D01*
X189925226Y-151710987D01*
X190124192Y-151588830D01*
X190318077Y-151509309D01*
X190411018Y-151483672D01*
X190673753Y-151411227D01*
X190983693Y-151309400D01*
X191346123Y-151176395D01*
X191559169Y-151093490D01*
X191702926Y-151035120D01*
X191812022Y-150984128D01*
X191902920Y-150928984D01*
X191992081Y-150858162D01*
X192095967Y-150760133D01*
X192231040Y-150623372D01*
X192232164Y-150622221D01*
X192369070Y-150478718D01*
X192502216Y-150333478D01*
X192616548Y-150203265D01*
X192697012Y-150104841D01*
X192698237Y-150103227D01*
X192804522Y-149983438D01*
X192954490Y-149841562D01*
X193131956Y-149690620D01*
X193320741Y-149543633D01*
X193504660Y-149413622D01*
X193667532Y-149313606D01*
X193702739Y-149294981D01*
X193890222Y-149208749D01*
X194069628Y-149148247D01*
X194258847Y-149110192D01*
X194475768Y-149091302D01*
X194738283Y-149088293D01*
X194820917Y-149089816D01*
X195092730Y-149095530D01*
X195308531Y-149098409D01*
X195481657Y-149098245D01*
X195625444Y-149094832D01*
X195753229Y-149087962D01*
X195878349Y-149077428D01*
X195925818Y-149072645D01*
X196267370Y-149069991D01*
X196620774Y-149128711D01*
G37*
D11*
%TO.C,SW17*%
X217554144Y-142936876D02*
X218260305Y-143082958D01*
X217704025Y-143307742D02*
X217240420Y-143495041D01*
X217853852Y-143678630D02*
X217554144Y-142936876D01*
X218260305Y-143082958D02*
X217853852Y-143678630D01*
X218260305Y-143082958D02*
X218054269Y-142572998D01*
X218260305Y-143082958D02*
X218466355Y-143592926D01*
X218631185Y-142933117D02*
X218260305Y-143082958D01*
%TO.C,SW28*%
X240774787Y-96897484D02*
X241472327Y-97080328D01*
X240905047Y-97275693D02*
X240432282Y-97438481D01*
X241035260Y-97653899D02*
X240774787Y-96897484D01*
X241472327Y-97080328D02*
X241035260Y-97653899D01*
X241472327Y-97080328D02*
X241293271Y-96560290D01*
X241472327Y-97080328D02*
X241651399Y-97600372D01*
X241850548Y-96950098D02*
X241472327Y-97080328D01*
%TO.C,SW18*%
X233068110Y-131950247D02*
X233774271Y-132096329D01*
X233217991Y-132321113D02*
X232754386Y-132508412D01*
X233367818Y-132692001D02*
X233068110Y-131950247D01*
X233774271Y-132096329D02*
X233367818Y-132692001D01*
X233774271Y-132096329D02*
X233568235Y-131586369D01*
X233774271Y-132096329D02*
X233980321Y-132606297D01*
X234145151Y-131946488D02*
X233774271Y-132096329D01*
%TO.C,SW8*%
X146662280Y-142308707D02*
X146961960Y-141566949D01*
X146812123Y-141937840D02*
X146348526Y-141750533D01*
X146961960Y-141566949D02*
X147368439Y-142162568D01*
X147368439Y-142162568D02*
X146662280Y-142308707D01*
X147368439Y-142162568D02*
X147162395Y-142672558D01*
X147368439Y-142162568D02*
X147574465Y-141652619D01*
X147739316Y-142312427D02*
X147368439Y-142162568D01*
%TD*%
M02*
