%TF.GenerationSoftware,KiCad,Pcbnew,8.0.9-1.fc41*%
%TF.CreationDate,2025-03-23T19:42:29+11:00*%
%TF.ProjectId,iiwi,69697769-2e6b-4696-9361-645f70636258,0.1*%
%TF.SameCoordinates,Original*%
%TF.FileFunction,Drillmap*%
%TF.FilePolarity,Positive*%
%FSLAX45Y45*%
G04 Gerber Fmt 4.5, Leading zero omitted, Abs format (unit mm)*
G04 Created by KiCad (PCBNEW 8.0.9-1.fc41) date 2025-03-23 19:42:29*
%MOMM*%
%LPD*%
G01*
G04 APERTURE LIST*
%ADD10C,0.150000*%
%ADD11C,0.200000*%
%ADD12C,0.170180*%
%ADD13C,0.220000*%
%ADD14C,0.342900*%
G04 APERTURE END LIST*
D10*
X17705682Y-17992971D02*
G75*
G02*
X17698281Y-17780970I102298J109701D01*
G01*
X20056642Y-16087028D02*
G75*
G02*
X19999260Y-16087028I-28691J0D01*
G01*
X19999260Y-16087028D02*
G75*
G02*
X20056642Y-16087028I28691J0D01*
G01*
X18817740Y-16127465D02*
X15637689Y-16126665D01*
X19321151Y-10337507D02*
X19536550Y-10870638D01*
X16105880Y-12869918D02*
X16521260Y-11841815D01*
X24494941Y-13284295D02*
X24554996Y-13458707D01*
X19404038Y-10142239D02*
X20841173Y-9561599D01*
X26939395Y-14677393D02*
X28200779Y-14362894D01*
X14402451Y-16618545D02*
G75*
G02*
X14354748Y-16728245I-150001J5D01*
G01*
X16756624Y-17780968D02*
G75*
G02*
X16749223Y-17992974I-109704J-102302D01*
G01*
X27676331Y-12785355D02*
G75*
G02*
X27526332Y-12785355I-75000J0D01*
G01*
X27526332Y-12785355D02*
G75*
G02*
X27676331Y-12785355I75000J0D01*
G01*
X6928401Y-12786034D02*
G75*
G02*
X6778402Y-12786034I-75000J0D01*
G01*
X6778402Y-12786034D02*
G75*
G02*
X6928401Y-12786034I75000J0D01*
G01*
X16384035Y-13282299D02*
G75*
G02*
X16105876Y-12869916I-5J299999D01*
G01*
X10157979Y-13194053D02*
X11820767Y-13865863D01*
X12915279Y-16402598D02*
G75*
G02*
X12885753Y-16192527I90271J119798D01*
G01*
X24745659Y-13551699D02*
X26116661Y-13079625D01*
X18868444Y-18872165D02*
X20372660Y-17259091D01*
X19536550Y-10870638D02*
G75*
G02*
X19453665Y-11065909I-139080J-56192D01*
G01*
X22602757Y-14188619D02*
X22551249Y-14061131D01*
X20549651Y-17147529D02*
X20100151Y-16728248D01*
X20050151Y-16753248D02*
G75*
G02*
X20002450Y-16643545I102309J109708D01*
G01*
X13679751Y-15139129D02*
X14264833Y-15375189D01*
X14454141Y-16080129D02*
G75*
G02*
X14396760Y-16080129I-28691J0D01*
G01*
X14396760Y-16080129D02*
G75*
G02*
X14454141Y-16080129I28691J0D01*
G01*
X20872551Y-9238842D02*
X20924060Y-9366330D01*
X20100151Y-16728248D02*
G75*
G02*
X20052450Y-16618545I102309J109708D01*
G01*
X15798461Y-18879568D02*
G75*
G02*
X15586457Y-18872166I-102301J109708D01*
G01*
X13613729Y-9561598D02*
G75*
G02*
X13530841Y-9366329I56191J139078D01*
G01*
X28310035Y-14181062D02*
G75*
G02*
X28200779Y-14362895I-145545J-36288D01*
G01*
X26803065Y-13003085D02*
G75*
G02*
X26653065Y-13003085I-75000J0D01*
G01*
X26653065Y-13003085D02*
G75*
G02*
X26803065Y-13003085I75000J0D01*
G01*
X6459365Y-12919678D02*
X6144867Y-14181062D01*
X6677486Y-12664877D02*
G75*
G02*
X6641197Y-12810424I-18146J-72773D01*
G01*
X11935032Y-14383888D02*
G75*
G02*
X11852143Y-14188619I56188J139078D01*
G01*
X21568459Y-16192184D02*
G75*
G02*
X21538938Y-16402255I-119789J-90276D01*
G01*
X16438373Y-11646547D02*
G75*
G02*
X16521254Y-11841813I-56194J-139073D01*
G01*
X14082242Y-17259091D02*
G75*
G02*
X14089644Y-17047087I109698J102301D01*
G01*
X20056642Y-16387029D02*
G75*
G02*
X19999261Y-16387029I-28691J0D01*
G01*
X19999261Y-16387029D02*
G75*
G02*
X20056642Y-16387029I28691J0D01*
G01*
X9949803Y-8399309D02*
G75*
G02*
X10140467Y-8306315I141827J-48831D01*
G01*
X18349022Y-12869917D02*
G75*
G02*
X18070867Y-13282298I-278152J-112383D01*
G01*
X14452451Y-16643544D02*
G75*
G02*
X14404748Y-16753246I-150001J4D01*
G01*
X26443063Y-13306752D02*
X26757562Y-14568137D01*
X6882729Y-11221660D02*
G75*
G02*
X7064560Y-11112409I145541J-36290D01*
G01*
X21568459Y-16192184D02*
X20774751Y-15139529D01*
X20365257Y-17047089D02*
X20050151Y-16753248D01*
X15001239Y-11065907D02*
G75*
G02*
X14918353Y-10870639I56191J139077D01*
G01*
X8906103Y-11430433D02*
G75*
G02*
X8727988Y-11527138I-141823J48833D01*
G01*
X17705682Y-17992971D02*
X18656442Y-18879568D01*
X26116661Y-13079625D02*
X26116446Y-13079003D01*
X20053051Y-15603359D02*
G75*
G02*
X20002449Y-15603344I-25301J9D01*
G01*
X27886672Y-12483044D02*
X27572173Y-11221660D01*
X6459365Y-12919678D02*
G75*
G02*
X6641197Y-12810424I145545J-36292D01*
G01*
X24505099Y-8399309D02*
X25548799Y-11430433D01*
X20002451Y-16643545D02*
X20002351Y-16618461D01*
X9899906Y-13458707D02*
G75*
G02*
X9709244Y-13551696I-141826J48837D01*
G01*
X14264833Y-15325188D02*
G75*
G02*
X14452447Y-15603344I-112383J-278152D01*
G01*
X20056641Y-15787029D02*
G75*
G02*
X19999261Y-15787029I-28690J0D01*
G01*
X19999261Y-15787029D02*
G75*
G02*
X20056641Y-15787029I28690J0D01*
G01*
X20924060Y-9366330D02*
G75*
G02*
X20841173Y-9561599I-139080J-56190D01*
G01*
X20002351Y-16618461D02*
G75*
G02*
X20052449Y-16618545I25049J-39D01*
G01*
X14402451Y-16618545D02*
G75*
G02*
X14452549Y-16618629I25049J-45D01*
G01*
X14264833Y-15375189D02*
G75*
G02*
X14402447Y-15578344I-81143J-203151D01*
G01*
X20056641Y-15887029D02*
G75*
G02*
X19999260Y-15887029I-28691J0D01*
G01*
X19999260Y-15887029D02*
G75*
G02*
X20056641Y-15887029I28691J0D01*
G01*
X8338241Y-13079626D02*
X9709243Y-13551699D01*
X20872551Y-9238842D02*
G75*
G02*
X20955439Y-9043577I139069J56192D01*
G01*
X22160777Y-8556585D02*
X20955438Y-9043574D01*
X8906103Y-11430433D02*
X9949803Y-8399309D01*
X18817740Y-16127465D02*
G75*
G02*
X18941756Y-16448369I-11280J-188775D01*
G01*
X7902582Y-13124920D02*
G75*
G02*
X7938870Y-12979378I18148J72770D01*
G01*
X6254123Y-14362895D02*
G75*
G02*
X6144865Y-14181062I36287J145545D01*
G01*
X22160777Y-8556585D02*
G75*
G02*
X22356047Y-8639471I56193J-139075D01*
G01*
X20052451Y-15578344D02*
G75*
G02*
X20190068Y-15375186I218759J4D01*
G01*
X20365257Y-17047088D02*
G75*
G02*
X20372659Y-17259090I-102297J-109702D01*
G01*
X14452551Y-16618629D02*
X14452451Y-16643545D01*
X13613729Y-9561598D02*
X15050864Y-10142239D01*
X17933642Y-11841815D02*
X18349022Y-12869917D01*
X13530843Y-9366330D02*
X13582351Y-9238842D01*
X26939395Y-14677393D02*
G75*
G02*
X26757560Y-14568138I-36285J145553D01*
G01*
X24314436Y-8306316D02*
G75*
G02*
X24505095Y-8399310I48834J-141824D01*
G01*
X14454141Y-15780129D02*
G75*
G02*
X14396761Y-15780129I-28690J0D01*
G01*
X14396761Y-15780129D02*
G75*
G02*
X14454141Y-15780129I28690J0D01*
G01*
X15050864Y-10142239D02*
G75*
G02*
X15133753Y-10337508I-56194J-139081D01*
G01*
X12915279Y-16402598D02*
X13904351Y-17148429D01*
X6882728Y-11221660D02*
X6568230Y-12483044D01*
X14454141Y-16180129D02*
G75*
G02*
X14396761Y-16180129I-28690J0D01*
G01*
X14396761Y-16180129D02*
G75*
G02*
X14454141Y-16180129I28690J0D01*
G01*
X20190069Y-15375189D02*
X20774751Y-15139529D01*
X13499464Y-9043573D02*
G75*
G02*
X13582348Y-9238841I-56194J-139077D01*
G01*
X14404750Y-16753248D02*
X14089645Y-17047089D01*
X10140466Y-8306316D02*
X11843259Y-8892635D01*
X14454141Y-16380129D02*
G75*
G02*
X14396761Y-16380129I-28690J0D01*
G01*
X14396761Y-16380129D02*
G75*
G02*
X14454141Y-16380129I28690J0D01*
G01*
X26997124Y-12954700D02*
G75*
G02*
X26847124Y-12954700I-75000J0D01*
G01*
X26847124Y-12954700D02*
G75*
G02*
X26997124Y-12954700I75000J0D01*
G01*
X7064561Y-11112404D02*
X8727987Y-11527142D01*
X14402451Y-15578344D02*
X14401851Y-15603329D01*
X22611643Y-8892635D02*
G75*
G02*
X22423729Y-8806998I-48833J141835D01*
G01*
X7316520Y-12882802D02*
G75*
G02*
X7166520Y-12882802I-75000J0D01*
G01*
X7166520Y-12882802D02*
G75*
G02*
X7316520Y-12882802I75000J0D01*
G01*
X20053051Y-15603359D02*
X20052451Y-15578344D01*
X9959960Y-13284296D02*
G75*
G02*
X10157981Y-13194050I141830J-48834D01*
G01*
X11935032Y-14383888D02*
X14264833Y-15325189D01*
X7510578Y-12931187D02*
G75*
G02*
X7360579Y-12931187I-75000J0D01*
G01*
X7360579Y-12931187D02*
G75*
G02*
X7510578Y-12931187I75000J0D01*
G01*
X25726915Y-11527142D02*
X27390341Y-11112404D01*
X22634135Y-13865863D02*
X24296923Y-13194053D01*
X12098856Y-8639472D02*
X12031172Y-8806998D01*
X20056642Y-15987029D02*
G75*
G02*
X19999259Y-15987029I-28691J0D01*
G01*
X19999259Y-15987029D02*
G75*
G02*
X20056642Y-15987029I28691J0D01*
G01*
X13499464Y-9043573D02*
X12294125Y-8556585D01*
X22423730Y-8806998D02*
X22356045Y-8639472D01*
X15001239Y-11065907D02*
X16438373Y-11646547D01*
X20190069Y-15325189D02*
X22519870Y-14383888D01*
X12098856Y-8639472D02*
G75*
G02*
X12294124Y-8556589I139074J-56189D01*
G01*
X14918351Y-10870638D02*
X15133751Y-10337507D01*
X11903653Y-14061132D02*
X11852145Y-14188619D01*
X7902582Y-13124920D02*
G75*
G02*
X8011830Y-13306751I-36292J-145540D01*
G01*
X7938871Y-12979375D02*
X8338455Y-13079003D01*
X14454141Y-16280129D02*
G75*
G02*
X14396761Y-16280129I-28690J0D01*
G01*
X14396761Y-16280129D02*
G75*
G02*
X14454141Y-16280129I28690J0D01*
G01*
X22611643Y-8892635D02*
X24314436Y-8306316D01*
X26443064Y-13306753D02*
G75*
G02*
X26552319Y-13124918I145556J36283D01*
G01*
X12031172Y-8806998D02*
G75*
G02*
X11843257Y-8892641I-139082J56188D01*
G01*
X14082242Y-17259091D02*
X15586458Y-18872165D01*
X14454141Y-15880129D02*
G75*
G02*
X14396761Y-15880129I-28690J0D01*
G01*
X14396761Y-15880129D02*
G75*
G02*
X14454141Y-15880129I28690J0D01*
G01*
X9899906Y-13458707D02*
X9959960Y-13284295D01*
X7697340Y-14568137D02*
G75*
G02*
X7515508Y-14677389I-145540J36287D01*
G01*
X26116446Y-13079003D02*
X26515862Y-12978697D01*
X7801667Y-13003763D02*
G75*
G02*
X7651668Y-13003763I-74999J0D01*
G01*
X7651668Y-13003763D02*
G75*
G02*
X7801667Y-13003763I74999J0D01*
G01*
X19321151Y-10337507D02*
G75*
G02*
X19404040Y-10142243I139079J56187D01*
G01*
X27813704Y-12810422D02*
G75*
G02*
X27995537Y-12919678I36286J-145548D01*
G01*
X20002451Y-15603344D02*
G75*
G02*
X20190068Y-15325186I299999J4D01*
G01*
X14354751Y-16728248D02*
X13904351Y-17148429D01*
X7697340Y-14568137D02*
X8011838Y-13306753D01*
X22602757Y-14188619D02*
G75*
G02*
X22519870Y-14383887I-139077J-56191D01*
G01*
X20549651Y-17147529D02*
X21538935Y-16402251D01*
X14452451Y-15603344D02*
G75*
G02*
X14401849Y-15603329I-25301J14D01*
G01*
X7122460Y-12834418D02*
G75*
G02*
X6972461Y-12834418I-75000J0D01*
G01*
X6972461Y-12834418D02*
G75*
G02*
X7122460Y-12834418I75000J0D01*
G01*
X25726915Y-11527142D02*
G75*
G02*
X25548798Y-11430434I-36285J145552D01*
G01*
X27886672Y-12483045D02*
G75*
G02*
X27777416Y-12664879I-145552J-36285D01*
G01*
X14454141Y-15980129D02*
G75*
G02*
X14396760Y-15980129I-28691J0D01*
G01*
X14396760Y-15980129D02*
G75*
G02*
X14454141Y-15980129I28691J0D01*
G01*
X6254123Y-14362895D02*
X7515508Y-14677393D01*
X11820767Y-13865863D02*
G75*
G02*
X11903655Y-14061132I-56187J-139077D01*
G01*
X24296923Y-13194053D02*
G75*
G02*
X24494942Y-13284295I56187J-139087D01*
G01*
X22551249Y-14061131D02*
G75*
G02*
X22634136Y-13865866I139071J56192D01*
G01*
X18941749Y-16448362D02*
X17698278Y-17780967D01*
X20056642Y-16187029D02*
G75*
G02*
X19999261Y-16187029I-28691J0D01*
G01*
X19999261Y-16187029D02*
G75*
G02*
X20056642Y-16187029I28691J0D01*
G01*
X17933642Y-11841815D02*
G75*
G02*
X18016526Y-11646541I139078J56195D01*
G01*
X27191183Y-12906316D02*
G75*
G02*
X27041185Y-12906316I-74999J0D01*
G01*
X27041185Y-12906316D02*
G75*
G02*
X27191183Y-12906316I74999J0D01*
G01*
X27385243Y-12857931D02*
G75*
G02*
X27235242Y-12857931I-75000J0D01*
G01*
X27235242Y-12857931D02*
G75*
G02*
X27385243Y-12857931I75000J0D01*
G01*
X20056641Y-16287029D02*
G75*
G02*
X19999261Y-16287029I-28690J0D01*
G01*
X19999261Y-16287029D02*
G75*
G02*
X20056641Y-16287029I28690J0D01*
G01*
X24745659Y-13551700D02*
G75*
G02*
X24554996Y-13458707I-48839J141820D01*
G01*
X28310035Y-14181062D02*
X27995537Y-12919678D01*
X18868445Y-18872165D02*
G75*
G02*
X18656440Y-18879570I-109705J102295D01*
G01*
X15513679Y-16447562D02*
G75*
G02*
X15637689Y-16126674I135291J132123D01*
G01*
X18070867Y-13282300D02*
X16384035Y-13282299D01*
X26515862Y-12978697D02*
G75*
G02*
X26552151Y-13124245I18148J-72773D01*
G01*
X13679751Y-15139129D02*
X12885756Y-16192530D01*
X6677486Y-12664877D02*
G75*
G02*
X6568224Y-12483043I36284J145547D01*
G01*
X15798460Y-18879568D02*
X16749220Y-17992970D01*
X16756623Y-17780967D02*
X15513679Y-16447562D01*
X27813704Y-12810422D02*
G75*
G02*
X27777416Y-12664878I-18144J72772D01*
G01*
X8338455Y-13079003D02*
X8338241Y-13079626D01*
X27390341Y-11112404D02*
G75*
G02*
X27572169Y-11221661I36289J-145536D01*
G01*
X18016528Y-11646547D02*
X19453664Y-11065907D01*
D11*
D12*
X6459600Y-13525760D02*
X6629780Y-13695940D01*
X6629780Y-13525760D02*
X6459600Y-13695940D01*
X6882964Y-11827742D02*
X7053144Y-11997922D01*
X7053144Y-11827742D02*
X6882964Y-11997922D01*
X7526925Y-13791875D02*
X7697105Y-13962055D01*
X7697105Y-13791875D02*
X7526925Y-13962055D01*
X7950288Y-12093857D02*
X8120468Y-12264037D01*
X8120468Y-12093857D02*
X7950288Y-12264037D01*
X8749982Y-12319509D02*
X8920162Y-12489689D01*
X8920162Y-12319509D02*
X8749982Y-12489689D01*
X9319728Y-10664849D02*
X9489908Y-10835029D01*
X9489908Y-10664849D02*
X9319728Y-10835029D01*
X9790056Y-12677635D02*
X9960236Y-12847815D01*
X9960236Y-12677635D02*
X9790056Y-12847815D01*
X9889473Y-9010193D02*
X10059653Y-9180373D01*
X10059653Y-9010193D02*
X9889473Y-9180373D01*
X10359802Y-11022975D02*
X10529982Y-11193155D01*
X10529982Y-11022975D02*
X10359802Y-11193155D01*
X10690942Y-12495846D02*
X10861122Y-12666026D01*
X10861122Y-12495846D02*
X10690942Y-12666026D01*
X10929547Y-9368319D02*
X11099727Y-9538499D01*
X11099727Y-9368319D02*
X10929547Y-9538499D01*
X11346508Y-10873269D02*
X11516688Y-11043449D01*
X11516688Y-10873269D02*
X11346508Y-11043449D01*
X11710843Y-12907914D02*
X11881023Y-13078094D01*
X11881023Y-12907914D02*
X11710843Y-13078094D01*
X12002070Y-9250700D02*
X12172250Y-9420880D01*
X12172250Y-9250700D02*
X12002070Y-9420880D01*
X12242346Y-13594511D02*
X12412526Y-13764691D01*
X12412526Y-13594511D02*
X12242346Y-13764691D01*
X12366409Y-11285336D02*
X12536589Y-11455516D01*
X12536589Y-11285336D02*
X12366409Y-11455516D01*
X12897904Y-11971937D02*
X13068084Y-12142117D01*
X13068084Y-11971937D02*
X12897904Y-12142117D01*
X13021971Y-9662767D02*
X13192151Y-9832947D01*
X13192151Y-9662767D02*
X13021971Y-9832947D01*
X13262247Y-14006578D02*
X13432427Y-14176758D01*
X13432427Y-14006578D02*
X13262247Y-14176758D01*
X13391074Y-15738493D02*
X13561254Y-15908673D01*
X13561254Y-15738493D02*
X13391074Y-15908673D01*
X13553470Y-10349363D02*
X13723650Y-10519543D01*
X13723650Y-10349363D02*
X13553470Y-10519543D01*
X13917805Y-12384005D02*
X14087985Y-12554185D01*
X14087985Y-12384005D02*
X13917805Y-12554185D01*
X14269573Y-16400490D02*
X14439753Y-16570670D01*
X14439753Y-16400490D02*
X14269573Y-16570670D01*
X14285417Y-13476248D02*
X14455597Y-13646428D01*
X14455597Y-13476248D02*
X14285417Y-13646428D01*
X14573371Y-10761430D02*
X14743551Y-10931610D01*
X14743551Y-10761430D02*
X14573371Y-10931610D01*
X14940979Y-11853675D02*
X15111159Y-12023855D01*
X15111159Y-11853675D02*
X14940979Y-12023855D01*
X14959244Y-17032695D02*
X15129424Y-17202875D01*
X15129424Y-17032695D02*
X14959244Y-17202875D01*
X15305318Y-13888315D02*
X15475498Y-14058495D01*
X15475498Y-13888315D02*
X15305318Y-14058495D01*
X15709441Y-17837185D02*
X15879621Y-18007365D01*
X15879621Y-17837185D02*
X15709441Y-18007365D01*
X15960880Y-12265742D02*
X16131060Y-12435922D01*
X16131060Y-12265742D02*
X15960880Y-12435922D01*
X18323500Y-12265536D02*
X18493680Y-12435716D01*
X18493680Y-12265536D02*
X18323500Y-12435716D01*
X18575280Y-17837183D02*
X18745460Y-18007363D01*
X18745460Y-17837183D02*
X18575280Y-18007363D01*
X18979407Y-13888314D02*
X19149587Y-14058494D01*
X19149587Y-13888314D02*
X18979407Y-14058494D01*
X19325479Y-17032696D02*
X19495659Y-17202876D01*
X19495659Y-17032696D02*
X19325479Y-17202876D01*
X19343400Y-11853466D02*
X19513580Y-12023646D01*
X19513580Y-11853466D02*
X19343400Y-12023646D01*
X19711995Y-10761848D02*
X19882175Y-10932028D01*
X19882175Y-10761848D02*
X19711995Y-10932028D01*
X19999307Y-13476244D02*
X20169487Y-13646424D01*
X20169487Y-13476244D02*
X19999307Y-13646424D01*
X20014030Y-16400431D02*
X20184210Y-16570611D01*
X20184210Y-16400431D02*
X20014030Y-16570611D01*
X20366916Y-12384006D02*
X20537096Y-12554186D01*
X20537096Y-12384006D02*
X20366916Y-12554186D01*
X20731894Y-10349778D02*
X20902074Y-10519958D01*
X20902074Y-10349778D02*
X20731894Y-10519958D01*
X20892530Y-15738434D02*
X21062710Y-15908614D01*
X21062710Y-15738434D02*
X20892530Y-15908614D01*
X21022475Y-14006577D02*
X21192655Y-14176757D01*
X21192655Y-14006577D02*
X21022475Y-14176757D01*
X21262593Y-9662508D02*
X21432773Y-9832688D01*
X21432773Y-9662508D02*
X21262593Y-9832688D01*
X21386816Y-11971936D02*
X21556996Y-12142116D01*
X21556996Y-11971936D02*
X21386816Y-12142116D01*
X21918312Y-11285339D02*
X22088492Y-11455519D01*
X22088492Y-11285339D02*
X21918312Y-11455519D01*
X22042374Y-13594507D02*
X22212554Y-13764687D01*
X22212554Y-13594507D02*
X22042374Y-13764687D01*
X22282492Y-9250438D02*
X22452672Y-9420618D01*
X22452672Y-9250438D02*
X22282492Y-9420618D01*
X22573871Y-12907914D02*
X22744051Y-13078094D01*
X22744051Y-12907914D02*
X22573871Y-13078094D01*
X22938212Y-10873269D02*
X23108392Y-11043449D01*
X23108392Y-10873269D02*
X22938212Y-11043449D01*
X23355999Y-9369008D02*
X23526179Y-9539188D01*
X23526179Y-9369008D02*
X23355999Y-9539188D01*
X23593771Y-12495844D02*
X23763951Y-12666024D01*
X23763951Y-12495844D02*
X23593771Y-12666024D01*
X23924253Y-11022357D02*
X24094433Y-11192537D01*
X24094433Y-11022357D02*
X23924253Y-11192537D01*
X24396068Y-9010882D02*
X24566248Y-9181062D01*
X24566248Y-9010882D02*
X24396068Y-9181062D01*
X24494667Y-12677638D02*
X24664847Y-12847818D01*
X24664847Y-12677638D02*
X24494667Y-12847818D01*
X24964322Y-10664232D02*
X25134502Y-10834412D01*
X25134502Y-10664232D02*
X24964322Y-10834412D01*
X25534736Y-12319512D02*
X25704916Y-12489692D01*
X25704916Y-12319512D02*
X25534736Y-12489692D01*
X26334433Y-12093857D02*
X26504613Y-12264037D01*
X26504613Y-12093857D02*
X26334433Y-12264037D01*
X26757797Y-13791874D02*
X26927977Y-13962054D01*
X26927977Y-13791874D02*
X26757797Y-13962054D01*
X27401758Y-11827743D02*
X27571938Y-11997923D01*
X27571938Y-11827743D02*
X27401758Y-11997923D01*
X27825122Y-13525761D02*
X27995302Y-13695941D01*
X27995302Y-13525761D02*
X27825122Y-13695941D01*
D13*
X13997966Y-14822401D02*
G75*
G02*
X13777966Y-14822401I-110000J0D01*
G01*
X13777966Y-14822401D02*
G75*
G02*
X13997966Y-14822401I110000J0D01*
G01*
X13997966Y-14822401D02*
G75*
G02*
X13777966Y-14822401I-110000J0D01*
G01*
X13777966Y-14822401D02*
G75*
G02*
X13997966Y-14822401I110000J0D01*
G01*
X20676936Y-14822401D02*
G75*
G02*
X20456936Y-14822401I-110000J0D01*
G01*
X20456936Y-14822401D02*
G75*
G02*
X20676936Y-14822401I110000J0D01*
G01*
D14*
X7078353Y-13572457D02*
X7078353Y-13915357D01*
X6906903Y-13743907D02*
X7249803Y-13743907D01*
X7501716Y-11874440D02*
X7501716Y-12217340D01*
X7330266Y-12045890D02*
X7673166Y-12045890D01*
X9355109Y-12412212D02*
X9355109Y-12755112D01*
X9183659Y-12583662D02*
X9526559Y-12583662D01*
X9924855Y-10757552D02*
X9924855Y-11100452D01*
X9753405Y-10929002D02*
X10096305Y-10929002D01*
X10494600Y-9102896D02*
X10494600Y-9445796D01*
X10323150Y-9274346D02*
X10666050Y-9274346D01*
X11285982Y-12615520D02*
X11285982Y-12958420D01*
X11114532Y-12786970D02*
X11457432Y-12786970D01*
X11941549Y-10992943D02*
X11941549Y-11335843D01*
X11770099Y-11164393D02*
X12112999Y-11164393D01*
X12597110Y-9370374D02*
X12597110Y-9713274D01*
X12425660Y-9541824D02*
X12768560Y-9541824D01*
X12837387Y-13714185D02*
X12837387Y-14057085D01*
X12665937Y-13885635D02*
X13008837Y-13885635D01*
X13492945Y-12091611D02*
X13492945Y-12434511D01*
X13321495Y-12263061D02*
X13664395Y-12263061D01*
X13915414Y-15983131D02*
X13915414Y-16326031D01*
X13743964Y-16154581D02*
X14086864Y-16154581D01*
X14148510Y-10469037D02*
X14148510Y-10811937D01*
X13977060Y-10640487D02*
X14319960Y-10640487D01*
X14880457Y-13595921D02*
X14880457Y-13938821D01*
X14709007Y-13767371D02*
X15051907Y-13767371D01*
X15419433Y-17348580D02*
X15419433Y-17691480D01*
X15247983Y-17520030D02*
X15590883Y-17520030D01*
X15536019Y-11973349D02*
X15536019Y-12316249D01*
X15364569Y-12144799D02*
X15707469Y-12144799D01*
X18918540Y-11973141D02*
X18918540Y-12316041D01*
X18747090Y-12144591D02*
X19089990Y-12144591D01*
X19035469Y-17348579D02*
X19035469Y-17691479D01*
X18864019Y-17520029D02*
X19206919Y-17520029D01*
X19574447Y-13595919D02*
X19574447Y-13938819D01*
X19402997Y-13767369D02*
X19745897Y-13767369D01*
X20307035Y-10469453D02*
X20307035Y-10812353D01*
X20135585Y-10640903D02*
X20478485Y-10640903D01*
X20538370Y-15983073D02*
X20538370Y-16325973D01*
X20366920Y-16154523D02*
X20709820Y-16154523D01*
X20961956Y-12091611D02*
X20961956Y-12434511D01*
X20790506Y-12263061D02*
X21133406Y-12263061D01*
X21617515Y-13714182D02*
X21617515Y-14057082D01*
X21446065Y-13885632D02*
X21788965Y-13885632D01*
X21857632Y-9370113D02*
X21857632Y-9713013D01*
X21686182Y-9541563D02*
X22029082Y-9541563D01*
X22513352Y-10992944D02*
X22513352Y-11335844D01*
X22341902Y-11164394D02*
X22684802Y-11164394D01*
X23168911Y-12615519D02*
X23168911Y-12958419D01*
X22997461Y-12786969D02*
X23340361Y-12786969D01*
X23961124Y-9103585D02*
X23961124Y-9446485D01*
X23789674Y-9275035D02*
X24132574Y-9275035D01*
X24529378Y-10756935D02*
X24529378Y-11099835D01*
X24357928Y-10928385D02*
X24700828Y-10928385D01*
X25099792Y-12412215D02*
X25099792Y-12755115D01*
X24928342Y-12583665D02*
X25271242Y-12583665D01*
X26953186Y-11874440D02*
X26953186Y-12217340D01*
X26781736Y-12045890D02*
X27124636Y-12045890D01*
X27376549Y-13572457D02*
X27376549Y-13915357D01*
X27205099Y-13743907D02*
X27547999Y-13743907D01*
D11*
X6393687Y-19238852D02*
X6393687Y-19038852D01*
X6393687Y-19038852D02*
X6441306Y-19038852D01*
X6441306Y-19038852D02*
X6469877Y-19048375D01*
X6469877Y-19048375D02*
X6488925Y-19067423D01*
X6488925Y-19067423D02*
X6498449Y-19086471D01*
X6498449Y-19086471D02*
X6507972Y-19124566D01*
X6507972Y-19124566D02*
X6507972Y-19153137D01*
X6507972Y-19153137D02*
X6498449Y-19191233D01*
X6498449Y-19191233D02*
X6488925Y-19210280D01*
X6488925Y-19210280D02*
X6469877Y-19229328D01*
X6469877Y-19229328D02*
X6441306Y-19238852D01*
X6441306Y-19238852D02*
X6393687Y-19238852D01*
X6593687Y-19238852D02*
X6593687Y-19105518D01*
X6593687Y-19143614D02*
X6603210Y-19124566D01*
X6603210Y-19124566D02*
X6612734Y-19115042D01*
X6612734Y-19115042D02*
X6631782Y-19105518D01*
X6631782Y-19105518D02*
X6650830Y-19105518D01*
X6717496Y-19238852D02*
X6717496Y-19105518D01*
X6717496Y-19038852D02*
X6707972Y-19048375D01*
X6707972Y-19048375D02*
X6717496Y-19057899D01*
X6717496Y-19057899D02*
X6727020Y-19048375D01*
X6727020Y-19048375D02*
X6717496Y-19038852D01*
X6717496Y-19038852D02*
X6717496Y-19057899D01*
X6841306Y-19238852D02*
X6822258Y-19229328D01*
X6822258Y-19229328D02*
X6812734Y-19210280D01*
X6812734Y-19210280D02*
X6812734Y-19038852D01*
X6946068Y-19238852D02*
X6927020Y-19229328D01*
X6927020Y-19229328D02*
X6917496Y-19210280D01*
X6917496Y-19210280D02*
X6917496Y-19038852D01*
X7174639Y-19238852D02*
X7174639Y-19038852D01*
X7174639Y-19038852D02*
X7241306Y-19181709D01*
X7241306Y-19181709D02*
X7307972Y-19038852D01*
X7307972Y-19038852D02*
X7307972Y-19238852D01*
X7488925Y-19238852D02*
X7488925Y-19134090D01*
X7488925Y-19134090D02*
X7479401Y-19115042D01*
X7479401Y-19115042D02*
X7460353Y-19105518D01*
X7460353Y-19105518D02*
X7422258Y-19105518D01*
X7422258Y-19105518D02*
X7403210Y-19115042D01*
X7488925Y-19229328D02*
X7469877Y-19238852D01*
X7469877Y-19238852D02*
X7422258Y-19238852D01*
X7422258Y-19238852D02*
X7403210Y-19229328D01*
X7403210Y-19229328D02*
X7393687Y-19210280D01*
X7393687Y-19210280D02*
X7393687Y-19191233D01*
X7393687Y-19191233D02*
X7403210Y-19172185D01*
X7403210Y-19172185D02*
X7422258Y-19162661D01*
X7422258Y-19162661D02*
X7469877Y-19162661D01*
X7469877Y-19162661D02*
X7488925Y-19153137D01*
X7584163Y-19105518D02*
X7584163Y-19305518D01*
X7584163Y-19115042D02*
X7603210Y-19105518D01*
X7603210Y-19105518D02*
X7641306Y-19105518D01*
X7641306Y-19105518D02*
X7660353Y-19115042D01*
X7660353Y-19115042D02*
X7669877Y-19124566D01*
X7669877Y-19124566D02*
X7679401Y-19143614D01*
X7679401Y-19143614D02*
X7679401Y-19200756D01*
X7679401Y-19200756D02*
X7669877Y-19219804D01*
X7669877Y-19219804D02*
X7660353Y-19229328D01*
X7660353Y-19229328D02*
X7641306Y-19238852D01*
X7641306Y-19238852D02*
X7603210Y-19238852D01*
X7603210Y-19238852D02*
X7584163Y-19229328D01*
X7765115Y-19219804D02*
X7774639Y-19229328D01*
X7774639Y-19229328D02*
X7765115Y-19238852D01*
X7765115Y-19238852D02*
X7755591Y-19229328D01*
X7755591Y-19229328D02*
X7765115Y-19219804D01*
X7765115Y-19219804D02*
X7765115Y-19238852D01*
X7765115Y-19115042D02*
X7774639Y-19124566D01*
X7774639Y-19124566D02*
X7765115Y-19134090D01*
X7765115Y-19134090D02*
X7755591Y-19124566D01*
X7755591Y-19124566D02*
X7765115Y-19115042D01*
X7765115Y-19115042D02*
X7765115Y-19134090D01*
D12*
X5962730Y-19482278D02*
X6132910Y-19652458D01*
X6132910Y-19482278D02*
X5962730Y-19652458D01*
D11*
X6498449Y-19658852D02*
X6384163Y-19658852D01*
X6441306Y-19658852D02*
X6441306Y-19458852D01*
X6441306Y-19458852D02*
X6422258Y-19487423D01*
X6422258Y-19487423D02*
X6403210Y-19506471D01*
X6403210Y-19506471D02*
X6384163Y-19515994D01*
X6584163Y-19639804D02*
X6593687Y-19649328D01*
X6593687Y-19649328D02*
X6584163Y-19658852D01*
X6584163Y-19658852D02*
X6574639Y-19649328D01*
X6574639Y-19649328D02*
X6584163Y-19639804D01*
X6584163Y-19639804D02*
X6584163Y-19658852D01*
X6660353Y-19458852D02*
X6793687Y-19458852D01*
X6793687Y-19458852D02*
X6707972Y-19658852D01*
X6907972Y-19458852D02*
X6927020Y-19458852D01*
X6927020Y-19458852D02*
X6946068Y-19468375D01*
X6946068Y-19468375D02*
X6955591Y-19477899D01*
X6955591Y-19477899D02*
X6965115Y-19496947D01*
X6965115Y-19496947D02*
X6974639Y-19535042D01*
X6974639Y-19535042D02*
X6974639Y-19582661D01*
X6974639Y-19582661D02*
X6965115Y-19620756D01*
X6965115Y-19620756D02*
X6955591Y-19639804D01*
X6955591Y-19639804D02*
X6946068Y-19649328D01*
X6946068Y-19649328D02*
X6927020Y-19658852D01*
X6927020Y-19658852D02*
X6907972Y-19658852D01*
X6907972Y-19658852D02*
X6888925Y-19649328D01*
X6888925Y-19649328D02*
X6879401Y-19639804D01*
X6879401Y-19639804D02*
X6869877Y-19620756D01*
X6869877Y-19620756D02*
X6860353Y-19582661D01*
X6860353Y-19582661D02*
X6860353Y-19535042D01*
X6860353Y-19535042D02*
X6869877Y-19496947D01*
X6869877Y-19496947D02*
X6879401Y-19477899D01*
X6879401Y-19477899D02*
X6888925Y-19468375D01*
X6888925Y-19468375D02*
X6907972Y-19458852D01*
X7050830Y-19477899D02*
X7060353Y-19468375D01*
X7060353Y-19468375D02*
X7079401Y-19458852D01*
X7079401Y-19458852D02*
X7127020Y-19458852D01*
X7127020Y-19458852D02*
X7146068Y-19468375D01*
X7146068Y-19468375D02*
X7155591Y-19477899D01*
X7155591Y-19477899D02*
X7165115Y-19496947D01*
X7165115Y-19496947D02*
X7165115Y-19515994D01*
X7165115Y-19515994D02*
X7155591Y-19544566D01*
X7155591Y-19544566D02*
X7041306Y-19658852D01*
X7041306Y-19658852D02*
X7165115Y-19658852D01*
X7250830Y-19658852D02*
X7250830Y-19525518D01*
X7250830Y-19544566D02*
X7260353Y-19535042D01*
X7260353Y-19535042D02*
X7279401Y-19525518D01*
X7279401Y-19525518D02*
X7307972Y-19525518D01*
X7307972Y-19525518D02*
X7327020Y-19535042D01*
X7327020Y-19535042D02*
X7336544Y-19554090D01*
X7336544Y-19554090D02*
X7336544Y-19658852D01*
X7336544Y-19554090D02*
X7346068Y-19535042D01*
X7346068Y-19535042D02*
X7365115Y-19525518D01*
X7365115Y-19525518D02*
X7393687Y-19525518D01*
X7393687Y-19525518D02*
X7412734Y-19535042D01*
X7412734Y-19535042D02*
X7422258Y-19554090D01*
X7422258Y-19554090D02*
X7422258Y-19658852D01*
X7517496Y-19658852D02*
X7517496Y-19525518D01*
X7517496Y-19544566D02*
X7527020Y-19535042D01*
X7527020Y-19535042D02*
X7546068Y-19525518D01*
X7546068Y-19525518D02*
X7574639Y-19525518D01*
X7574639Y-19525518D02*
X7593687Y-19535042D01*
X7593687Y-19535042D02*
X7603211Y-19554090D01*
X7603211Y-19554090D02*
X7603211Y-19658852D01*
X7603211Y-19554090D02*
X7612734Y-19535042D01*
X7612734Y-19535042D02*
X7631782Y-19525518D01*
X7631782Y-19525518D02*
X7660353Y-19525518D01*
X7660353Y-19525518D02*
X7679401Y-19535042D01*
X7679401Y-19535042D02*
X7688925Y-19554090D01*
X7688925Y-19554090D02*
X7688925Y-19658852D01*
X8079401Y-19449328D02*
X7907973Y-19706471D01*
X8336544Y-19458852D02*
X8355592Y-19458852D01*
X8355592Y-19458852D02*
X8374639Y-19468375D01*
X8374639Y-19468375D02*
X8384163Y-19477899D01*
X8384163Y-19477899D02*
X8393687Y-19496947D01*
X8393687Y-19496947D02*
X8403211Y-19535042D01*
X8403211Y-19535042D02*
X8403211Y-19582661D01*
X8403211Y-19582661D02*
X8393687Y-19620756D01*
X8393687Y-19620756D02*
X8384163Y-19639804D01*
X8384163Y-19639804D02*
X8374639Y-19649328D01*
X8374639Y-19649328D02*
X8355592Y-19658852D01*
X8355592Y-19658852D02*
X8336544Y-19658852D01*
X8336544Y-19658852D02*
X8317496Y-19649328D01*
X8317496Y-19649328D02*
X8307973Y-19639804D01*
X8307973Y-19639804D02*
X8298449Y-19620756D01*
X8298449Y-19620756D02*
X8288925Y-19582661D01*
X8288925Y-19582661D02*
X8288925Y-19535042D01*
X8288925Y-19535042D02*
X8298449Y-19496947D01*
X8298449Y-19496947D02*
X8307973Y-19477899D01*
X8307973Y-19477899D02*
X8317496Y-19468375D01*
X8317496Y-19468375D02*
X8336544Y-19458852D01*
X8488925Y-19639804D02*
X8498449Y-19649328D01*
X8498449Y-19649328D02*
X8488925Y-19658852D01*
X8488925Y-19658852D02*
X8479401Y-19649328D01*
X8479401Y-19649328D02*
X8488925Y-19639804D01*
X8488925Y-19639804D02*
X8488925Y-19658852D01*
X8622258Y-19458852D02*
X8641306Y-19458852D01*
X8641306Y-19458852D02*
X8660354Y-19468375D01*
X8660354Y-19468375D02*
X8669877Y-19477899D01*
X8669877Y-19477899D02*
X8679401Y-19496947D01*
X8679401Y-19496947D02*
X8688925Y-19535042D01*
X8688925Y-19535042D02*
X8688925Y-19582661D01*
X8688925Y-19582661D02*
X8679401Y-19620756D01*
X8679401Y-19620756D02*
X8669877Y-19639804D01*
X8669877Y-19639804D02*
X8660354Y-19649328D01*
X8660354Y-19649328D02*
X8641306Y-19658852D01*
X8641306Y-19658852D02*
X8622258Y-19658852D01*
X8622258Y-19658852D02*
X8603211Y-19649328D01*
X8603211Y-19649328D02*
X8593687Y-19639804D01*
X8593687Y-19639804D02*
X8584163Y-19620756D01*
X8584163Y-19620756D02*
X8574639Y-19582661D01*
X8574639Y-19582661D02*
X8574639Y-19535042D01*
X8574639Y-19535042D02*
X8584163Y-19496947D01*
X8584163Y-19496947D02*
X8593687Y-19477899D01*
X8593687Y-19477899D02*
X8603211Y-19468375D01*
X8603211Y-19468375D02*
X8622258Y-19458852D01*
X8860354Y-19458852D02*
X8822258Y-19458852D01*
X8822258Y-19458852D02*
X8803211Y-19468375D01*
X8803211Y-19468375D02*
X8793687Y-19477899D01*
X8793687Y-19477899D02*
X8774639Y-19506471D01*
X8774639Y-19506471D02*
X8765116Y-19544566D01*
X8765116Y-19544566D02*
X8765116Y-19620756D01*
X8765116Y-19620756D02*
X8774639Y-19639804D01*
X8774639Y-19639804D02*
X8784163Y-19649328D01*
X8784163Y-19649328D02*
X8803211Y-19658852D01*
X8803211Y-19658852D02*
X8841306Y-19658852D01*
X8841306Y-19658852D02*
X8860354Y-19649328D01*
X8860354Y-19649328D02*
X8869877Y-19639804D01*
X8869877Y-19639804D02*
X8879401Y-19620756D01*
X8879401Y-19620756D02*
X8879401Y-19573137D01*
X8879401Y-19573137D02*
X8869877Y-19554090D01*
X8869877Y-19554090D02*
X8860354Y-19544566D01*
X8860354Y-19544566D02*
X8841306Y-19535042D01*
X8841306Y-19535042D02*
X8803211Y-19535042D01*
X8803211Y-19535042D02*
X8784163Y-19544566D01*
X8784163Y-19544566D02*
X8774639Y-19554090D01*
X8774639Y-19554090D02*
X8765116Y-19573137D01*
X8946068Y-19458852D02*
X9079401Y-19458852D01*
X9079401Y-19458852D02*
X8993687Y-19658852D01*
X9193687Y-19458852D02*
X9212735Y-19458852D01*
X9212735Y-19458852D02*
X9231782Y-19468375D01*
X9231782Y-19468375D02*
X9241306Y-19477899D01*
X9241306Y-19477899D02*
X9250830Y-19496947D01*
X9250830Y-19496947D02*
X9260354Y-19535042D01*
X9260354Y-19535042D02*
X9260354Y-19582661D01*
X9260354Y-19582661D02*
X9250830Y-19620756D01*
X9250830Y-19620756D02*
X9241306Y-19639804D01*
X9241306Y-19639804D02*
X9231782Y-19649328D01*
X9231782Y-19649328D02*
X9212735Y-19658852D01*
X9212735Y-19658852D02*
X9193687Y-19658852D01*
X9193687Y-19658852D02*
X9174639Y-19649328D01*
X9174639Y-19649328D02*
X9165116Y-19639804D01*
X9165116Y-19639804D02*
X9155592Y-19620756D01*
X9155592Y-19620756D02*
X9146068Y-19582661D01*
X9146068Y-19582661D02*
X9146068Y-19535042D01*
X9146068Y-19535042D02*
X9155592Y-19496947D01*
X9155592Y-19496947D02*
X9165116Y-19477899D01*
X9165116Y-19477899D02*
X9174639Y-19468375D01*
X9174639Y-19468375D02*
X9193687Y-19458852D01*
X9336544Y-19458852D02*
X9336544Y-19496947D01*
X9412735Y-19458852D02*
X9412735Y-19496947D01*
X9707973Y-19735042D02*
X9698449Y-19725518D01*
X9698449Y-19725518D02*
X9679401Y-19696947D01*
X9679401Y-19696947D02*
X9669878Y-19677899D01*
X9669878Y-19677899D02*
X9660354Y-19649328D01*
X9660354Y-19649328D02*
X9650830Y-19601709D01*
X9650830Y-19601709D02*
X9650830Y-19563614D01*
X9650830Y-19563614D02*
X9660354Y-19515994D01*
X9660354Y-19515994D02*
X9669878Y-19487423D01*
X9669878Y-19487423D02*
X9679401Y-19468375D01*
X9679401Y-19468375D02*
X9698449Y-19439804D01*
X9698449Y-19439804D02*
X9707973Y-19430280D01*
X9869878Y-19458852D02*
X9831782Y-19458852D01*
X9831782Y-19458852D02*
X9812735Y-19468375D01*
X9812735Y-19468375D02*
X9803211Y-19477899D01*
X9803211Y-19477899D02*
X9784163Y-19506471D01*
X9784163Y-19506471D02*
X9774639Y-19544566D01*
X9774639Y-19544566D02*
X9774639Y-19620756D01*
X9774639Y-19620756D02*
X9784163Y-19639804D01*
X9784163Y-19639804D02*
X9793687Y-19649328D01*
X9793687Y-19649328D02*
X9812735Y-19658852D01*
X9812735Y-19658852D02*
X9850830Y-19658852D01*
X9850830Y-19658852D02*
X9869878Y-19649328D01*
X9869878Y-19649328D02*
X9879401Y-19639804D01*
X9879401Y-19639804D02*
X9888925Y-19620756D01*
X9888925Y-19620756D02*
X9888925Y-19573137D01*
X9888925Y-19573137D02*
X9879401Y-19554090D01*
X9879401Y-19554090D02*
X9869878Y-19544566D01*
X9869878Y-19544566D02*
X9850830Y-19535042D01*
X9850830Y-19535042D02*
X9812735Y-19535042D01*
X9812735Y-19535042D02*
X9793687Y-19544566D01*
X9793687Y-19544566D02*
X9784163Y-19554090D01*
X9784163Y-19554090D02*
X9774639Y-19573137D01*
X10012735Y-19458852D02*
X10031782Y-19458852D01*
X10031782Y-19458852D02*
X10050830Y-19468375D01*
X10050830Y-19468375D02*
X10060354Y-19477899D01*
X10060354Y-19477899D02*
X10069878Y-19496947D01*
X10069878Y-19496947D02*
X10079401Y-19535042D01*
X10079401Y-19535042D02*
X10079401Y-19582661D01*
X10079401Y-19582661D02*
X10069878Y-19620756D01*
X10069878Y-19620756D02*
X10060354Y-19639804D01*
X10060354Y-19639804D02*
X10050830Y-19649328D01*
X10050830Y-19649328D02*
X10031782Y-19658852D01*
X10031782Y-19658852D02*
X10012735Y-19658852D01*
X10012735Y-19658852D02*
X9993687Y-19649328D01*
X9993687Y-19649328D02*
X9984163Y-19639804D01*
X9984163Y-19639804D02*
X9974639Y-19620756D01*
X9974639Y-19620756D02*
X9965116Y-19582661D01*
X9965116Y-19582661D02*
X9965116Y-19535042D01*
X9965116Y-19535042D02*
X9974639Y-19496947D01*
X9974639Y-19496947D02*
X9984163Y-19477899D01*
X9984163Y-19477899D02*
X9993687Y-19468375D01*
X9993687Y-19468375D02*
X10012735Y-19458852D01*
X10317497Y-19658852D02*
X10317497Y-19458852D01*
X10403211Y-19658852D02*
X10403211Y-19554090D01*
X10403211Y-19554090D02*
X10393687Y-19535042D01*
X10393687Y-19535042D02*
X10374640Y-19525518D01*
X10374640Y-19525518D02*
X10346068Y-19525518D01*
X10346068Y-19525518D02*
X10327020Y-19535042D01*
X10327020Y-19535042D02*
X10317497Y-19544566D01*
X10527020Y-19658852D02*
X10507973Y-19649328D01*
X10507973Y-19649328D02*
X10498449Y-19639804D01*
X10498449Y-19639804D02*
X10488925Y-19620756D01*
X10488925Y-19620756D02*
X10488925Y-19563614D01*
X10488925Y-19563614D02*
X10498449Y-19544566D01*
X10498449Y-19544566D02*
X10507973Y-19535042D01*
X10507973Y-19535042D02*
X10527020Y-19525518D01*
X10527020Y-19525518D02*
X10555592Y-19525518D01*
X10555592Y-19525518D02*
X10574640Y-19535042D01*
X10574640Y-19535042D02*
X10584163Y-19544566D01*
X10584163Y-19544566D02*
X10593687Y-19563614D01*
X10593687Y-19563614D02*
X10593687Y-19620756D01*
X10593687Y-19620756D02*
X10584163Y-19639804D01*
X10584163Y-19639804D02*
X10574640Y-19649328D01*
X10574640Y-19649328D02*
X10555592Y-19658852D01*
X10555592Y-19658852D02*
X10527020Y-19658852D01*
X10707973Y-19658852D02*
X10688925Y-19649328D01*
X10688925Y-19649328D02*
X10679401Y-19630280D01*
X10679401Y-19630280D02*
X10679401Y-19458852D01*
X10860354Y-19649328D02*
X10841306Y-19658852D01*
X10841306Y-19658852D02*
X10803211Y-19658852D01*
X10803211Y-19658852D02*
X10784163Y-19649328D01*
X10784163Y-19649328D02*
X10774640Y-19630280D01*
X10774640Y-19630280D02*
X10774640Y-19554090D01*
X10774640Y-19554090D02*
X10784163Y-19535042D01*
X10784163Y-19535042D02*
X10803211Y-19525518D01*
X10803211Y-19525518D02*
X10841306Y-19525518D01*
X10841306Y-19525518D02*
X10860354Y-19535042D01*
X10860354Y-19535042D02*
X10869878Y-19554090D01*
X10869878Y-19554090D02*
X10869878Y-19573137D01*
X10869878Y-19573137D02*
X10774640Y-19592185D01*
X10946068Y-19649328D02*
X10965116Y-19658852D01*
X10965116Y-19658852D02*
X11003211Y-19658852D01*
X11003211Y-19658852D02*
X11022259Y-19649328D01*
X11022259Y-19649328D02*
X11031782Y-19630280D01*
X11031782Y-19630280D02*
X11031782Y-19620756D01*
X11031782Y-19620756D02*
X11022259Y-19601709D01*
X11022259Y-19601709D02*
X11003211Y-19592185D01*
X11003211Y-19592185D02*
X10974640Y-19592185D01*
X10974640Y-19592185D02*
X10955592Y-19582661D01*
X10955592Y-19582661D02*
X10946068Y-19563614D01*
X10946068Y-19563614D02*
X10946068Y-19554090D01*
X10946068Y-19554090D02*
X10955592Y-19535042D01*
X10955592Y-19535042D02*
X10974640Y-19525518D01*
X10974640Y-19525518D02*
X11003211Y-19525518D01*
X11003211Y-19525518D02*
X11022259Y-19535042D01*
X11098449Y-19735042D02*
X11107973Y-19725518D01*
X11107973Y-19725518D02*
X11127021Y-19696947D01*
X11127021Y-19696947D02*
X11136544Y-19677899D01*
X11136544Y-19677899D02*
X11146068Y-19649328D01*
X11146068Y-19649328D02*
X11155592Y-19601709D01*
X11155592Y-19601709D02*
X11155592Y-19563614D01*
X11155592Y-19563614D02*
X11146068Y-19515994D01*
X11146068Y-19515994D02*
X11136544Y-19487423D01*
X11136544Y-19487423D02*
X11127021Y-19468375D01*
X11127021Y-19468375D02*
X11107973Y-19439804D01*
X11107973Y-19439804D02*
X11098449Y-19430280D01*
X11460354Y-19735042D02*
X11450830Y-19725518D01*
X11450830Y-19725518D02*
X11431782Y-19696947D01*
X11431782Y-19696947D02*
X11422259Y-19677899D01*
X11422259Y-19677899D02*
X11412735Y-19649328D01*
X11412735Y-19649328D02*
X11403211Y-19601709D01*
X11403211Y-19601709D02*
X11403211Y-19563614D01*
X11403211Y-19563614D02*
X11412735Y-19515994D01*
X11412735Y-19515994D02*
X11422259Y-19487423D01*
X11422259Y-19487423D02*
X11431782Y-19468375D01*
X11431782Y-19468375D02*
X11450830Y-19439804D01*
X11450830Y-19439804D02*
X11460354Y-19430280D01*
X11536544Y-19525518D02*
X11536544Y-19658852D01*
X11536544Y-19544566D02*
X11546068Y-19535042D01*
X11546068Y-19535042D02*
X11565116Y-19525518D01*
X11565116Y-19525518D02*
X11593687Y-19525518D01*
X11593687Y-19525518D02*
X11612735Y-19535042D01*
X11612735Y-19535042D02*
X11622259Y-19554090D01*
X11622259Y-19554090D02*
X11622259Y-19658852D01*
X11746068Y-19658852D02*
X11727020Y-19649328D01*
X11727020Y-19649328D02*
X11717497Y-19639804D01*
X11717497Y-19639804D02*
X11707973Y-19620756D01*
X11707973Y-19620756D02*
X11707973Y-19563614D01*
X11707973Y-19563614D02*
X11717497Y-19544566D01*
X11717497Y-19544566D02*
X11727020Y-19535042D01*
X11727020Y-19535042D02*
X11746068Y-19525518D01*
X11746068Y-19525518D02*
X11774640Y-19525518D01*
X11774640Y-19525518D02*
X11793687Y-19535042D01*
X11793687Y-19535042D02*
X11803211Y-19544566D01*
X11803211Y-19544566D02*
X11812735Y-19563614D01*
X11812735Y-19563614D02*
X11812735Y-19620756D01*
X11812735Y-19620756D02*
X11803211Y-19639804D01*
X11803211Y-19639804D02*
X11793687Y-19649328D01*
X11793687Y-19649328D02*
X11774640Y-19658852D01*
X11774640Y-19658852D02*
X11746068Y-19658852D01*
X11869878Y-19525518D02*
X11946068Y-19525518D01*
X11898449Y-19458852D02*
X11898449Y-19630280D01*
X11898449Y-19630280D02*
X11907973Y-19649328D01*
X11907973Y-19649328D02*
X11927020Y-19658852D01*
X11927020Y-19658852D02*
X11946068Y-19658852D01*
X12165116Y-19525518D02*
X12165116Y-19725518D01*
X12165116Y-19535042D02*
X12184163Y-19525518D01*
X12184163Y-19525518D02*
X12222259Y-19525518D01*
X12222259Y-19525518D02*
X12241306Y-19535042D01*
X12241306Y-19535042D02*
X12250830Y-19544566D01*
X12250830Y-19544566D02*
X12260354Y-19563614D01*
X12260354Y-19563614D02*
X12260354Y-19620756D01*
X12260354Y-19620756D02*
X12250830Y-19639804D01*
X12250830Y-19639804D02*
X12241306Y-19649328D01*
X12241306Y-19649328D02*
X12222259Y-19658852D01*
X12222259Y-19658852D02*
X12184163Y-19658852D01*
X12184163Y-19658852D02*
X12165116Y-19649328D01*
X12374640Y-19658852D02*
X12355592Y-19649328D01*
X12355592Y-19649328D02*
X12346068Y-19630280D01*
X12346068Y-19630280D02*
X12346068Y-19458852D01*
X12536544Y-19658852D02*
X12536544Y-19554090D01*
X12536544Y-19554090D02*
X12527021Y-19535042D01*
X12527021Y-19535042D02*
X12507973Y-19525518D01*
X12507973Y-19525518D02*
X12469878Y-19525518D01*
X12469878Y-19525518D02*
X12450830Y-19535042D01*
X12536544Y-19649328D02*
X12517497Y-19658852D01*
X12517497Y-19658852D02*
X12469878Y-19658852D01*
X12469878Y-19658852D02*
X12450830Y-19649328D01*
X12450830Y-19649328D02*
X12441306Y-19630280D01*
X12441306Y-19630280D02*
X12441306Y-19611233D01*
X12441306Y-19611233D02*
X12450830Y-19592185D01*
X12450830Y-19592185D02*
X12469878Y-19582661D01*
X12469878Y-19582661D02*
X12517497Y-19582661D01*
X12517497Y-19582661D02*
X12536544Y-19573137D01*
X12603211Y-19525518D02*
X12679401Y-19525518D01*
X12631782Y-19458852D02*
X12631782Y-19630280D01*
X12631782Y-19630280D02*
X12641306Y-19649328D01*
X12641306Y-19649328D02*
X12660354Y-19658852D01*
X12660354Y-19658852D02*
X12679401Y-19658852D01*
X12822259Y-19649328D02*
X12803211Y-19658852D01*
X12803211Y-19658852D02*
X12765116Y-19658852D01*
X12765116Y-19658852D02*
X12746068Y-19649328D01*
X12746068Y-19649328D02*
X12736544Y-19630280D01*
X12736544Y-19630280D02*
X12736544Y-19554090D01*
X12736544Y-19554090D02*
X12746068Y-19535042D01*
X12746068Y-19535042D02*
X12765116Y-19525518D01*
X12765116Y-19525518D02*
X12803211Y-19525518D01*
X12803211Y-19525518D02*
X12822259Y-19535042D01*
X12822259Y-19535042D02*
X12831782Y-19554090D01*
X12831782Y-19554090D02*
X12831782Y-19573137D01*
X12831782Y-19573137D02*
X12736544Y-19592185D01*
X13003211Y-19658852D02*
X13003211Y-19458852D01*
X13003211Y-19649328D02*
X12984163Y-19658852D01*
X12984163Y-19658852D02*
X12946068Y-19658852D01*
X12946068Y-19658852D02*
X12927021Y-19649328D01*
X12927021Y-19649328D02*
X12917497Y-19639804D01*
X12917497Y-19639804D02*
X12907973Y-19620756D01*
X12907973Y-19620756D02*
X12907973Y-19563614D01*
X12907973Y-19563614D02*
X12917497Y-19544566D01*
X12917497Y-19544566D02*
X12927021Y-19535042D01*
X12927021Y-19535042D02*
X12946068Y-19525518D01*
X12946068Y-19525518D02*
X12984163Y-19525518D01*
X12984163Y-19525518D02*
X13003211Y-19535042D01*
X13079402Y-19735042D02*
X13088925Y-19725518D01*
X13088925Y-19725518D02*
X13107973Y-19696947D01*
X13107973Y-19696947D02*
X13117497Y-19677899D01*
X13117497Y-19677899D02*
X13127021Y-19649328D01*
X13127021Y-19649328D02*
X13136544Y-19601709D01*
X13136544Y-19601709D02*
X13136544Y-19563614D01*
X13136544Y-19563614D02*
X13127021Y-19515994D01*
X13127021Y-19515994D02*
X13117497Y-19487423D01*
X13117497Y-19487423D02*
X13107973Y-19468375D01*
X13107973Y-19468375D02*
X13088925Y-19439804D01*
X13088925Y-19439804D02*
X13079402Y-19430280D01*
X6132910Y-19857548D02*
G75*
G02*
X5932910Y-19857548I-100000J0D01*
G01*
X5932910Y-19857548D02*
G75*
G02*
X6132910Y-19857548I100000J0D01*
G01*
X6384163Y-19768079D02*
X6393687Y-19758555D01*
X6393687Y-19758555D02*
X6412734Y-19749032D01*
X6412734Y-19749032D02*
X6460353Y-19749032D01*
X6460353Y-19749032D02*
X6479401Y-19758555D01*
X6479401Y-19758555D02*
X6488925Y-19768079D01*
X6488925Y-19768079D02*
X6498449Y-19787127D01*
X6498449Y-19787127D02*
X6498449Y-19806174D01*
X6498449Y-19806174D02*
X6488925Y-19834746D01*
X6488925Y-19834746D02*
X6374639Y-19949032D01*
X6374639Y-19949032D02*
X6498449Y-19949032D01*
X6584163Y-19929984D02*
X6593687Y-19939508D01*
X6593687Y-19939508D02*
X6584163Y-19949032D01*
X6584163Y-19949032D02*
X6574639Y-19939508D01*
X6574639Y-19939508D02*
X6584163Y-19929984D01*
X6584163Y-19929984D02*
X6584163Y-19949032D01*
X6669877Y-19768079D02*
X6679401Y-19758555D01*
X6679401Y-19758555D02*
X6698449Y-19749032D01*
X6698449Y-19749032D02*
X6746068Y-19749032D01*
X6746068Y-19749032D02*
X6765115Y-19758555D01*
X6765115Y-19758555D02*
X6774639Y-19768079D01*
X6774639Y-19768079D02*
X6784163Y-19787127D01*
X6784163Y-19787127D02*
X6784163Y-19806174D01*
X6784163Y-19806174D02*
X6774639Y-19834746D01*
X6774639Y-19834746D02*
X6660353Y-19949032D01*
X6660353Y-19949032D02*
X6784163Y-19949032D01*
X6907972Y-19749032D02*
X6927020Y-19749032D01*
X6927020Y-19749032D02*
X6946068Y-19758555D01*
X6946068Y-19758555D02*
X6955591Y-19768079D01*
X6955591Y-19768079D02*
X6965115Y-19787127D01*
X6965115Y-19787127D02*
X6974639Y-19825222D01*
X6974639Y-19825222D02*
X6974639Y-19872841D01*
X6974639Y-19872841D02*
X6965115Y-19910936D01*
X6965115Y-19910936D02*
X6955591Y-19929984D01*
X6955591Y-19929984D02*
X6946068Y-19939508D01*
X6946068Y-19939508D02*
X6927020Y-19949032D01*
X6927020Y-19949032D02*
X6907972Y-19949032D01*
X6907972Y-19949032D02*
X6888925Y-19939508D01*
X6888925Y-19939508D02*
X6879401Y-19929984D01*
X6879401Y-19929984D02*
X6869877Y-19910936D01*
X6869877Y-19910936D02*
X6860353Y-19872841D01*
X6860353Y-19872841D02*
X6860353Y-19825222D01*
X6860353Y-19825222D02*
X6869877Y-19787127D01*
X6869877Y-19787127D02*
X6879401Y-19768079D01*
X6879401Y-19768079D02*
X6888925Y-19758555D01*
X6888925Y-19758555D02*
X6907972Y-19749032D01*
X7098449Y-19749032D02*
X7117496Y-19749032D01*
X7117496Y-19749032D02*
X7136544Y-19758555D01*
X7136544Y-19758555D02*
X7146068Y-19768079D01*
X7146068Y-19768079D02*
X7155591Y-19787127D01*
X7155591Y-19787127D02*
X7165115Y-19825222D01*
X7165115Y-19825222D02*
X7165115Y-19872841D01*
X7165115Y-19872841D02*
X7155591Y-19910936D01*
X7155591Y-19910936D02*
X7146068Y-19929984D01*
X7146068Y-19929984D02*
X7136544Y-19939508D01*
X7136544Y-19939508D02*
X7117496Y-19949032D01*
X7117496Y-19949032D02*
X7098449Y-19949032D01*
X7098449Y-19949032D02*
X7079401Y-19939508D01*
X7079401Y-19939508D02*
X7069877Y-19929984D01*
X7069877Y-19929984D02*
X7060353Y-19910936D01*
X7060353Y-19910936D02*
X7050830Y-19872841D01*
X7050830Y-19872841D02*
X7050830Y-19825222D01*
X7050830Y-19825222D02*
X7060353Y-19787127D01*
X7060353Y-19787127D02*
X7069877Y-19768079D01*
X7069877Y-19768079D02*
X7079401Y-19758555D01*
X7079401Y-19758555D02*
X7098449Y-19749032D01*
X7250830Y-19949032D02*
X7250830Y-19815698D01*
X7250830Y-19834746D02*
X7260353Y-19825222D01*
X7260353Y-19825222D02*
X7279401Y-19815698D01*
X7279401Y-19815698D02*
X7307972Y-19815698D01*
X7307972Y-19815698D02*
X7327020Y-19825222D01*
X7327020Y-19825222D02*
X7336544Y-19844270D01*
X7336544Y-19844270D02*
X7336544Y-19949032D01*
X7336544Y-19844270D02*
X7346068Y-19825222D01*
X7346068Y-19825222D02*
X7365115Y-19815698D01*
X7365115Y-19815698D02*
X7393687Y-19815698D01*
X7393687Y-19815698D02*
X7412734Y-19825222D01*
X7412734Y-19825222D02*
X7422258Y-19844270D01*
X7422258Y-19844270D02*
X7422258Y-19949032D01*
X7517496Y-19949032D02*
X7517496Y-19815698D01*
X7517496Y-19834746D02*
X7527020Y-19825222D01*
X7527020Y-19825222D02*
X7546068Y-19815698D01*
X7546068Y-19815698D02*
X7574639Y-19815698D01*
X7574639Y-19815698D02*
X7593687Y-19825222D01*
X7593687Y-19825222D02*
X7603211Y-19844270D01*
X7603211Y-19844270D02*
X7603211Y-19949032D01*
X7603211Y-19844270D02*
X7612734Y-19825222D01*
X7612734Y-19825222D02*
X7631782Y-19815698D01*
X7631782Y-19815698D02*
X7660353Y-19815698D01*
X7660353Y-19815698D02*
X7679401Y-19825222D01*
X7679401Y-19825222D02*
X7688925Y-19844270D01*
X7688925Y-19844270D02*
X7688925Y-19949032D01*
X8079401Y-19739508D02*
X7907973Y-19996651D01*
X8336544Y-19749032D02*
X8355592Y-19749032D01*
X8355592Y-19749032D02*
X8374639Y-19758555D01*
X8374639Y-19758555D02*
X8384163Y-19768079D01*
X8384163Y-19768079D02*
X8393687Y-19787127D01*
X8393687Y-19787127D02*
X8403211Y-19825222D01*
X8403211Y-19825222D02*
X8403211Y-19872841D01*
X8403211Y-19872841D02*
X8393687Y-19910936D01*
X8393687Y-19910936D02*
X8384163Y-19929984D01*
X8384163Y-19929984D02*
X8374639Y-19939508D01*
X8374639Y-19939508D02*
X8355592Y-19949032D01*
X8355592Y-19949032D02*
X8336544Y-19949032D01*
X8336544Y-19949032D02*
X8317496Y-19939508D01*
X8317496Y-19939508D02*
X8307973Y-19929984D01*
X8307973Y-19929984D02*
X8298449Y-19910936D01*
X8298449Y-19910936D02*
X8288925Y-19872841D01*
X8288925Y-19872841D02*
X8288925Y-19825222D01*
X8288925Y-19825222D02*
X8298449Y-19787127D01*
X8298449Y-19787127D02*
X8307973Y-19768079D01*
X8307973Y-19768079D02*
X8317496Y-19758555D01*
X8317496Y-19758555D02*
X8336544Y-19749032D01*
X8488925Y-19929984D02*
X8498449Y-19939508D01*
X8498449Y-19939508D02*
X8488925Y-19949032D01*
X8488925Y-19949032D02*
X8479401Y-19939508D01*
X8479401Y-19939508D02*
X8488925Y-19929984D01*
X8488925Y-19929984D02*
X8488925Y-19949032D01*
X8622258Y-19749032D02*
X8641306Y-19749032D01*
X8641306Y-19749032D02*
X8660354Y-19758555D01*
X8660354Y-19758555D02*
X8669877Y-19768079D01*
X8669877Y-19768079D02*
X8679401Y-19787127D01*
X8679401Y-19787127D02*
X8688925Y-19825222D01*
X8688925Y-19825222D02*
X8688925Y-19872841D01*
X8688925Y-19872841D02*
X8679401Y-19910936D01*
X8679401Y-19910936D02*
X8669877Y-19929984D01*
X8669877Y-19929984D02*
X8660354Y-19939508D01*
X8660354Y-19939508D02*
X8641306Y-19949032D01*
X8641306Y-19949032D02*
X8622258Y-19949032D01*
X8622258Y-19949032D02*
X8603211Y-19939508D01*
X8603211Y-19939508D02*
X8593687Y-19929984D01*
X8593687Y-19929984D02*
X8584163Y-19910936D01*
X8584163Y-19910936D02*
X8574639Y-19872841D01*
X8574639Y-19872841D02*
X8574639Y-19825222D01*
X8574639Y-19825222D02*
X8584163Y-19787127D01*
X8584163Y-19787127D02*
X8593687Y-19768079D01*
X8593687Y-19768079D02*
X8603211Y-19758555D01*
X8603211Y-19758555D02*
X8622258Y-19749032D01*
X8803211Y-19834746D02*
X8784163Y-19825222D01*
X8784163Y-19825222D02*
X8774639Y-19815698D01*
X8774639Y-19815698D02*
X8765116Y-19796651D01*
X8765116Y-19796651D02*
X8765116Y-19787127D01*
X8765116Y-19787127D02*
X8774639Y-19768079D01*
X8774639Y-19768079D02*
X8784163Y-19758555D01*
X8784163Y-19758555D02*
X8803211Y-19749032D01*
X8803211Y-19749032D02*
X8841306Y-19749032D01*
X8841306Y-19749032D02*
X8860354Y-19758555D01*
X8860354Y-19758555D02*
X8869877Y-19768079D01*
X8869877Y-19768079D02*
X8879401Y-19787127D01*
X8879401Y-19787127D02*
X8879401Y-19796651D01*
X8879401Y-19796651D02*
X8869877Y-19815698D01*
X8869877Y-19815698D02*
X8860354Y-19825222D01*
X8860354Y-19825222D02*
X8841306Y-19834746D01*
X8841306Y-19834746D02*
X8803211Y-19834746D01*
X8803211Y-19834746D02*
X8784163Y-19844270D01*
X8784163Y-19844270D02*
X8774639Y-19853794D01*
X8774639Y-19853794D02*
X8765116Y-19872841D01*
X8765116Y-19872841D02*
X8765116Y-19910936D01*
X8765116Y-19910936D02*
X8774639Y-19929984D01*
X8774639Y-19929984D02*
X8784163Y-19939508D01*
X8784163Y-19939508D02*
X8803211Y-19949032D01*
X8803211Y-19949032D02*
X8841306Y-19949032D01*
X8841306Y-19949032D02*
X8860354Y-19939508D01*
X8860354Y-19939508D02*
X8869877Y-19929984D01*
X8869877Y-19929984D02*
X8879401Y-19910936D01*
X8879401Y-19910936D02*
X8879401Y-19872841D01*
X8879401Y-19872841D02*
X8869877Y-19853794D01*
X8869877Y-19853794D02*
X8860354Y-19844270D01*
X8860354Y-19844270D02*
X8841306Y-19834746D01*
X9050830Y-19749032D02*
X9012735Y-19749032D01*
X9012735Y-19749032D02*
X8993687Y-19758555D01*
X8993687Y-19758555D02*
X8984163Y-19768079D01*
X8984163Y-19768079D02*
X8965116Y-19796651D01*
X8965116Y-19796651D02*
X8955592Y-19834746D01*
X8955592Y-19834746D02*
X8955592Y-19910936D01*
X8955592Y-19910936D02*
X8965116Y-19929984D01*
X8965116Y-19929984D02*
X8974639Y-19939508D01*
X8974639Y-19939508D02*
X8993687Y-19949032D01*
X8993687Y-19949032D02*
X9031782Y-19949032D01*
X9031782Y-19949032D02*
X9050830Y-19939508D01*
X9050830Y-19939508D02*
X9060354Y-19929984D01*
X9060354Y-19929984D02*
X9069877Y-19910936D01*
X9069877Y-19910936D02*
X9069877Y-19863317D01*
X9069877Y-19863317D02*
X9060354Y-19844270D01*
X9060354Y-19844270D02*
X9050830Y-19834746D01*
X9050830Y-19834746D02*
X9031782Y-19825222D01*
X9031782Y-19825222D02*
X8993687Y-19825222D01*
X8993687Y-19825222D02*
X8974639Y-19834746D01*
X8974639Y-19834746D02*
X8965116Y-19844270D01*
X8965116Y-19844270D02*
X8955592Y-19863317D01*
X9241306Y-19749032D02*
X9203211Y-19749032D01*
X9203211Y-19749032D02*
X9184163Y-19758555D01*
X9184163Y-19758555D02*
X9174639Y-19768079D01*
X9174639Y-19768079D02*
X9155592Y-19796651D01*
X9155592Y-19796651D02*
X9146068Y-19834746D01*
X9146068Y-19834746D02*
X9146068Y-19910936D01*
X9146068Y-19910936D02*
X9155592Y-19929984D01*
X9155592Y-19929984D02*
X9165116Y-19939508D01*
X9165116Y-19939508D02*
X9184163Y-19949032D01*
X9184163Y-19949032D02*
X9222258Y-19949032D01*
X9222258Y-19949032D02*
X9241306Y-19939508D01*
X9241306Y-19939508D02*
X9250830Y-19929984D01*
X9250830Y-19929984D02*
X9260354Y-19910936D01*
X9260354Y-19910936D02*
X9260354Y-19863317D01*
X9260354Y-19863317D02*
X9250830Y-19844270D01*
X9250830Y-19844270D02*
X9241306Y-19834746D01*
X9241306Y-19834746D02*
X9222258Y-19825222D01*
X9222258Y-19825222D02*
X9184163Y-19825222D01*
X9184163Y-19825222D02*
X9165116Y-19834746D01*
X9165116Y-19834746D02*
X9155592Y-19844270D01*
X9155592Y-19844270D02*
X9146068Y-19863317D01*
X9336544Y-19749032D02*
X9336544Y-19787127D01*
X9412735Y-19749032D02*
X9412735Y-19787127D01*
X9707973Y-20025222D02*
X9698449Y-20015698D01*
X9698449Y-20015698D02*
X9679401Y-19987127D01*
X9679401Y-19987127D02*
X9669878Y-19968079D01*
X9669878Y-19968079D02*
X9660354Y-19939508D01*
X9660354Y-19939508D02*
X9650830Y-19891889D01*
X9650830Y-19891889D02*
X9650830Y-19853794D01*
X9650830Y-19853794D02*
X9660354Y-19806174D01*
X9660354Y-19806174D02*
X9669878Y-19777603D01*
X9669878Y-19777603D02*
X9679401Y-19758555D01*
X9679401Y-19758555D02*
X9698449Y-19729984D01*
X9698449Y-19729984D02*
X9707973Y-19720460D01*
X9765116Y-19749032D02*
X9888925Y-19749032D01*
X9888925Y-19749032D02*
X9822258Y-19825222D01*
X9822258Y-19825222D02*
X9850830Y-19825222D01*
X9850830Y-19825222D02*
X9869878Y-19834746D01*
X9869878Y-19834746D02*
X9879401Y-19844270D01*
X9879401Y-19844270D02*
X9888925Y-19863317D01*
X9888925Y-19863317D02*
X9888925Y-19910936D01*
X9888925Y-19910936D02*
X9879401Y-19929984D01*
X9879401Y-19929984D02*
X9869878Y-19939508D01*
X9869878Y-19939508D02*
X9850830Y-19949032D01*
X9850830Y-19949032D02*
X9793687Y-19949032D01*
X9793687Y-19949032D02*
X9774639Y-19939508D01*
X9774639Y-19939508D02*
X9765116Y-19929984D01*
X10127020Y-19949032D02*
X10127020Y-19749032D01*
X10212735Y-19949032D02*
X10212735Y-19844270D01*
X10212735Y-19844270D02*
X10203211Y-19825222D01*
X10203211Y-19825222D02*
X10184163Y-19815698D01*
X10184163Y-19815698D02*
X10155592Y-19815698D01*
X10155592Y-19815698D02*
X10136544Y-19825222D01*
X10136544Y-19825222D02*
X10127020Y-19834746D01*
X10336544Y-19949032D02*
X10317497Y-19939508D01*
X10317497Y-19939508D02*
X10307973Y-19929984D01*
X10307973Y-19929984D02*
X10298449Y-19910936D01*
X10298449Y-19910936D02*
X10298449Y-19853794D01*
X10298449Y-19853794D02*
X10307973Y-19834746D01*
X10307973Y-19834746D02*
X10317497Y-19825222D01*
X10317497Y-19825222D02*
X10336544Y-19815698D01*
X10336544Y-19815698D02*
X10365116Y-19815698D01*
X10365116Y-19815698D02*
X10384163Y-19825222D01*
X10384163Y-19825222D02*
X10393687Y-19834746D01*
X10393687Y-19834746D02*
X10403211Y-19853794D01*
X10403211Y-19853794D02*
X10403211Y-19910936D01*
X10403211Y-19910936D02*
X10393687Y-19929984D01*
X10393687Y-19929984D02*
X10384163Y-19939508D01*
X10384163Y-19939508D02*
X10365116Y-19949032D01*
X10365116Y-19949032D02*
X10336544Y-19949032D01*
X10517497Y-19949032D02*
X10498449Y-19939508D01*
X10498449Y-19939508D02*
X10488925Y-19920460D01*
X10488925Y-19920460D02*
X10488925Y-19749032D01*
X10669878Y-19939508D02*
X10650830Y-19949032D01*
X10650830Y-19949032D02*
X10612735Y-19949032D01*
X10612735Y-19949032D02*
X10593687Y-19939508D01*
X10593687Y-19939508D02*
X10584163Y-19920460D01*
X10584163Y-19920460D02*
X10584163Y-19844270D01*
X10584163Y-19844270D02*
X10593687Y-19825222D01*
X10593687Y-19825222D02*
X10612735Y-19815698D01*
X10612735Y-19815698D02*
X10650830Y-19815698D01*
X10650830Y-19815698D02*
X10669878Y-19825222D01*
X10669878Y-19825222D02*
X10679401Y-19844270D01*
X10679401Y-19844270D02*
X10679401Y-19863317D01*
X10679401Y-19863317D02*
X10584163Y-19882365D01*
X10755592Y-19939508D02*
X10774640Y-19949032D01*
X10774640Y-19949032D02*
X10812735Y-19949032D01*
X10812735Y-19949032D02*
X10831782Y-19939508D01*
X10831782Y-19939508D02*
X10841306Y-19920460D01*
X10841306Y-19920460D02*
X10841306Y-19910936D01*
X10841306Y-19910936D02*
X10831782Y-19891889D01*
X10831782Y-19891889D02*
X10812735Y-19882365D01*
X10812735Y-19882365D02*
X10784163Y-19882365D01*
X10784163Y-19882365D02*
X10765116Y-19872841D01*
X10765116Y-19872841D02*
X10755592Y-19853794D01*
X10755592Y-19853794D02*
X10755592Y-19844270D01*
X10755592Y-19844270D02*
X10765116Y-19825222D01*
X10765116Y-19825222D02*
X10784163Y-19815698D01*
X10784163Y-19815698D02*
X10812735Y-19815698D01*
X10812735Y-19815698D02*
X10831782Y-19825222D01*
X10907973Y-20025222D02*
X10917497Y-20015698D01*
X10917497Y-20015698D02*
X10936544Y-19987127D01*
X10936544Y-19987127D02*
X10946068Y-19968079D01*
X10946068Y-19968079D02*
X10955592Y-19939508D01*
X10955592Y-19939508D02*
X10965116Y-19891889D01*
X10965116Y-19891889D02*
X10965116Y-19853794D01*
X10965116Y-19853794D02*
X10955592Y-19806174D01*
X10955592Y-19806174D02*
X10946068Y-19777603D01*
X10946068Y-19777603D02*
X10936544Y-19758555D01*
X10936544Y-19758555D02*
X10917497Y-19729984D01*
X10917497Y-19729984D02*
X10907973Y-19720460D01*
X11269878Y-20025222D02*
X11260354Y-20015698D01*
X11260354Y-20015698D02*
X11241306Y-19987127D01*
X11241306Y-19987127D02*
X11231782Y-19968079D01*
X11231782Y-19968079D02*
X11222259Y-19939508D01*
X11222259Y-19939508D02*
X11212735Y-19891889D01*
X11212735Y-19891889D02*
X11212735Y-19853794D01*
X11212735Y-19853794D02*
X11222259Y-19806174D01*
X11222259Y-19806174D02*
X11231782Y-19777603D01*
X11231782Y-19777603D02*
X11241306Y-19758555D01*
X11241306Y-19758555D02*
X11260354Y-19729984D01*
X11260354Y-19729984D02*
X11269878Y-19720460D01*
X11346068Y-19815698D02*
X11346068Y-19949032D01*
X11346068Y-19834746D02*
X11355592Y-19825222D01*
X11355592Y-19825222D02*
X11374639Y-19815698D01*
X11374639Y-19815698D02*
X11403211Y-19815698D01*
X11403211Y-19815698D02*
X11422259Y-19825222D01*
X11422259Y-19825222D02*
X11431782Y-19844270D01*
X11431782Y-19844270D02*
X11431782Y-19949032D01*
X11555592Y-19949032D02*
X11536544Y-19939508D01*
X11536544Y-19939508D02*
X11527020Y-19929984D01*
X11527020Y-19929984D02*
X11517497Y-19910936D01*
X11517497Y-19910936D02*
X11517497Y-19853794D01*
X11517497Y-19853794D02*
X11527020Y-19834746D01*
X11527020Y-19834746D02*
X11536544Y-19825222D01*
X11536544Y-19825222D02*
X11555592Y-19815698D01*
X11555592Y-19815698D02*
X11584163Y-19815698D01*
X11584163Y-19815698D02*
X11603211Y-19825222D01*
X11603211Y-19825222D02*
X11612735Y-19834746D01*
X11612735Y-19834746D02*
X11622259Y-19853794D01*
X11622259Y-19853794D02*
X11622259Y-19910936D01*
X11622259Y-19910936D02*
X11612735Y-19929984D01*
X11612735Y-19929984D02*
X11603211Y-19939508D01*
X11603211Y-19939508D02*
X11584163Y-19949032D01*
X11584163Y-19949032D02*
X11555592Y-19949032D01*
X11679401Y-19815698D02*
X11755592Y-19815698D01*
X11707973Y-19749032D02*
X11707973Y-19920460D01*
X11707973Y-19920460D02*
X11717497Y-19939508D01*
X11717497Y-19939508D02*
X11736544Y-19949032D01*
X11736544Y-19949032D02*
X11755592Y-19949032D01*
X11974640Y-19815698D02*
X11974640Y-20015698D01*
X11974640Y-19825222D02*
X11993687Y-19815698D01*
X11993687Y-19815698D02*
X12031782Y-19815698D01*
X12031782Y-19815698D02*
X12050830Y-19825222D01*
X12050830Y-19825222D02*
X12060354Y-19834746D01*
X12060354Y-19834746D02*
X12069878Y-19853794D01*
X12069878Y-19853794D02*
X12069878Y-19910936D01*
X12069878Y-19910936D02*
X12060354Y-19929984D01*
X12060354Y-19929984D02*
X12050830Y-19939508D01*
X12050830Y-19939508D02*
X12031782Y-19949032D01*
X12031782Y-19949032D02*
X11993687Y-19949032D01*
X11993687Y-19949032D02*
X11974640Y-19939508D01*
X12184163Y-19949032D02*
X12165116Y-19939508D01*
X12165116Y-19939508D02*
X12155592Y-19920460D01*
X12155592Y-19920460D02*
X12155592Y-19749032D01*
X12346068Y-19949032D02*
X12346068Y-19844270D01*
X12346068Y-19844270D02*
X12336544Y-19825222D01*
X12336544Y-19825222D02*
X12317497Y-19815698D01*
X12317497Y-19815698D02*
X12279401Y-19815698D01*
X12279401Y-19815698D02*
X12260354Y-19825222D01*
X12346068Y-19939508D02*
X12327021Y-19949032D01*
X12327021Y-19949032D02*
X12279401Y-19949032D01*
X12279401Y-19949032D02*
X12260354Y-19939508D01*
X12260354Y-19939508D02*
X12250830Y-19920460D01*
X12250830Y-19920460D02*
X12250830Y-19901413D01*
X12250830Y-19901413D02*
X12260354Y-19882365D01*
X12260354Y-19882365D02*
X12279401Y-19872841D01*
X12279401Y-19872841D02*
X12327021Y-19872841D01*
X12327021Y-19872841D02*
X12346068Y-19863317D01*
X12412735Y-19815698D02*
X12488925Y-19815698D01*
X12441306Y-19749032D02*
X12441306Y-19920460D01*
X12441306Y-19920460D02*
X12450830Y-19939508D01*
X12450830Y-19939508D02*
X12469878Y-19949032D01*
X12469878Y-19949032D02*
X12488925Y-19949032D01*
X12631782Y-19939508D02*
X12612735Y-19949032D01*
X12612735Y-19949032D02*
X12574640Y-19949032D01*
X12574640Y-19949032D02*
X12555592Y-19939508D01*
X12555592Y-19939508D02*
X12546068Y-19920460D01*
X12546068Y-19920460D02*
X12546068Y-19844270D01*
X12546068Y-19844270D02*
X12555592Y-19825222D01*
X12555592Y-19825222D02*
X12574640Y-19815698D01*
X12574640Y-19815698D02*
X12612735Y-19815698D01*
X12612735Y-19815698D02*
X12631782Y-19825222D01*
X12631782Y-19825222D02*
X12641306Y-19844270D01*
X12641306Y-19844270D02*
X12641306Y-19863317D01*
X12641306Y-19863317D02*
X12546068Y-19882365D01*
X12812735Y-19949032D02*
X12812735Y-19749032D01*
X12812735Y-19939508D02*
X12793687Y-19949032D01*
X12793687Y-19949032D02*
X12755592Y-19949032D01*
X12755592Y-19949032D02*
X12736544Y-19939508D01*
X12736544Y-19939508D02*
X12727021Y-19929984D01*
X12727021Y-19929984D02*
X12717497Y-19910936D01*
X12717497Y-19910936D02*
X12717497Y-19853794D01*
X12717497Y-19853794D02*
X12727021Y-19834746D01*
X12727021Y-19834746D02*
X12736544Y-19825222D01*
X12736544Y-19825222D02*
X12755592Y-19815698D01*
X12755592Y-19815698D02*
X12793687Y-19815698D01*
X12793687Y-19815698D02*
X12812735Y-19825222D01*
X12888925Y-20025222D02*
X12898449Y-20015698D01*
X12898449Y-20015698D02*
X12917497Y-19987127D01*
X12917497Y-19987127D02*
X12927021Y-19968079D01*
X12927021Y-19968079D02*
X12936544Y-19939508D01*
X12936544Y-19939508D02*
X12946068Y-19891889D01*
X12946068Y-19891889D02*
X12946068Y-19853794D01*
X12946068Y-19853794D02*
X12936544Y-19806174D01*
X12936544Y-19806174D02*
X12927021Y-19777603D01*
X12927021Y-19777603D02*
X12917497Y-19758555D01*
X12917497Y-19758555D02*
X12898449Y-19729984D01*
X12898449Y-19729984D02*
X12888925Y-19720460D01*
X6032910Y-20077548D02*
X6032910Y-20277548D01*
X5932910Y-20177548D02*
X6132910Y-20177548D01*
X6374639Y-20069032D02*
X6498449Y-20069032D01*
X6498449Y-20069032D02*
X6431782Y-20145222D01*
X6431782Y-20145222D02*
X6460353Y-20145222D01*
X6460353Y-20145222D02*
X6479401Y-20154746D01*
X6479401Y-20154746D02*
X6488925Y-20164270D01*
X6488925Y-20164270D02*
X6498449Y-20183317D01*
X6498449Y-20183317D02*
X6498449Y-20230936D01*
X6498449Y-20230936D02*
X6488925Y-20249984D01*
X6488925Y-20249984D02*
X6479401Y-20259508D01*
X6479401Y-20259508D02*
X6460353Y-20269032D01*
X6460353Y-20269032D02*
X6403210Y-20269032D01*
X6403210Y-20269032D02*
X6384163Y-20259508D01*
X6384163Y-20259508D02*
X6374639Y-20249984D01*
X6584163Y-20249984D02*
X6593687Y-20259508D01*
X6593687Y-20259508D02*
X6584163Y-20269032D01*
X6584163Y-20269032D02*
X6574639Y-20259508D01*
X6574639Y-20259508D02*
X6584163Y-20249984D01*
X6584163Y-20249984D02*
X6584163Y-20269032D01*
X6765115Y-20135698D02*
X6765115Y-20269032D01*
X6717496Y-20059508D02*
X6669877Y-20202365D01*
X6669877Y-20202365D02*
X6793687Y-20202365D01*
X6860353Y-20088079D02*
X6869877Y-20078555D01*
X6869877Y-20078555D02*
X6888925Y-20069032D01*
X6888925Y-20069032D02*
X6936544Y-20069032D01*
X6936544Y-20069032D02*
X6955591Y-20078555D01*
X6955591Y-20078555D02*
X6965115Y-20088079D01*
X6965115Y-20088079D02*
X6974639Y-20107127D01*
X6974639Y-20107127D02*
X6974639Y-20126174D01*
X6974639Y-20126174D02*
X6965115Y-20154746D01*
X6965115Y-20154746D02*
X6850830Y-20269032D01*
X6850830Y-20269032D02*
X6974639Y-20269032D01*
X7069877Y-20269032D02*
X7107972Y-20269032D01*
X7107972Y-20269032D02*
X7127020Y-20259508D01*
X7127020Y-20259508D02*
X7136544Y-20249984D01*
X7136544Y-20249984D02*
X7155591Y-20221413D01*
X7155591Y-20221413D02*
X7165115Y-20183317D01*
X7165115Y-20183317D02*
X7165115Y-20107127D01*
X7165115Y-20107127D02*
X7155591Y-20088079D01*
X7155591Y-20088079D02*
X7146068Y-20078555D01*
X7146068Y-20078555D02*
X7127020Y-20069032D01*
X7127020Y-20069032D02*
X7088925Y-20069032D01*
X7088925Y-20069032D02*
X7069877Y-20078555D01*
X7069877Y-20078555D02*
X7060353Y-20088079D01*
X7060353Y-20088079D02*
X7050830Y-20107127D01*
X7050830Y-20107127D02*
X7050830Y-20154746D01*
X7050830Y-20154746D02*
X7060353Y-20173794D01*
X7060353Y-20173794D02*
X7069877Y-20183317D01*
X7069877Y-20183317D02*
X7088925Y-20192841D01*
X7088925Y-20192841D02*
X7127020Y-20192841D01*
X7127020Y-20192841D02*
X7146068Y-20183317D01*
X7146068Y-20183317D02*
X7155591Y-20173794D01*
X7155591Y-20173794D02*
X7165115Y-20154746D01*
X7250830Y-20269032D02*
X7250830Y-20135698D01*
X7250830Y-20154746D02*
X7260353Y-20145222D01*
X7260353Y-20145222D02*
X7279401Y-20135698D01*
X7279401Y-20135698D02*
X7307972Y-20135698D01*
X7307972Y-20135698D02*
X7327020Y-20145222D01*
X7327020Y-20145222D02*
X7336544Y-20164270D01*
X7336544Y-20164270D02*
X7336544Y-20269032D01*
X7336544Y-20164270D02*
X7346068Y-20145222D01*
X7346068Y-20145222D02*
X7365115Y-20135698D01*
X7365115Y-20135698D02*
X7393687Y-20135698D01*
X7393687Y-20135698D02*
X7412734Y-20145222D01*
X7412734Y-20145222D02*
X7422258Y-20164270D01*
X7422258Y-20164270D02*
X7422258Y-20269032D01*
X7517496Y-20269032D02*
X7517496Y-20135698D01*
X7517496Y-20154746D02*
X7527020Y-20145222D01*
X7527020Y-20145222D02*
X7546068Y-20135698D01*
X7546068Y-20135698D02*
X7574639Y-20135698D01*
X7574639Y-20135698D02*
X7593687Y-20145222D01*
X7593687Y-20145222D02*
X7603211Y-20164270D01*
X7603211Y-20164270D02*
X7603211Y-20269032D01*
X7603211Y-20164270D02*
X7612734Y-20145222D01*
X7612734Y-20145222D02*
X7631782Y-20135698D01*
X7631782Y-20135698D02*
X7660353Y-20135698D01*
X7660353Y-20135698D02*
X7679401Y-20145222D01*
X7679401Y-20145222D02*
X7688925Y-20164270D01*
X7688925Y-20164270D02*
X7688925Y-20269032D01*
X8079401Y-20059508D02*
X7907973Y-20316651D01*
X8336544Y-20069032D02*
X8355592Y-20069032D01*
X8355592Y-20069032D02*
X8374639Y-20078555D01*
X8374639Y-20078555D02*
X8384163Y-20088079D01*
X8384163Y-20088079D02*
X8393687Y-20107127D01*
X8393687Y-20107127D02*
X8403211Y-20145222D01*
X8403211Y-20145222D02*
X8403211Y-20192841D01*
X8403211Y-20192841D02*
X8393687Y-20230936D01*
X8393687Y-20230936D02*
X8384163Y-20249984D01*
X8384163Y-20249984D02*
X8374639Y-20259508D01*
X8374639Y-20259508D02*
X8355592Y-20269032D01*
X8355592Y-20269032D02*
X8336544Y-20269032D01*
X8336544Y-20269032D02*
X8317496Y-20259508D01*
X8317496Y-20259508D02*
X8307973Y-20249984D01*
X8307973Y-20249984D02*
X8298449Y-20230936D01*
X8298449Y-20230936D02*
X8288925Y-20192841D01*
X8288925Y-20192841D02*
X8288925Y-20145222D01*
X8288925Y-20145222D02*
X8298449Y-20107127D01*
X8298449Y-20107127D02*
X8307973Y-20088079D01*
X8307973Y-20088079D02*
X8317496Y-20078555D01*
X8317496Y-20078555D02*
X8336544Y-20069032D01*
X8488925Y-20249984D02*
X8498449Y-20259508D01*
X8498449Y-20259508D02*
X8488925Y-20269032D01*
X8488925Y-20269032D02*
X8479401Y-20259508D01*
X8479401Y-20259508D02*
X8488925Y-20249984D01*
X8488925Y-20249984D02*
X8488925Y-20269032D01*
X8688925Y-20269032D02*
X8574639Y-20269032D01*
X8631782Y-20269032D02*
X8631782Y-20069032D01*
X8631782Y-20069032D02*
X8612735Y-20097603D01*
X8612735Y-20097603D02*
X8593687Y-20116651D01*
X8593687Y-20116651D02*
X8574639Y-20126174D01*
X8755592Y-20069032D02*
X8879401Y-20069032D01*
X8879401Y-20069032D02*
X8812735Y-20145222D01*
X8812735Y-20145222D02*
X8841306Y-20145222D01*
X8841306Y-20145222D02*
X8860354Y-20154746D01*
X8860354Y-20154746D02*
X8869877Y-20164270D01*
X8869877Y-20164270D02*
X8879401Y-20183317D01*
X8879401Y-20183317D02*
X8879401Y-20230936D01*
X8879401Y-20230936D02*
X8869877Y-20249984D01*
X8869877Y-20249984D02*
X8860354Y-20259508D01*
X8860354Y-20259508D02*
X8841306Y-20269032D01*
X8841306Y-20269032D02*
X8784163Y-20269032D01*
X8784163Y-20269032D02*
X8765116Y-20259508D01*
X8765116Y-20259508D02*
X8755592Y-20249984D01*
X9060354Y-20069032D02*
X8965116Y-20069032D01*
X8965116Y-20069032D02*
X8955592Y-20164270D01*
X8955592Y-20164270D02*
X8965116Y-20154746D01*
X8965116Y-20154746D02*
X8984163Y-20145222D01*
X8984163Y-20145222D02*
X9031782Y-20145222D01*
X9031782Y-20145222D02*
X9050830Y-20154746D01*
X9050830Y-20154746D02*
X9060354Y-20164270D01*
X9060354Y-20164270D02*
X9069877Y-20183317D01*
X9069877Y-20183317D02*
X9069877Y-20230936D01*
X9069877Y-20230936D02*
X9060354Y-20249984D01*
X9060354Y-20249984D02*
X9050830Y-20259508D01*
X9050830Y-20259508D02*
X9031782Y-20269032D01*
X9031782Y-20269032D02*
X8984163Y-20269032D01*
X8984163Y-20269032D02*
X8965116Y-20259508D01*
X8965116Y-20259508D02*
X8955592Y-20249984D01*
X9193687Y-20069032D02*
X9212735Y-20069032D01*
X9212735Y-20069032D02*
X9231782Y-20078555D01*
X9231782Y-20078555D02*
X9241306Y-20088079D01*
X9241306Y-20088079D02*
X9250830Y-20107127D01*
X9250830Y-20107127D02*
X9260354Y-20145222D01*
X9260354Y-20145222D02*
X9260354Y-20192841D01*
X9260354Y-20192841D02*
X9250830Y-20230936D01*
X9250830Y-20230936D02*
X9241306Y-20249984D01*
X9241306Y-20249984D02*
X9231782Y-20259508D01*
X9231782Y-20259508D02*
X9212735Y-20269032D01*
X9212735Y-20269032D02*
X9193687Y-20269032D01*
X9193687Y-20269032D02*
X9174639Y-20259508D01*
X9174639Y-20259508D02*
X9165116Y-20249984D01*
X9165116Y-20249984D02*
X9155592Y-20230936D01*
X9155592Y-20230936D02*
X9146068Y-20192841D01*
X9146068Y-20192841D02*
X9146068Y-20145222D01*
X9146068Y-20145222D02*
X9155592Y-20107127D01*
X9155592Y-20107127D02*
X9165116Y-20088079D01*
X9165116Y-20088079D02*
X9174639Y-20078555D01*
X9174639Y-20078555D02*
X9193687Y-20069032D01*
X9336544Y-20069032D02*
X9336544Y-20107127D01*
X9412735Y-20069032D02*
X9412735Y-20107127D01*
X9707973Y-20345222D02*
X9698449Y-20335698D01*
X9698449Y-20335698D02*
X9679401Y-20307127D01*
X9679401Y-20307127D02*
X9669878Y-20288079D01*
X9669878Y-20288079D02*
X9660354Y-20259508D01*
X9660354Y-20259508D02*
X9650830Y-20211889D01*
X9650830Y-20211889D02*
X9650830Y-20173794D01*
X9650830Y-20173794D02*
X9660354Y-20126174D01*
X9660354Y-20126174D02*
X9669878Y-20097603D01*
X9669878Y-20097603D02*
X9679401Y-20078555D01*
X9679401Y-20078555D02*
X9698449Y-20049984D01*
X9698449Y-20049984D02*
X9707973Y-20040460D01*
X9765116Y-20069032D02*
X9888925Y-20069032D01*
X9888925Y-20069032D02*
X9822258Y-20145222D01*
X9822258Y-20145222D02*
X9850830Y-20145222D01*
X9850830Y-20145222D02*
X9869878Y-20154746D01*
X9869878Y-20154746D02*
X9879401Y-20164270D01*
X9879401Y-20164270D02*
X9888925Y-20183317D01*
X9888925Y-20183317D02*
X9888925Y-20230936D01*
X9888925Y-20230936D02*
X9879401Y-20249984D01*
X9879401Y-20249984D02*
X9869878Y-20259508D01*
X9869878Y-20259508D02*
X9850830Y-20269032D01*
X9850830Y-20269032D02*
X9793687Y-20269032D01*
X9793687Y-20269032D02*
X9774639Y-20259508D01*
X9774639Y-20259508D02*
X9765116Y-20249984D01*
X10012735Y-20069032D02*
X10031782Y-20069032D01*
X10031782Y-20069032D02*
X10050830Y-20078555D01*
X10050830Y-20078555D02*
X10060354Y-20088079D01*
X10060354Y-20088079D02*
X10069878Y-20107127D01*
X10069878Y-20107127D02*
X10079401Y-20145222D01*
X10079401Y-20145222D02*
X10079401Y-20192841D01*
X10079401Y-20192841D02*
X10069878Y-20230936D01*
X10069878Y-20230936D02*
X10060354Y-20249984D01*
X10060354Y-20249984D02*
X10050830Y-20259508D01*
X10050830Y-20259508D02*
X10031782Y-20269032D01*
X10031782Y-20269032D02*
X10012735Y-20269032D01*
X10012735Y-20269032D02*
X9993687Y-20259508D01*
X9993687Y-20259508D02*
X9984163Y-20249984D01*
X9984163Y-20249984D02*
X9974639Y-20230936D01*
X9974639Y-20230936D02*
X9965116Y-20192841D01*
X9965116Y-20192841D02*
X9965116Y-20145222D01*
X9965116Y-20145222D02*
X9974639Y-20107127D01*
X9974639Y-20107127D02*
X9984163Y-20088079D01*
X9984163Y-20088079D02*
X9993687Y-20078555D01*
X9993687Y-20078555D02*
X10012735Y-20069032D01*
X10317497Y-20269032D02*
X10317497Y-20069032D01*
X10403211Y-20269032D02*
X10403211Y-20164270D01*
X10403211Y-20164270D02*
X10393687Y-20145222D01*
X10393687Y-20145222D02*
X10374640Y-20135698D01*
X10374640Y-20135698D02*
X10346068Y-20135698D01*
X10346068Y-20135698D02*
X10327020Y-20145222D01*
X10327020Y-20145222D02*
X10317497Y-20154746D01*
X10527020Y-20269032D02*
X10507973Y-20259508D01*
X10507973Y-20259508D02*
X10498449Y-20249984D01*
X10498449Y-20249984D02*
X10488925Y-20230936D01*
X10488925Y-20230936D02*
X10488925Y-20173794D01*
X10488925Y-20173794D02*
X10498449Y-20154746D01*
X10498449Y-20154746D02*
X10507973Y-20145222D01*
X10507973Y-20145222D02*
X10527020Y-20135698D01*
X10527020Y-20135698D02*
X10555592Y-20135698D01*
X10555592Y-20135698D02*
X10574640Y-20145222D01*
X10574640Y-20145222D02*
X10584163Y-20154746D01*
X10584163Y-20154746D02*
X10593687Y-20173794D01*
X10593687Y-20173794D02*
X10593687Y-20230936D01*
X10593687Y-20230936D02*
X10584163Y-20249984D01*
X10584163Y-20249984D02*
X10574640Y-20259508D01*
X10574640Y-20259508D02*
X10555592Y-20269032D01*
X10555592Y-20269032D02*
X10527020Y-20269032D01*
X10707973Y-20269032D02*
X10688925Y-20259508D01*
X10688925Y-20259508D02*
X10679401Y-20240460D01*
X10679401Y-20240460D02*
X10679401Y-20069032D01*
X10860354Y-20259508D02*
X10841306Y-20269032D01*
X10841306Y-20269032D02*
X10803211Y-20269032D01*
X10803211Y-20269032D02*
X10784163Y-20259508D01*
X10784163Y-20259508D02*
X10774640Y-20240460D01*
X10774640Y-20240460D02*
X10774640Y-20164270D01*
X10774640Y-20164270D02*
X10784163Y-20145222D01*
X10784163Y-20145222D02*
X10803211Y-20135698D01*
X10803211Y-20135698D02*
X10841306Y-20135698D01*
X10841306Y-20135698D02*
X10860354Y-20145222D01*
X10860354Y-20145222D02*
X10869878Y-20164270D01*
X10869878Y-20164270D02*
X10869878Y-20183317D01*
X10869878Y-20183317D02*
X10774640Y-20202365D01*
X10946068Y-20259508D02*
X10965116Y-20269032D01*
X10965116Y-20269032D02*
X11003211Y-20269032D01*
X11003211Y-20269032D02*
X11022259Y-20259508D01*
X11022259Y-20259508D02*
X11031782Y-20240460D01*
X11031782Y-20240460D02*
X11031782Y-20230936D01*
X11031782Y-20230936D02*
X11022259Y-20211889D01*
X11022259Y-20211889D02*
X11003211Y-20202365D01*
X11003211Y-20202365D02*
X10974640Y-20202365D01*
X10974640Y-20202365D02*
X10955592Y-20192841D01*
X10955592Y-20192841D02*
X10946068Y-20173794D01*
X10946068Y-20173794D02*
X10946068Y-20164270D01*
X10946068Y-20164270D02*
X10955592Y-20145222D01*
X10955592Y-20145222D02*
X10974640Y-20135698D01*
X10974640Y-20135698D02*
X11003211Y-20135698D01*
X11003211Y-20135698D02*
X11022259Y-20145222D01*
X11098449Y-20345222D02*
X11107973Y-20335698D01*
X11107973Y-20335698D02*
X11127021Y-20307127D01*
X11127021Y-20307127D02*
X11136544Y-20288079D01*
X11136544Y-20288079D02*
X11146068Y-20259508D01*
X11146068Y-20259508D02*
X11155592Y-20211889D01*
X11155592Y-20211889D02*
X11155592Y-20173794D01*
X11155592Y-20173794D02*
X11146068Y-20126174D01*
X11146068Y-20126174D02*
X11136544Y-20097603D01*
X11136544Y-20097603D02*
X11127021Y-20078555D01*
X11127021Y-20078555D02*
X11107973Y-20049984D01*
X11107973Y-20049984D02*
X11098449Y-20040460D01*
X11460354Y-20345222D02*
X11450830Y-20335698D01*
X11450830Y-20335698D02*
X11431782Y-20307127D01*
X11431782Y-20307127D02*
X11422259Y-20288079D01*
X11422259Y-20288079D02*
X11412735Y-20259508D01*
X11412735Y-20259508D02*
X11403211Y-20211889D01*
X11403211Y-20211889D02*
X11403211Y-20173794D01*
X11403211Y-20173794D02*
X11412735Y-20126174D01*
X11412735Y-20126174D02*
X11422259Y-20097603D01*
X11422259Y-20097603D02*
X11431782Y-20078555D01*
X11431782Y-20078555D02*
X11450830Y-20049984D01*
X11450830Y-20049984D02*
X11460354Y-20040460D01*
X11536544Y-20135698D02*
X11536544Y-20269032D01*
X11536544Y-20154746D02*
X11546068Y-20145222D01*
X11546068Y-20145222D02*
X11565116Y-20135698D01*
X11565116Y-20135698D02*
X11593687Y-20135698D01*
X11593687Y-20135698D02*
X11612735Y-20145222D01*
X11612735Y-20145222D02*
X11622259Y-20164270D01*
X11622259Y-20164270D02*
X11622259Y-20269032D01*
X11746068Y-20269032D02*
X11727020Y-20259508D01*
X11727020Y-20259508D02*
X11717497Y-20249984D01*
X11717497Y-20249984D02*
X11707973Y-20230936D01*
X11707973Y-20230936D02*
X11707973Y-20173794D01*
X11707973Y-20173794D02*
X11717497Y-20154746D01*
X11717497Y-20154746D02*
X11727020Y-20145222D01*
X11727020Y-20145222D02*
X11746068Y-20135698D01*
X11746068Y-20135698D02*
X11774640Y-20135698D01*
X11774640Y-20135698D02*
X11793687Y-20145222D01*
X11793687Y-20145222D02*
X11803211Y-20154746D01*
X11803211Y-20154746D02*
X11812735Y-20173794D01*
X11812735Y-20173794D02*
X11812735Y-20230936D01*
X11812735Y-20230936D02*
X11803211Y-20249984D01*
X11803211Y-20249984D02*
X11793687Y-20259508D01*
X11793687Y-20259508D02*
X11774640Y-20269032D01*
X11774640Y-20269032D02*
X11746068Y-20269032D01*
X11869878Y-20135698D02*
X11946068Y-20135698D01*
X11898449Y-20069032D02*
X11898449Y-20240460D01*
X11898449Y-20240460D02*
X11907973Y-20259508D01*
X11907973Y-20259508D02*
X11927020Y-20269032D01*
X11927020Y-20269032D02*
X11946068Y-20269032D01*
X12165116Y-20135698D02*
X12165116Y-20335698D01*
X12165116Y-20145222D02*
X12184163Y-20135698D01*
X12184163Y-20135698D02*
X12222259Y-20135698D01*
X12222259Y-20135698D02*
X12241306Y-20145222D01*
X12241306Y-20145222D02*
X12250830Y-20154746D01*
X12250830Y-20154746D02*
X12260354Y-20173794D01*
X12260354Y-20173794D02*
X12260354Y-20230936D01*
X12260354Y-20230936D02*
X12250830Y-20249984D01*
X12250830Y-20249984D02*
X12241306Y-20259508D01*
X12241306Y-20259508D02*
X12222259Y-20269032D01*
X12222259Y-20269032D02*
X12184163Y-20269032D01*
X12184163Y-20269032D02*
X12165116Y-20259508D01*
X12374640Y-20269032D02*
X12355592Y-20259508D01*
X12355592Y-20259508D02*
X12346068Y-20240460D01*
X12346068Y-20240460D02*
X12346068Y-20069032D01*
X12536544Y-20269032D02*
X12536544Y-20164270D01*
X12536544Y-20164270D02*
X12527021Y-20145222D01*
X12527021Y-20145222D02*
X12507973Y-20135698D01*
X12507973Y-20135698D02*
X12469878Y-20135698D01*
X12469878Y-20135698D02*
X12450830Y-20145222D01*
X12536544Y-20259508D02*
X12517497Y-20269032D01*
X12517497Y-20269032D02*
X12469878Y-20269032D01*
X12469878Y-20269032D02*
X12450830Y-20259508D01*
X12450830Y-20259508D02*
X12441306Y-20240460D01*
X12441306Y-20240460D02*
X12441306Y-20221413D01*
X12441306Y-20221413D02*
X12450830Y-20202365D01*
X12450830Y-20202365D02*
X12469878Y-20192841D01*
X12469878Y-20192841D02*
X12517497Y-20192841D01*
X12517497Y-20192841D02*
X12536544Y-20183317D01*
X12603211Y-20135698D02*
X12679401Y-20135698D01*
X12631782Y-20069032D02*
X12631782Y-20240460D01*
X12631782Y-20240460D02*
X12641306Y-20259508D01*
X12641306Y-20259508D02*
X12660354Y-20269032D01*
X12660354Y-20269032D02*
X12679401Y-20269032D01*
X12822259Y-20259508D02*
X12803211Y-20269032D01*
X12803211Y-20269032D02*
X12765116Y-20269032D01*
X12765116Y-20269032D02*
X12746068Y-20259508D01*
X12746068Y-20259508D02*
X12736544Y-20240460D01*
X12736544Y-20240460D02*
X12736544Y-20164270D01*
X12736544Y-20164270D02*
X12746068Y-20145222D01*
X12746068Y-20145222D02*
X12765116Y-20135698D01*
X12765116Y-20135698D02*
X12803211Y-20135698D01*
X12803211Y-20135698D02*
X12822259Y-20145222D01*
X12822259Y-20145222D02*
X12831782Y-20164270D01*
X12831782Y-20164270D02*
X12831782Y-20183317D01*
X12831782Y-20183317D02*
X12736544Y-20202365D01*
X13003211Y-20269032D02*
X13003211Y-20069032D01*
X13003211Y-20259508D02*
X12984163Y-20269032D01*
X12984163Y-20269032D02*
X12946068Y-20269032D01*
X12946068Y-20269032D02*
X12927021Y-20259508D01*
X12927021Y-20259508D02*
X12917497Y-20249984D01*
X12917497Y-20249984D02*
X12907973Y-20230936D01*
X12907973Y-20230936D02*
X12907973Y-20173794D01*
X12907973Y-20173794D02*
X12917497Y-20154746D01*
X12917497Y-20154746D02*
X12927021Y-20145222D01*
X12927021Y-20145222D02*
X12946068Y-20135698D01*
X12946068Y-20135698D02*
X12984163Y-20135698D01*
X12984163Y-20135698D02*
X13003211Y-20145222D01*
X13079402Y-20345222D02*
X13088925Y-20335698D01*
X13088925Y-20335698D02*
X13107973Y-20307127D01*
X13107973Y-20307127D02*
X13117497Y-20288079D01*
X13117497Y-20288079D02*
X13127021Y-20259508D01*
X13127021Y-20259508D02*
X13136544Y-20211889D01*
X13136544Y-20211889D02*
X13136544Y-20173794D01*
X13136544Y-20173794D02*
X13127021Y-20126174D01*
X13127021Y-20126174D02*
X13117497Y-20097603D01*
X13117497Y-20097603D02*
X13107973Y-20078555D01*
X13107973Y-20078555D02*
X13088925Y-20049984D01*
X13088925Y-20049984D02*
X13079402Y-20040460D01*
M02*
