%TF.GenerationSoftware,KiCad,Pcbnew,9.0.1-1.fc42*%
%TF.CreationDate,2025-04-18T11:34:58+10:00*%
%TF.ProjectId,iiwi,69697769-2e6b-4696-9361-645f70636258,0.1*%
%TF.SameCoordinates,Original*%
%TF.FileFunction,Soldermask,Bot*%
%TF.FilePolarity,Negative*%
%FSLAX46Y46*%
G04 Gerber Fmt 4.6, Leading zero omitted, Abs format (unit mm)*
G04 Created by KiCad (PCBNEW 9.0.1-1.fc42) date 2025-04-18 11:34:58*
%MOMM*%
%LPD*%
G01*
G04 APERTURE LIST*
%ADD10C,1.801800*%
%ADD11C,3.529000*%
%ADD12C,2.132000*%
%ADD13C,2.300000*%
%ADD14O,2.850000X1.900000*%
%ADD15O,1.600000X1.600000*%
%ADD16C,1.852600*%
G04 APERTURE END LIST*
D10*
%TO.C,SW12*%
X123274361Y-136796013D03*
D11*
X128373866Y-138856349D03*
D12*
X130584054Y-133385999D03*
D10*
X133473371Y-140916685D03*
D12*
X134433294Y-137206062D03*
%TD*%
D13*
%TO.C,PAD1*%
X205669356Y-148224010D03*
%TD*%
D10*
%TO.C,S14*%
X268428868Y-138769642D03*
D11*
X273765494Y-137439074D03*
D12*
X272338158Y-131714328D03*
D10*
X279102120Y-136108506D03*
D12*
X277697669Y-132542342D03*
%TD*%
D10*
%TO.C,SW1*%
X99745627Y-90952829D03*
D11*
X104945997Y-92743459D03*
D12*
X106866858Y-87164938D03*
D10*
X110146367Y-94534089D03*
D12*
X110910744Y-90778307D03*
%TD*%
D10*
%TO.C,S27*%
X150443341Y-171177845D03*
D11*
X154194328Y-175200296D03*
D12*
X158509305Y-171176548D03*
D10*
X157945315Y-179222747D03*
D12*
X160383475Y-176265453D03*
%TD*%
D10*
%TO.C,SW26*%
X197970847Y-108469380D03*
D11*
X203070345Y-106409029D03*
D12*
X200860199Y-100938661D03*
D10*
X208169843Y-104348678D03*
D12*
X206282749Y-101012693D03*
%TD*%
D10*
%TO.C,SW27*%
X213476825Y-97475980D03*
D11*
X218576323Y-95415629D03*
D12*
X216366177Y-89945261D03*
D10*
X223675821Y-93355278D03*
D12*
X221788727Y-90019293D03*
%TD*%
D10*
%TO.C,SW3*%
X136385599Y-104344532D03*
D11*
X141485104Y-106404868D03*
D12*
X143695292Y-100934518D03*
D10*
X146584609Y-108465204D03*
D12*
X147544532Y-104754581D03*
%TD*%
D10*
%TO.C,SW6*%
X114315981Y-109583592D03*
D11*
X119415486Y-111643928D03*
D12*
X121625674Y-106173578D03*
D10*
X124514991Y-113704264D03*
D12*
X125474914Y-109993641D03*
%TD*%
D10*
%TO.C,S14*%
X209776197Y-158235245D03*
D11*
X205383700Y-161545227D03*
D12*
X208934410Y-166257180D03*
D10*
X200991203Y-164855209D03*
D12*
X203677419Y-167589115D03*
%TD*%
D10*
%TO.C,SW10*%
X88350718Y-124045993D03*
D11*
X93551088Y-125836623D03*
D12*
X95471949Y-120258102D03*
D10*
X98751458Y-127627253D03*
D12*
X99515835Y-123871471D03*
%TD*%
D10*
%TO.C,SW19*%
X245797571Y-127627276D03*
D11*
X250997916Y-125836648D03*
D12*
X249077091Y-120258103D03*
D10*
X256198261Y-124046020D03*
D12*
X254488335Y-120615817D03*
%TD*%
D10*
%TO.C,SW21*%
X190644972Y-139734038D03*
D11*
X195744470Y-137673687D03*
D12*
X193534324Y-132203319D03*
D10*
X200843968Y-135613336D03*
D12*
X198956874Y-132277351D03*
%TD*%
D10*
%TO.C,SW22*%
X204520064Y-124690958D03*
D11*
X209619562Y-122630607D03*
D12*
X207409416Y-117160239D03*
D10*
X214719060Y-120570256D03*
D12*
X212831966Y-117234271D03*
%TD*%
D10*
%TO.C,SW23*%
X220034023Y-113704287D03*
D11*
X225133521Y-111643936D03*
D12*
X222923375Y-106173568D03*
D10*
X230233019Y-109583585D03*
D12*
X228345925Y-106247600D03*
%TD*%
D13*
%TO.C,PAD1*%
X138879665Y-148224009D03*
%TD*%
D10*
%TO.C,SW2*%
X120871598Y-93357901D03*
D11*
X125971103Y-95418237D03*
D12*
X128181291Y-89947887D03*
D10*
X131070608Y-97478573D03*
D12*
X132030531Y-93767950D03*
%TD*%
D10*
%TO.C,SW9*%
X69680541Y-119128320D03*
D11*
X75017161Y-120458896D03*
D12*
X76444519Y-114734186D03*
D10*
X80353781Y-121789472D03*
D12*
X80787939Y-117981363D03*
%TD*%
D10*
%TO.C,SW11*%
X107760316Y-125809365D03*
D11*
X112859821Y-127869701D03*
D12*
X115070009Y-122399351D03*
D10*
X117959326Y-129930037D03*
D12*
X118919249Y-126219414D03*
%TD*%
D10*
%TO.C,S1*%
X65446900Y-136108500D03*
D12*
X72210863Y-131714329D03*
D11*
X70783527Y-137439074D03*
D10*
X76120154Y-138769648D03*
D12*
X76554310Y-134961561D03*
%TD*%
D10*
%TO.C,S28*%
X186603695Y-179222731D03*
D11*
X190354691Y-175200294D03*
D12*
X186039748Y-171176514D03*
D10*
X194105687Y-171177857D03*
D12*
X190985520Y-168951922D03*
%TD*%
D10*
%TO.C,SW7*%
X129829942Y-120570275D03*
D11*
X134929447Y-122630611D03*
D12*
X137139635Y-117160261D03*
D10*
X140028952Y-124690947D03*
D12*
X140988875Y-120980324D03*
%TD*%
D10*
%TO.C,S15*%
X264195233Y-121789467D03*
D11*
X269531859Y-120458899D03*
D12*
X268104523Y-114734153D03*
D10*
X274868485Y-119128331D03*
D12*
X273464034Y-115562167D03*
%TD*%
D10*
%TO.C,SW24*%
X240093435Y-111074473D03*
D11*
X245293780Y-109283845D03*
D12*
X243372955Y-103705300D03*
D10*
X250494125Y-107493217D03*
D12*
X248784199Y-104063014D03*
%TD*%
D14*
%TO.C,U1*%
X164177687Y-136077949D03*
X164177653Y-138617970D03*
X164177661Y-141157982D03*
X164177674Y-143697959D03*
X164177684Y-146237961D03*
X164177672Y-148777965D03*
X164177646Y-151317948D03*
X180367645Y-151317989D03*
X180367679Y-148777968D03*
X180367671Y-146237956D03*
X180367658Y-143697979D03*
X180367648Y-141157977D03*
X180367660Y-138617973D03*
X180367686Y-136077990D03*
%TD*%
D10*
%TO.C,SW25*%
X184085904Y-123506260D03*
D11*
X189185402Y-121445909D03*
D12*
X186975256Y-115975541D03*
D10*
X194284900Y-119385558D03*
D12*
X192397806Y-116049573D03*
%TD*%
D15*
%TO.C,*%
X167931661Y-143276908D03*
%TD*%
D10*
%TO.C,SW5*%
X94048181Y-107499393D03*
D11*
X99248551Y-109290023D03*
D12*
X101169412Y-103711502D03*
D10*
X104448921Y-111080653D03*
D12*
X105213298Y-107324871D03*
%TD*%
D16*
%TO.C,D9*%
X165186145Y-156454311D03*
X167726141Y-156454311D03*
X170271139Y-156454311D03*
%TD*%
D10*
%TO.C,SW4*%
X150260689Y-119387653D03*
D11*
X155360194Y-121447989D03*
D12*
X157570382Y-115977639D03*
D10*
X160459699Y-123508325D03*
D12*
X161419622Y-119797702D03*
%TD*%
D10*
%TO.C,S14*%
X143546631Y-164855801D03*
D12*
X135603427Y-166257768D03*
D11*
X139154137Y-161545815D03*
D10*
X134761643Y-158235829D03*
D12*
X132874062Y-161571558D03*
%TD*%
D13*
%TO.C,PAD1*%
X138879665Y-148224009D03*
%TD*%
D10*
%TO.C,SW17*%
X211075648Y-140916674D03*
D11*
X216175146Y-138856323D03*
D12*
X213965000Y-133385955D03*
D10*
X221274644Y-136795972D03*
D12*
X219387550Y-133459987D03*
%TD*%
D10*
%TO.C,SW28*%
X234410893Y-94540980D03*
D11*
X239611238Y-92750352D03*
D12*
X237690413Y-87171807D03*
D10*
X244811583Y-90959724D03*
D12*
X243101657Y-87529521D03*
%TD*%
D10*
%TO.C,SW18*%
X226589614Y-129930045D03*
D11*
X231689112Y-127869694D03*
D12*
X229478966Y-122399326D03*
D10*
X236788610Y-125809343D03*
D12*
X234901516Y-122473358D03*
%TD*%
D10*
%TO.C,SW8*%
X143705067Y-135613378D03*
D11*
X148804572Y-137673714D03*
D12*
X151014760Y-132203364D03*
D10*
X153904077Y-139734050D03*
D12*
X154864000Y-136023427D03*
%TD*%
M02*
