%TF.GenerationSoftware,KiCad,Pcbnew,9.0.1-1.fc42*%
%TF.CreationDate,2025-04-18T11:34:46+10:00*%
%TF.ProjectId,iiwi,69697769-2e6b-4696-9361-645f70636258,0.1*%
%TF.SameCoordinates,Original*%
%TF.FileFunction,Drillmap*%
%TF.FilePolarity,Positive*%
%FSLAX45Y45*%
G04 Gerber Fmt 4.5, Leading zero omitted, Abs format (unit mm)*
G04 Created by KiCad (PCBNEW 9.0.1-1.fc42) date 2025-04-18 11:34:46*
%MOMM*%
%LPD*%
G01*
G04 APERTURE LIST*
%ADD10C,0.150000*%
%ADD11C,0.200000*%
%ADD12C,0.100000*%
%ADD13C,0.109220*%
%ADD14C,0.127000*%
G04 APERTURE END LIST*
D10*
X17705682Y-17992971D02*
G75*
G02*
X17698281Y-17780970I102298J109701D01*
G01*
X20056642Y-16087028D02*
G75*
G02*
X19999260Y-16087028I-28691J0D01*
G01*
X19999260Y-16087028D02*
G75*
G02*
X20056642Y-16087028I28691J0D01*
G01*
X18817740Y-16127465D02*
X15637689Y-16126665D01*
X19321151Y-10337507D02*
X19536550Y-10870638D01*
X16105880Y-12869918D02*
X16521260Y-11841815D01*
X24494941Y-13284295D02*
X24554996Y-13458707D01*
X19404038Y-10142239D02*
X20841173Y-9561599D01*
X26939395Y-14677393D02*
X28200779Y-14362894D01*
X14402451Y-16618545D02*
G75*
G02*
X14354748Y-16728245I-150001J5D01*
G01*
X16756624Y-17780968D02*
G75*
G02*
X16749223Y-17992974I-109704J-102302D01*
G01*
X27676331Y-12785355D02*
G75*
G02*
X27526332Y-12785355I-75000J0D01*
G01*
X27526332Y-12785355D02*
G75*
G02*
X27676331Y-12785355I75000J0D01*
G01*
X6928401Y-12786034D02*
G75*
G02*
X6778402Y-12786034I-75000J0D01*
G01*
X6778402Y-12786034D02*
G75*
G02*
X6928401Y-12786034I75000J0D01*
G01*
X16384035Y-13282299D02*
G75*
G02*
X16105876Y-12869916I-5J299999D01*
G01*
X10157979Y-13194053D02*
X11820767Y-13865863D01*
X12915279Y-16402598D02*
G75*
G02*
X12885753Y-16192527I90271J119798D01*
G01*
X24745659Y-13551699D02*
X26116661Y-13079625D01*
X18868444Y-18872165D02*
X20372660Y-17259091D01*
X19536550Y-10870638D02*
G75*
G02*
X19453665Y-11065909I-139080J-56192D01*
G01*
X22602757Y-14188619D02*
X22551249Y-14061131D01*
X20549651Y-17147529D02*
X20100151Y-16728248D01*
X20050151Y-16753248D02*
G75*
G02*
X20002450Y-16643545I102309J109708D01*
G01*
X13679751Y-15139129D02*
X14264833Y-15375189D01*
X14454141Y-16080129D02*
G75*
G02*
X14396760Y-16080129I-28691J0D01*
G01*
X14396760Y-16080129D02*
G75*
G02*
X14454141Y-16080129I28691J0D01*
G01*
X20872551Y-9238842D02*
X20924060Y-9366330D01*
X20100151Y-16728248D02*
G75*
G02*
X20052450Y-16618545I102309J109708D01*
G01*
X15798461Y-18879568D02*
G75*
G02*
X15586457Y-18872166I-102301J109708D01*
G01*
X13613729Y-9561598D02*
G75*
G02*
X13530841Y-9366329I56191J139078D01*
G01*
X28310035Y-14181062D02*
G75*
G02*
X28200779Y-14362895I-145545J-36288D01*
G01*
X26803065Y-13003085D02*
G75*
G02*
X26653065Y-13003085I-75000J0D01*
G01*
X26653065Y-13003085D02*
G75*
G02*
X26803065Y-13003085I75000J0D01*
G01*
X6459365Y-12919678D02*
X6144867Y-14181062D01*
X6677486Y-12664877D02*
G75*
G02*
X6641197Y-12810424I-18146J-72773D01*
G01*
X11935032Y-14383888D02*
G75*
G02*
X11852143Y-14188619I56188J139078D01*
G01*
X21568459Y-16192184D02*
G75*
G02*
X21538938Y-16402255I-119789J-90276D01*
G01*
X16438373Y-11646547D02*
G75*
G02*
X16521254Y-11841813I-56194J-139073D01*
G01*
X14082242Y-17259091D02*
G75*
G02*
X14089644Y-17047087I109698J102301D01*
G01*
X20056642Y-16387029D02*
G75*
G02*
X19999261Y-16387029I-28691J0D01*
G01*
X19999261Y-16387029D02*
G75*
G02*
X20056642Y-16387029I28691J0D01*
G01*
X9949803Y-8399309D02*
G75*
G02*
X10140467Y-8306315I141827J-48831D01*
G01*
X18349022Y-12869917D02*
G75*
G02*
X18070867Y-13282298I-278152J-112383D01*
G01*
X14452451Y-16643544D02*
G75*
G02*
X14404748Y-16753246I-150001J4D01*
G01*
X26443063Y-13306752D02*
X26757562Y-14568137D01*
X6882729Y-11221660D02*
G75*
G02*
X7064560Y-11112409I145541J-36290D01*
G01*
X21568459Y-16192184D02*
X20774751Y-15139529D01*
X20365257Y-17047089D02*
X20050151Y-16753248D01*
X15001239Y-11065907D02*
G75*
G02*
X14918353Y-10870639I56191J139077D01*
G01*
X8906103Y-11430433D02*
G75*
G02*
X8727988Y-11527138I-141823J48833D01*
G01*
X17705682Y-17992971D02*
X18656442Y-18879568D01*
X26116661Y-13079625D02*
X26116446Y-13079003D01*
X20053051Y-15603359D02*
G75*
G02*
X20002449Y-15603344I-25301J9D01*
G01*
X27886672Y-12483044D02*
X27572173Y-11221660D01*
X6459365Y-12919678D02*
G75*
G02*
X6641197Y-12810424I145545J-36292D01*
G01*
X24505099Y-8399309D02*
X25548799Y-11430433D01*
X20002451Y-16643545D02*
X20002351Y-16618461D01*
X9899906Y-13458707D02*
G75*
G02*
X9709244Y-13551696I-141826J48837D01*
G01*
X14264833Y-15325188D02*
G75*
G02*
X14452447Y-15603344I-112383J-278152D01*
G01*
X20056641Y-15787029D02*
G75*
G02*
X19999261Y-15787029I-28690J0D01*
G01*
X19999261Y-15787029D02*
G75*
G02*
X20056641Y-15787029I28690J0D01*
G01*
X20924060Y-9366330D02*
G75*
G02*
X20841173Y-9561599I-139080J-56190D01*
G01*
X20002351Y-16618461D02*
G75*
G02*
X20052449Y-16618545I25049J-39D01*
G01*
X14402451Y-16618545D02*
G75*
G02*
X14452549Y-16618629I25049J-45D01*
G01*
X14264833Y-15375189D02*
G75*
G02*
X14402447Y-15578344I-81143J-203151D01*
G01*
X20056641Y-15887029D02*
G75*
G02*
X19999260Y-15887029I-28691J0D01*
G01*
X19999260Y-15887029D02*
G75*
G02*
X20056641Y-15887029I28691J0D01*
G01*
X8338241Y-13079626D02*
X9709243Y-13551699D01*
X20872551Y-9238842D02*
G75*
G02*
X20955439Y-9043577I139069J56192D01*
G01*
X22160777Y-8556585D02*
X20955438Y-9043574D01*
X8906103Y-11430433D02*
X9949803Y-8399309D01*
X18817740Y-16127465D02*
G75*
G02*
X18941756Y-16448369I-11280J-188775D01*
G01*
X7902582Y-13124920D02*
G75*
G02*
X7938870Y-12979378I18148J72770D01*
G01*
X6254123Y-14362895D02*
G75*
G02*
X6144865Y-14181062I36287J145545D01*
G01*
X22160777Y-8556585D02*
G75*
G02*
X22356047Y-8639471I56193J-139075D01*
G01*
X20052451Y-15578344D02*
G75*
G02*
X20190068Y-15375186I218759J4D01*
G01*
X20365257Y-17047088D02*
G75*
G02*
X20372659Y-17259090I-102297J-109702D01*
G01*
X14452551Y-16618629D02*
X14452451Y-16643545D01*
X13613729Y-9561598D02*
X15050864Y-10142239D01*
X17933642Y-11841815D02*
X18349022Y-12869917D01*
X13530843Y-9366330D02*
X13582351Y-9238842D01*
X26939395Y-14677393D02*
G75*
G02*
X26757560Y-14568138I-36285J145553D01*
G01*
X24314436Y-8306316D02*
G75*
G02*
X24505095Y-8399310I48834J-141824D01*
G01*
X14454141Y-15780129D02*
G75*
G02*
X14396761Y-15780129I-28690J0D01*
G01*
X14396761Y-15780129D02*
G75*
G02*
X14454141Y-15780129I28690J0D01*
G01*
X15050864Y-10142239D02*
G75*
G02*
X15133753Y-10337508I-56194J-139081D01*
G01*
X12915279Y-16402598D02*
X13904351Y-17148429D01*
X6882728Y-11221660D02*
X6568230Y-12483044D01*
X14454141Y-16180129D02*
G75*
G02*
X14396761Y-16180129I-28690J0D01*
G01*
X14396761Y-16180129D02*
G75*
G02*
X14454141Y-16180129I28690J0D01*
G01*
X20190069Y-15375189D02*
X20774751Y-15139529D01*
X13499464Y-9043573D02*
G75*
G02*
X13582348Y-9238841I-56194J-139077D01*
G01*
X14404750Y-16753248D02*
X14089645Y-17047089D01*
X10140466Y-8306316D02*
X11843259Y-8892635D01*
X14454141Y-16380129D02*
G75*
G02*
X14396761Y-16380129I-28690J0D01*
G01*
X14396761Y-16380129D02*
G75*
G02*
X14454141Y-16380129I28690J0D01*
G01*
X26997124Y-12954700D02*
G75*
G02*
X26847124Y-12954700I-75000J0D01*
G01*
X26847124Y-12954700D02*
G75*
G02*
X26997124Y-12954700I75000J0D01*
G01*
X7064561Y-11112404D02*
X8727987Y-11527142D01*
X14402451Y-15578344D02*
X14401851Y-15603329D01*
X22611643Y-8892635D02*
G75*
G02*
X22423729Y-8806998I-48833J141835D01*
G01*
X7316520Y-12882802D02*
G75*
G02*
X7166520Y-12882802I-75000J0D01*
G01*
X7166520Y-12882802D02*
G75*
G02*
X7316520Y-12882802I75000J0D01*
G01*
X20053051Y-15603359D02*
X20052451Y-15578344D01*
X9959960Y-13284296D02*
G75*
G02*
X10157981Y-13194050I141830J-48834D01*
G01*
X11935032Y-14383888D02*
X14264833Y-15325189D01*
X7510578Y-12931187D02*
G75*
G02*
X7360579Y-12931187I-75000J0D01*
G01*
X7360579Y-12931187D02*
G75*
G02*
X7510578Y-12931187I75000J0D01*
G01*
X25726915Y-11527142D02*
X27390341Y-11112404D01*
X22634135Y-13865863D02*
X24296923Y-13194053D01*
X12098856Y-8639472D02*
X12031172Y-8806998D01*
X20056642Y-15987029D02*
G75*
G02*
X19999259Y-15987029I-28691J0D01*
G01*
X19999259Y-15987029D02*
G75*
G02*
X20056642Y-15987029I28691J0D01*
G01*
X13499464Y-9043573D02*
X12294125Y-8556585D01*
X22423730Y-8806998D02*
X22356045Y-8639472D01*
X15001239Y-11065907D02*
X16438373Y-11646547D01*
X20190069Y-15325189D02*
X22519870Y-14383888D01*
X12098856Y-8639472D02*
G75*
G02*
X12294124Y-8556589I139074J-56189D01*
G01*
X14918351Y-10870638D02*
X15133751Y-10337507D01*
X11903653Y-14061132D02*
X11852145Y-14188619D01*
X7902582Y-13124920D02*
G75*
G02*
X8011830Y-13306751I-36292J-145540D01*
G01*
X7938871Y-12979375D02*
X8338455Y-13079003D01*
X14454141Y-16280129D02*
G75*
G02*
X14396761Y-16280129I-28690J0D01*
G01*
X14396761Y-16280129D02*
G75*
G02*
X14454141Y-16280129I28690J0D01*
G01*
X22611643Y-8892635D02*
X24314436Y-8306316D01*
X26443064Y-13306753D02*
G75*
G02*
X26552319Y-13124918I145556J36283D01*
G01*
X12031172Y-8806998D02*
G75*
G02*
X11843257Y-8892641I-139082J56188D01*
G01*
X14082242Y-17259091D02*
X15586458Y-18872165D01*
X14454141Y-15880129D02*
G75*
G02*
X14396761Y-15880129I-28690J0D01*
G01*
X14396761Y-15880129D02*
G75*
G02*
X14454141Y-15880129I28690J0D01*
G01*
X9899906Y-13458707D02*
X9959960Y-13284295D01*
X7697340Y-14568137D02*
G75*
G02*
X7515508Y-14677389I-145540J36287D01*
G01*
X26116446Y-13079003D02*
X26515862Y-12978697D01*
X7801667Y-13003763D02*
G75*
G02*
X7651668Y-13003763I-74999J0D01*
G01*
X7651668Y-13003763D02*
G75*
G02*
X7801667Y-13003763I74999J0D01*
G01*
X19321151Y-10337507D02*
G75*
G02*
X19404040Y-10142243I139079J56187D01*
G01*
X27813704Y-12810422D02*
G75*
G02*
X27995537Y-12919678I36286J-145548D01*
G01*
X20002451Y-15603344D02*
G75*
G02*
X20190068Y-15325186I299999J4D01*
G01*
X14354751Y-16728248D02*
X13904351Y-17148429D01*
X7697340Y-14568137D02*
X8011838Y-13306753D01*
X22602757Y-14188619D02*
G75*
G02*
X22519870Y-14383887I-139077J-56191D01*
G01*
X20549651Y-17147529D02*
X21538935Y-16402251D01*
X14452451Y-15603344D02*
G75*
G02*
X14401849Y-15603329I-25301J14D01*
G01*
X7122460Y-12834418D02*
G75*
G02*
X6972461Y-12834418I-75000J0D01*
G01*
X6972461Y-12834418D02*
G75*
G02*
X7122460Y-12834418I75000J0D01*
G01*
X25726915Y-11527142D02*
G75*
G02*
X25548798Y-11430434I-36285J145552D01*
G01*
X27886672Y-12483045D02*
G75*
G02*
X27777416Y-12664879I-145552J-36285D01*
G01*
X14454141Y-15980129D02*
G75*
G02*
X14396760Y-15980129I-28691J0D01*
G01*
X14396760Y-15980129D02*
G75*
G02*
X14454141Y-15980129I28691J0D01*
G01*
X6254123Y-14362895D02*
X7515508Y-14677393D01*
X11820767Y-13865863D02*
G75*
G02*
X11903655Y-14061132I-56187J-139077D01*
G01*
X24296923Y-13194053D02*
G75*
G02*
X24494942Y-13284295I56187J-139087D01*
G01*
X22551249Y-14061131D02*
G75*
G02*
X22634136Y-13865866I139071J56192D01*
G01*
X18941749Y-16448362D02*
X17698278Y-17780967D01*
X20056642Y-16187029D02*
G75*
G02*
X19999261Y-16187029I-28691J0D01*
G01*
X19999261Y-16187029D02*
G75*
G02*
X20056642Y-16187029I28691J0D01*
G01*
X17933642Y-11841815D02*
G75*
G02*
X18016526Y-11646541I139078J56195D01*
G01*
X27191183Y-12906316D02*
G75*
G02*
X27041185Y-12906316I-74999J0D01*
G01*
X27041185Y-12906316D02*
G75*
G02*
X27191183Y-12906316I74999J0D01*
G01*
X27385243Y-12857931D02*
G75*
G02*
X27235242Y-12857931I-75000J0D01*
G01*
X27235242Y-12857931D02*
G75*
G02*
X27385243Y-12857931I75000J0D01*
G01*
X20056641Y-16287029D02*
G75*
G02*
X19999261Y-16287029I-28690J0D01*
G01*
X19999261Y-16287029D02*
G75*
G02*
X20056641Y-16287029I28690J0D01*
G01*
X24745659Y-13551700D02*
G75*
G02*
X24554996Y-13458707I-48839J141820D01*
G01*
X28310035Y-14181062D02*
X27995537Y-12919678D01*
X18868445Y-18872165D02*
G75*
G02*
X18656440Y-18879570I-109705J102295D01*
G01*
X15513679Y-16447562D02*
G75*
G02*
X15637689Y-16126674I135291J132123D01*
G01*
X18070867Y-13282300D02*
X16384035Y-13282299D01*
X26515862Y-12978697D02*
G75*
G02*
X26552151Y-13124245I18148J-72773D01*
G01*
X13679751Y-15139129D02*
X12885756Y-16192530D01*
X6677486Y-12664877D02*
G75*
G02*
X6568224Y-12483043I36284J145547D01*
G01*
X15798460Y-18879568D02*
X16749220Y-17992970D01*
X16756623Y-17780967D02*
X15513679Y-16447562D01*
X27813704Y-12810422D02*
G75*
G02*
X27777416Y-12664878I-18144J72772D01*
G01*
X8338455Y-13079003D02*
X8338241Y-13079626D01*
X27390341Y-11112404D02*
G75*
G02*
X27572169Y-11221661I36289J-145536D01*
G01*
X18016528Y-11646547D02*
X19453664Y-11065907D01*
D11*
D12*
X7685202Y-12585683D02*
X7725202Y-12625683D01*
X7725202Y-12585683D02*
X7685202Y-12625683D01*
X7819527Y-11954515D02*
X7859527Y-11994515D01*
X7859527Y-11954515D02*
X7819527Y-11994515D01*
X8014056Y-11925888D02*
X8054056Y-11965888D01*
X8054056Y-11925888D02*
X8014056Y-11965888D01*
X9889713Y-11874345D02*
X9929713Y-11914345D01*
X9929713Y-11874345D02*
X9889713Y-11914345D01*
X10055376Y-11694799D02*
X10095376Y-11734799D01*
X10095376Y-11694799D02*
X10055376Y-11734799D01*
X10169543Y-11676253D02*
X10209543Y-11716253D01*
X10209543Y-11676253D02*
X10169543Y-11716253D01*
X10332489Y-11798021D02*
X10372489Y-11838021D01*
X10372489Y-11798021D02*
X10332489Y-11838021D01*
X10572028Y-10157111D02*
X10612028Y-10197111D01*
X10612028Y-10157111D02*
X10572028Y-10197111D01*
X10627977Y-10031544D02*
X10667977Y-10071544D01*
X10667977Y-10031544D02*
X10627977Y-10071544D01*
X10676708Y-10207885D02*
X10716708Y-10247885D01*
X10716708Y-10207885D02*
X10676708Y-10247885D01*
X11029449Y-9773903D02*
X11069449Y-9813903D01*
X11069449Y-9773903D02*
X11029449Y-9813903D01*
X11828735Y-11940059D02*
X11868735Y-11980059D01*
X11868735Y-11940059D02*
X11828735Y-11980059D01*
X11923172Y-12074632D02*
X11963172Y-12114632D01*
X11963172Y-12074632D02*
X11923172Y-12114632D01*
X12128536Y-11968432D02*
X12168536Y-12008432D01*
X12168536Y-11968432D02*
X12128536Y-12008432D01*
X12725097Y-10220844D02*
X12765097Y-10260844D01*
X12765097Y-10220844D02*
X12725097Y-10260844D01*
X12765334Y-10397606D02*
X12805334Y-10437606D01*
X12805334Y-10397606D02*
X12765334Y-10437606D01*
X13349367Y-13107071D02*
X13389367Y-13147071D01*
X13389367Y-13107071D02*
X13349367Y-13147071D01*
X13711697Y-12988326D02*
X13751697Y-13028326D01*
X13751697Y-12988326D02*
X13711697Y-13028326D01*
X14172050Y-15703123D02*
X14212050Y-15743123D01*
X14212050Y-15703123D02*
X14172050Y-15743123D01*
X14250645Y-11382089D02*
X14290645Y-11422089D01*
X14290645Y-11382089D02*
X14250645Y-11422089D01*
X14282199Y-11574880D02*
X14322199Y-11614880D01*
X14322199Y-11574880D02*
X14282199Y-11614880D01*
X14595679Y-15522197D02*
X14635679Y-15562197D01*
X14635679Y-15522197D02*
X14595679Y-15562197D01*
X14595679Y-14453123D02*
X14635679Y-14493123D01*
X14635679Y-14453123D02*
X14595679Y-14493123D01*
X14798633Y-14772280D02*
X14838633Y-14812280D01*
X14838633Y-14772280D02*
X14798633Y-14812280D01*
X14798633Y-15464235D02*
X14838633Y-15504235D01*
X14838633Y-15464235D02*
X14798633Y-15504235D01*
X14819587Y-14621784D02*
X14859587Y-14661784D01*
X14859587Y-14621784D02*
X14819587Y-14661784D01*
X15341599Y-14806741D02*
X15381599Y-14846741D01*
X15381599Y-14806741D02*
X15341599Y-14846741D01*
X15540295Y-14661738D02*
X15580295Y-14701738D01*
X15580295Y-14661738D02*
X15540295Y-14701738D01*
X15586624Y-12957032D02*
X15626624Y-12997032D01*
X15626624Y-12957032D02*
X15586624Y-12997032D01*
X15631527Y-12818786D02*
X15671527Y-12858786D01*
X15671527Y-12818786D02*
X15631527Y-12858786D01*
X16874462Y-13840280D02*
X16914462Y-13880280D01*
X16914462Y-13840280D02*
X16874462Y-13880280D01*
X19079459Y-14577532D02*
X19119459Y-14617532D01*
X19119459Y-14577532D02*
X19079459Y-14617532D01*
X19354459Y-15561033D02*
X19394459Y-15601033D01*
X19394459Y-15561033D02*
X19354459Y-15601033D01*
X19354459Y-14349798D02*
X19394459Y-14389798D01*
X19394459Y-14349798D02*
X19354459Y-14389798D01*
X19482976Y-12496411D02*
X19522976Y-12536411D01*
X19522976Y-12496411D02*
X19482976Y-12536411D01*
X19519459Y-14427918D02*
X19559459Y-14467918D01*
X19559459Y-14427918D02*
X19519459Y-14467918D01*
X19519459Y-15454188D02*
X19559459Y-15494188D01*
X19559459Y-15454188D02*
X19519459Y-15494188D01*
X19622324Y-12580637D02*
X19662324Y-12620637D01*
X19662324Y-12580637D02*
X19622324Y-12620637D01*
X20148629Y-14462702D02*
X20188629Y-14502702D01*
X20188629Y-14462702D02*
X20148629Y-14502702D01*
X20183029Y-15799759D02*
X20223029Y-15839759D01*
X20223029Y-15799759D02*
X20183029Y-15839759D01*
X20821257Y-10934175D02*
X20861257Y-10974175D01*
X20861257Y-10934175D02*
X20821257Y-10974175D01*
X20975442Y-10988872D02*
X21015442Y-11028872D01*
X21015442Y-10988872D02*
X20975442Y-11028872D01*
X21454859Y-12954765D02*
X21494859Y-12994765D01*
X21494859Y-12954765D02*
X21454859Y-12994765D01*
X21493735Y-12777493D02*
X21533735Y-12817493D01*
X21533735Y-12777493D02*
X21493735Y-12817493D01*
X21694518Y-12759249D02*
X21734518Y-12799249D01*
X21734518Y-12759249D02*
X21694518Y-12799249D01*
X22450383Y-9971982D02*
X22490383Y-10011982D01*
X22490383Y-9971982D02*
X22450383Y-10011982D01*
X22599165Y-10068570D02*
X22639165Y-10108570D01*
X22639165Y-10068570D02*
X22599165Y-10108570D01*
X23059427Y-11703844D02*
X23099427Y-11743844D01*
X23099427Y-11703844D02*
X23059427Y-11743844D01*
X23113529Y-9704053D02*
X23153529Y-9744053D01*
X23153529Y-9704053D02*
X23113529Y-9744053D01*
X23204834Y-11566901D02*
X23244834Y-11606901D01*
X23244834Y-11566901D02*
X23204834Y-11606901D01*
X23784838Y-11652733D02*
X23824838Y-11692733D01*
X23824838Y-11652733D02*
X23784838Y-11692733D01*
X23842560Y-10048332D02*
X23882560Y-10088332D01*
X23882560Y-10048332D02*
X23842560Y-10088332D01*
X24355943Y-11539307D02*
X24395943Y-11579307D01*
X24395943Y-11539307D02*
X24355943Y-11579307D01*
X24513187Y-9687381D02*
X24553187Y-9727381D01*
X24553187Y-9687381D02*
X24513187Y-9727381D01*
X24630402Y-9722335D02*
X24670402Y-9762335D01*
X24670402Y-9722335D02*
X24630402Y-9762335D01*
X24970789Y-11604963D02*
X25010789Y-11644963D01*
X25010789Y-11604963D02*
X24970789Y-11644963D01*
X25030509Y-11474468D02*
X25070509Y-11514468D01*
X25070509Y-11474468D02*
X25030509Y-11514468D01*
X25279675Y-11615893D02*
X25319675Y-11655893D01*
X25319675Y-11615893D02*
X25279675Y-11655893D01*
X27174771Y-11649343D02*
X27214771Y-11689343D01*
X27214771Y-11649343D02*
X27174771Y-11689343D01*
X27269937Y-11715066D02*
X27309937Y-11755066D01*
X27309937Y-11715066D02*
X27269937Y-11755066D01*
X16838166Y-14327691D02*
G75*
G02*
X16748166Y-14327691I-45000J0D01*
G01*
X16748166Y-14327691D02*
G75*
G02*
X16838166Y-14327691I45000J0D01*
G01*
X16465265Y-15081795D02*
X16465265Y-15181795D01*
X16415265Y-15131795D02*
X16515265Y-15131795D01*
X16465265Y-13811797D02*
X16465265Y-13911797D01*
X16415265Y-13861797D02*
X16515265Y-13861797D01*
X16465266Y-14065798D02*
X16465266Y-14165798D01*
X16415266Y-14115798D02*
X16515266Y-14115798D01*
X16465267Y-14827796D02*
X16465267Y-14927796D01*
X16415267Y-14877796D02*
X16515267Y-14877796D01*
X16465267Y-14319796D02*
X16465267Y-14419796D01*
X16415267Y-14369796D02*
X16515267Y-14369796D01*
X16465268Y-14573796D02*
X16465268Y-14673796D01*
X16415268Y-14623796D02*
X16515268Y-14623796D01*
X16465269Y-13557795D02*
X16465269Y-13657795D01*
X16415269Y-13607795D02*
X16515269Y-13607795D01*
X17989265Y-15081799D02*
X17989265Y-15181799D01*
X17939265Y-15131799D02*
X18039265Y-15131799D01*
X17989265Y-14065798D02*
X17989265Y-14165798D01*
X17939265Y-14115798D02*
X18039265Y-14115798D01*
X17989266Y-14319798D02*
X17989266Y-14419798D01*
X17939266Y-14369798D02*
X18039266Y-14369798D01*
X17989266Y-13811797D02*
X17989266Y-13911797D01*
X17939266Y-13861797D02*
X18039266Y-13861797D01*
X17989267Y-14573796D02*
X17989267Y-14673796D01*
X17939267Y-14623796D02*
X18039267Y-14623796D01*
X17989268Y-14827797D02*
X17989268Y-14927797D01*
X17939268Y-14877797D02*
X18039268Y-14877797D01*
X17989269Y-13557799D02*
X17989269Y-13657799D01*
X17939269Y-13607799D02*
X18039269Y-13607799D01*
D13*
X16557230Y-15684047D02*
X16557230Y-15606816D01*
X16479999Y-15606816D01*
X16479999Y-15684047D01*
X16557230Y-15684047D01*
X16811230Y-15684047D02*
X16811230Y-15606816D01*
X16733999Y-15606816D01*
X16733999Y-15684047D01*
X16811230Y-15684047D01*
X17065729Y-15684047D02*
X17065729Y-15606816D01*
X16988498Y-15606816D01*
X16988498Y-15684047D01*
X17065729Y-15684047D01*
D14*
X7221086Y-13234933D02*
X7284586Y-13171433D01*
X7221086Y-13107933D01*
X7157586Y-13171433D01*
X7221086Y-13234933D01*
X7644452Y-11536919D02*
X7707952Y-11473419D01*
X7644452Y-11409919D01*
X7580952Y-11473419D01*
X7644452Y-11536919D01*
X7655431Y-13559656D02*
X7718931Y-13496156D01*
X7655431Y-13432656D01*
X7591931Y-13496156D01*
X7655431Y-13559656D01*
X8078794Y-11861636D02*
X8142294Y-11798136D01*
X8078794Y-11734636D01*
X8015294Y-11798136D01*
X8078794Y-11861636D01*
X9547195Y-12089310D02*
X9610695Y-12025810D01*
X9547195Y-11962310D01*
X9483695Y-12025810D01*
X9547195Y-12089310D01*
X9951584Y-12450647D02*
X10015084Y-12387147D01*
X9951584Y-12323647D01*
X9888084Y-12387147D01*
X9951584Y-12450647D01*
X10116941Y-10434650D02*
X10180441Y-10371150D01*
X10116941Y-10307650D01*
X10053441Y-10371150D01*
X10116941Y-10434650D01*
X10521330Y-10795987D02*
X10584830Y-10732487D01*
X10521330Y-10668987D01*
X10457830Y-10732487D01*
X10521330Y-10795987D01*
X10686686Y-8779994D02*
X10750186Y-8716494D01*
X10686686Y-8652994D01*
X10623186Y-8716494D01*
X10686686Y-8779994D01*
X11091074Y-9141331D02*
X11154574Y-9077831D01*
X11091074Y-9014331D01*
X11027574Y-9077831D01*
X11091074Y-9141331D01*
X11507001Y-12303435D02*
X11570501Y-12239935D01*
X11507001Y-12176435D01*
X11443501Y-12239935D01*
X11507001Y-12303435D01*
X11891925Y-12685441D02*
X11955425Y-12621941D01*
X11891925Y-12558441D01*
X11828425Y-12621941D01*
X11891925Y-12685441D01*
X12162567Y-10680858D02*
X12226067Y-10617358D01*
X12162567Y-10553858D01*
X12099067Y-10617358D01*
X12162567Y-10680858D01*
X12547491Y-11062864D02*
X12610991Y-10999364D01*
X12547491Y-10935864D01*
X12483991Y-10999364D01*
X12547491Y-11062864D01*
X12818129Y-9058289D02*
X12881629Y-8994789D01*
X12818129Y-8931289D01*
X12754629Y-8994789D01*
X12818129Y-9058289D01*
X13058405Y-13402100D02*
X13121905Y-13338600D01*
X13058405Y-13275100D01*
X12994905Y-13338600D01*
X13058405Y-13402100D01*
X13203053Y-9440295D02*
X13266553Y-9376795D01*
X13203053Y-9313295D01*
X13139553Y-9376795D01*
X13203053Y-9440295D01*
X13287406Y-16220656D02*
X13350906Y-16157156D01*
X13287406Y-16093656D01*
X13223906Y-16157156D01*
X13287406Y-16220656D01*
X13443329Y-13784106D02*
X13506829Y-13720606D01*
X13443329Y-13657106D01*
X13379829Y-13720606D01*
X13443329Y-13784106D01*
X13560343Y-16689277D02*
X13623843Y-16625777D01*
X13560343Y-16562277D01*
X13496843Y-16625777D01*
X13560343Y-16689277D01*
X13713963Y-11779526D02*
X13777463Y-11716026D01*
X13713963Y-11652526D01*
X13650463Y-11716026D01*
X13713963Y-11779526D01*
X14098887Y-12161532D02*
X14162387Y-12098032D01*
X14098887Y-12034532D01*
X14035387Y-12098032D01*
X14098887Y-12161532D01*
X14369529Y-10156952D02*
X14433029Y-10093452D01*
X14369529Y-10029952D01*
X14306029Y-10093452D01*
X14369529Y-10156952D01*
X14754453Y-10538958D02*
X14817953Y-10475458D01*
X14754453Y-10411958D01*
X14690953Y-10475458D01*
X14754453Y-10538958D01*
X15101476Y-13283836D02*
X15164976Y-13220336D01*
X15101476Y-13156836D01*
X15037976Y-13220336D01*
X15101476Y-13283836D01*
X15486400Y-13665843D02*
X15549900Y-13602343D01*
X15486400Y-13538843D01*
X15422900Y-13602343D01*
X15486400Y-13665843D01*
X15757038Y-11661264D02*
X15820538Y-11597764D01*
X15757038Y-11534264D01*
X15693538Y-11597764D01*
X15757038Y-11661264D01*
X15850930Y-17181155D02*
X15914430Y-17117655D01*
X15850930Y-17054155D01*
X15787430Y-17117655D01*
X15850930Y-17181155D01*
X16038347Y-17690045D02*
X16101847Y-17626545D01*
X16038347Y-17563045D01*
X15974847Y-17626545D01*
X16038347Y-17690045D01*
X16141962Y-12043270D02*
X16205462Y-11979770D01*
X16141962Y-11916270D01*
X16078462Y-11979770D01*
X16141962Y-12043270D01*
X18603975Y-17181151D02*
X18667475Y-17117651D01*
X18603975Y-17054151D01*
X18540475Y-17117651D01*
X18603975Y-17181151D01*
X18697526Y-11661054D02*
X18761026Y-11597554D01*
X18697526Y-11534054D01*
X18634026Y-11597554D01*
X18697526Y-11661054D01*
X19098552Y-16958692D02*
X19162052Y-16895192D01*
X19098552Y-16831692D01*
X19035052Y-16895192D01*
X19098552Y-16958692D01*
X19239781Y-11668457D02*
X19303281Y-11604957D01*
X19239781Y-11541457D01*
X19176281Y-11604957D01*
X19239781Y-11668457D01*
X19353432Y-13283832D02*
X19416932Y-13220332D01*
X19353432Y-13156832D01*
X19289932Y-13220332D01*
X19353432Y-13283832D01*
X19895687Y-13291235D02*
X19959187Y-13227735D01*
X19895687Y-13164235D01*
X19832187Y-13227735D01*
X19895687Y-13291235D01*
X20086020Y-10157366D02*
X20149520Y-10093866D01*
X20086020Y-10030366D01*
X20022520Y-10093866D01*
X20086020Y-10157366D01*
X20367742Y-16822412D02*
X20431242Y-16758911D01*
X20367742Y-16695411D01*
X20304242Y-16758911D01*
X20367742Y-16822412D01*
X20628275Y-10164769D02*
X20691775Y-10101269D01*
X20628275Y-10037769D01*
X20564775Y-10101269D01*
X20628275Y-10164769D01*
X20740942Y-11779524D02*
X20804442Y-11716024D01*
X20740942Y-11652524D01*
X20677442Y-11716024D01*
X20740942Y-11779524D01*
X20893441Y-16689218D02*
X20956941Y-16625718D01*
X20893441Y-16562218D01*
X20829941Y-16625718D01*
X20893441Y-16689218D01*
X21283197Y-11786927D02*
X21346697Y-11723427D01*
X21283197Y-11659927D01*
X21219697Y-11723427D01*
X21283197Y-11786927D01*
X21396500Y-13402095D02*
X21460000Y-13338595D01*
X21396500Y-13275095D01*
X21333000Y-13338595D01*
X21396500Y-13402095D01*
X21636618Y-9058026D02*
X21700118Y-8994526D01*
X21636618Y-8931026D01*
X21573118Y-8994526D01*
X21636618Y-9058026D01*
X21938755Y-13409499D02*
X22002255Y-13345999D01*
X21938755Y-13282499D01*
X21875255Y-13345999D01*
X21938755Y-13409499D01*
X22178873Y-9065429D02*
X22242373Y-9001929D01*
X22178873Y-8938429D01*
X22115373Y-9001929D01*
X22178873Y-9065429D01*
X22292338Y-10680857D02*
X22355838Y-10617357D01*
X22292338Y-10553857D01*
X22228838Y-10617357D01*
X22292338Y-10680857D01*
X22834592Y-10688260D02*
X22898092Y-10624760D01*
X22834592Y-10561260D01*
X22771092Y-10624760D01*
X22834592Y-10688260D01*
X22947897Y-12303433D02*
X23011397Y-12239933D01*
X22947897Y-12176433D01*
X22884397Y-12239933D01*
X22947897Y-12303433D01*
X23490152Y-12310836D02*
X23553652Y-12247336D01*
X23490152Y-12183836D01*
X23426652Y-12247336D01*
X23490152Y-12310836D01*
X23769041Y-8780681D02*
X23832541Y-8717181D01*
X23769041Y-8653681D01*
X23705541Y-8717181D01*
X23769041Y-8780681D01*
X24310166Y-8816452D02*
X24373666Y-8752952D01*
X24310166Y-8689452D01*
X24246666Y-8752952D01*
X24310166Y-8816452D01*
X24337295Y-10434030D02*
X24400795Y-10370530D01*
X24337295Y-10307030D01*
X24273795Y-10370530D01*
X24337295Y-10434030D01*
X24878420Y-10469801D02*
X24941920Y-10406301D01*
X24878420Y-10342801D01*
X24814920Y-10406301D01*
X24878420Y-10469801D01*
X24907709Y-12089310D02*
X24971209Y-12025810D01*
X24907709Y-11962310D01*
X24844209Y-12025810D01*
X24907709Y-12089310D01*
X25448833Y-12125082D02*
X25512333Y-12061582D01*
X25448833Y-11998082D01*
X25385333Y-12061582D01*
X25448833Y-12125082D01*
X26810452Y-11536915D02*
X26873952Y-11473415D01*
X26810452Y-11409915D01*
X26746952Y-11473415D01*
X26810452Y-11536915D01*
X27233816Y-13234933D02*
X27297316Y-13171433D01*
X27233816Y-13107933D01*
X27170316Y-13171433D01*
X27233816Y-13234933D01*
X27346403Y-11619717D02*
X27409903Y-11556217D01*
X27346403Y-11492717D01*
X27282903Y-11556217D01*
X27346403Y-11619717D01*
X27769767Y-13317734D02*
X27833267Y-13254234D01*
X27769767Y-13190734D01*
X27706267Y-13254234D01*
X27769767Y-13317734D01*
D11*
X6393687Y-19238852D02*
X6393687Y-19038852D01*
X6393687Y-19038852D02*
X6441306Y-19038852D01*
X6441306Y-19038852D02*
X6469877Y-19048375D01*
X6469877Y-19048375D02*
X6488925Y-19067423D01*
X6488925Y-19067423D02*
X6498449Y-19086471D01*
X6498449Y-19086471D02*
X6507972Y-19124566D01*
X6507972Y-19124566D02*
X6507972Y-19153137D01*
X6507972Y-19153137D02*
X6498449Y-19191233D01*
X6498449Y-19191233D02*
X6488925Y-19210280D01*
X6488925Y-19210280D02*
X6469877Y-19229328D01*
X6469877Y-19229328D02*
X6441306Y-19238852D01*
X6441306Y-19238852D02*
X6393687Y-19238852D01*
X6593687Y-19238852D02*
X6593687Y-19105518D01*
X6593687Y-19143614D02*
X6603210Y-19124566D01*
X6603210Y-19124566D02*
X6612734Y-19115042D01*
X6612734Y-19115042D02*
X6631782Y-19105518D01*
X6631782Y-19105518D02*
X6650830Y-19105518D01*
X6717496Y-19238852D02*
X6717496Y-19105518D01*
X6717496Y-19038852D02*
X6707972Y-19048375D01*
X6707972Y-19048375D02*
X6717496Y-19057899D01*
X6717496Y-19057899D02*
X6727020Y-19048375D01*
X6727020Y-19048375D02*
X6717496Y-19038852D01*
X6717496Y-19038852D02*
X6717496Y-19057899D01*
X6841306Y-19238852D02*
X6822258Y-19229328D01*
X6822258Y-19229328D02*
X6812734Y-19210280D01*
X6812734Y-19210280D02*
X6812734Y-19038852D01*
X6946068Y-19238852D02*
X6927020Y-19229328D01*
X6927020Y-19229328D02*
X6917496Y-19210280D01*
X6917496Y-19210280D02*
X6917496Y-19038852D01*
X7174639Y-19238852D02*
X7174639Y-19038852D01*
X7174639Y-19038852D02*
X7241306Y-19181709D01*
X7241306Y-19181709D02*
X7307972Y-19038852D01*
X7307972Y-19038852D02*
X7307972Y-19238852D01*
X7488925Y-19238852D02*
X7488925Y-19134090D01*
X7488925Y-19134090D02*
X7479401Y-19115042D01*
X7479401Y-19115042D02*
X7460353Y-19105518D01*
X7460353Y-19105518D02*
X7422258Y-19105518D01*
X7422258Y-19105518D02*
X7403210Y-19115042D01*
X7488925Y-19229328D02*
X7469877Y-19238852D01*
X7469877Y-19238852D02*
X7422258Y-19238852D01*
X7422258Y-19238852D02*
X7403210Y-19229328D01*
X7403210Y-19229328D02*
X7393687Y-19210280D01*
X7393687Y-19210280D02*
X7393687Y-19191233D01*
X7393687Y-19191233D02*
X7403210Y-19172185D01*
X7403210Y-19172185D02*
X7422258Y-19162661D01*
X7422258Y-19162661D02*
X7469877Y-19162661D01*
X7469877Y-19162661D02*
X7488925Y-19153137D01*
X7584163Y-19105518D02*
X7584163Y-19305518D01*
X7584163Y-19115042D02*
X7603210Y-19105518D01*
X7603210Y-19105518D02*
X7641306Y-19105518D01*
X7641306Y-19105518D02*
X7660353Y-19115042D01*
X7660353Y-19115042D02*
X7669877Y-19124566D01*
X7669877Y-19124566D02*
X7679401Y-19143614D01*
X7679401Y-19143614D02*
X7679401Y-19200756D01*
X7679401Y-19200756D02*
X7669877Y-19219804D01*
X7669877Y-19219804D02*
X7660353Y-19229328D01*
X7660353Y-19229328D02*
X7641306Y-19238852D01*
X7641306Y-19238852D02*
X7603210Y-19238852D01*
X7603210Y-19238852D02*
X7584163Y-19229328D01*
X7765115Y-19219804D02*
X7774639Y-19229328D01*
X7774639Y-19229328D02*
X7765115Y-19238852D01*
X7765115Y-19238852D02*
X7755591Y-19229328D01*
X7755591Y-19229328D02*
X7765115Y-19219804D01*
X7765115Y-19219804D02*
X7765115Y-19238852D01*
X7765115Y-19115042D02*
X7774639Y-19124566D01*
X7774639Y-19124566D02*
X7765115Y-19134090D01*
X7765115Y-19134090D02*
X7755591Y-19124566D01*
X7755591Y-19124566D02*
X7765115Y-19115042D01*
X7765115Y-19115042D02*
X7765115Y-19134090D01*
D12*
X6092910Y-19547368D02*
X6132910Y-19587368D01*
X6132910Y-19547368D02*
X6092910Y-19587368D01*
D11*
X6431782Y-19458852D02*
X6450830Y-19458852D01*
X6450830Y-19458852D02*
X6469877Y-19468375D01*
X6469877Y-19468375D02*
X6479401Y-19477899D01*
X6479401Y-19477899D02*
X6488925Y-19496947D01*
X6488925Y-19496947D02*
X6498449Y-19535042D01*
X6498449Y-19535042D02*
X6498449Y-19582661D01*
X6498449Y-19582661D02*
X6488925Y-19620756D01*
X6488925Y-19620756D02*
X6479401Y-19639804D01*
X6479401Y-19639804D02*
X6469877Y-19649328D01*
X6469877Y-19649328D02*
X6450830Y-19658852D01*
X6450830Y-19658852D02*
X6431782Y-19658852D01*
X6431782Y-19658852D02*
X6412734Y-19649328D01*
X6412734Y-19649328D02*
X6403210Y-19639804D01*
X6403210Y-19639804D02*
X6393687Y-19620756D01*
X6393687Y-19620756D02*
X6384163Y-19582661D01*
X6384163Y-19582661D02*
X6384163Y-19535042D01*
X6384163Y-19535042D02*
X6393687Y-19496947D01*
X6393687Y-19496947D02*
X6403210Y-19477899D01*
X6403210Y-19477899D02*
X6412734Y-19468375D01*
X6412734Y-19468375D02*
X6431782Y-19458852D01*
X6584163Y-19639804D02*
X6593687Y-19649328D01*
X6593687Y-19649328D02*
X6584163Y-19658852D01*
X6584163Y-19658852D02*
X6574639Y-19649328D01*
X6574639Y-19649328D02*
X6584163Y-19639804D01*
X6584163Y-19639804D02*
X6584163Y-19658852D01*
X6765115Y-19525518D02*
X6765115Y-19658852D01*
X6717496Y-19449328D02*
X6669877Y-19592185D01*
X6669877Y-19592185D02*
X6793687Y-19592185D01*
X6907972Y-19458852D02*
X6927020Y-19458852D01*
X6927020Y-19458852D02*
X6946068Y-19468375D01*
X6946068Y-19468375D02*
X6955591Y-19477899D01*
X6955591Y-19477899D02*
X6965115Y-19496947D01*
X6965115Y-19496947D02*
X6974639Y-19535042D01*
X6974639Y-19535042D02*
X6974639Y-19582661D01*
X6974639Y-19582661D02*
X6965115Y-19620756D01*
X6965115Y-19620756D02*
X6955591Y-19639804D01*
X6955591Y-19639804D02*
X6946068Y-19649328D01*
X6946068Y-19649328D02*
X6927020Y-19658852D01*
X6927020Y-19658852D02*
X6907972Y-19658852D01*
X6907972Y-19658852D02*
X6888925Y-19649328D01*
X6888925Y-19649328D02*
X6879401Y-19639804D01*
X6879401Y-19639804D02*
X6869877Y-19620756D01*
X6869877Y-19620756D02*
X6860353Y-19582661D01*
X6860353Y-19582661D02*
X6860353Y-19535042D01*
X6860353Y-19535042D02*
X6869877Y-19496947D01*
X6869877Y-19496947D02*
X6879401Y-19477899D01*
X6879401Y-19477899D02*
X6888925Y-19468375D01*
X6888925Y-19468375D02*
X6907972Y-19458852D01*
X7098449Y-19458852D02*
X7117496Y-19458852D01*
X7117496Y-19458852D02*
X7136544Y-19468375D01*
X7136544Y-19468375D02*
X7146068Y-19477899D01*
X7146068Y-19477899D02*
X7155591Y-19496947D01*
X7155591Y-19496947D02*
X7165115Y-19535042D01*
X7165115Y-19535042D02*
X7165115Y-19582661D01*
X7165115Y-19582661D02*
X7155591Y-19620756D01*
X7155591Y-19620756D02*
X7146068Y-19639804D01*
X7146068Y-19639804D02*
X7136544Y-19649328D01*
X7136544Y-19649328D02*
X7117496Y-19658852D01*
X7117496Y-19658852D02*
X7098449Y-19658852D01*
X7098449Y-19658852D02*
X7079401Y-19649328D01*
X7079401Y-19649328D02*
X7069877Y-19639804D01*
X7069877Y-19639804D02*
X7060353Y-19620756D01*
X7060353Y-19620756D02*
X7050830Y-19582661D01*
X7050830Y-19582661D02*
X7050830Y-19535042D01*
X7050830Y-19535042D02*
X7060353Y-19496947D01*
X7060353Y-19496947D02*
X7069877Y-19477899D01*
X7069877Y-19477899D02*
X7079401Y-19468375D01*
X7079401Y-19468375D02*
X7098449Y-19458852D01*
X7250830Y-19658852D02*
X7250830Y-19525518D01*
X7250830Y-19544566D02*
X7260353Y-19535042D01*
X7260353Y-19535042D02*
X7279401Y-19525518D01*
X7279401Y-19525518D02*
X7307972Y-19525518D01*
X7307972Y-19525518D02*
X7327020Y-19535042D01*
X7327020Y-19535042D02*
X7336544Y-19554090D01*
X7336544Y-19554090D02*
X7336544Y-19658852D01*
X7336544Y-19554090D02*
X7346068Y-19535042D01*
X7346068Y-19535042D02*
X7365115Y-19525518D01*
X7365115Y-19525518D02*
X7393687Y-19525518D01*
X7393687Y-19525518D02*
X7412734Y-19535042D01*
X7412734Y-19535042D02*
X7422258Y-19554090D01*
X7422258Y-19554090D02*
X7422258Y-19658852D01*
X7517496Y-19658852D02*
X7517496Y-19525518D01*
X7517496Y-19544566D02*
X7527020Y-19535042D01*
X7527020Y-19535042D02*
X7546068Y-19525518D01*
X7546068Y-19525518D02*
X7574639Y-19525518D01*
X7574639Y-19525518D02*
X7593687Y-19535042D01*
X7593687Y-19535042D02*
X7603211Y-19554090D01*
X7603211Y-19554090D02*
X7603211Y-19658852D01*
X7603211Y-19554090D02*
X7612734Y-19535042D01*
X7612734Y-19535042D02*
X7631782Y-19525518D01*
X7631782Y-19525518D02*
X7660353Y-19525518D01*
X7660353Y-19525518D02*
X7679401Y-19535042D01*
X7679401Y-19535042D02*
X7688925Y-19554090D01*
X7688925Y-19554090D02*
X7688925Y-19658852D01*
X8079401Y-19449328D02*
X7907973Y-19706471D01*
X8336544Y-19458852D02*
X8355592Y-19458852D01*
X8355592Y-19458852D02*
X8374639Y-19468375D01*
X8374639Y-19468375D02*
X8384163Y-19477899D01*
X8384163Y-19477899D02*
X8393687Y-19496947D01*
X8393687Y-19496947D02*
X8403211Y-19535042D01*
X8403211Y-19535042D02*
X8403211Y-19582661D01*
X8403211Y-19582661D02*
X8393687Y-19620756D01*
X8393687Y-19620756D02*
X8384163Y-19639804D01*
X8384163Y-19639804D02*
X8374639Y-19649328D01*
X8374639Y-19649328D02*
X8355592Y-19658852D01*
X8355592Y-19658852D02*
X8336544Y-19658852D01*
X8336544Y-19658852D02*
X8317496Y-19649328D01*
X8317496Y-19649328D02*
X8307973Y-19639804D01*
X8307973Y-19639804D02*
X8298449Y-19620756D01*
X8298449Y-19620756D02*
X8288925Y-19582661D01*
X8288925Y-19582661D02*
X8288925Y-19535042D01*
X8288925Y-19535042D02*
X8298449Y-19496947D01*
X8298449Y-19496947D02*
X8307973Y-19477899D01*
X8307973Y-19477899D02*
X8317496Y-19468375D01*
X8317496Y-19468375D02*
X8336544Y-19458852D01*
X8488925Y-19639804D02*
X8498449Y-19649328D01*
X8498449Y-19649328D02*
X8488925Y-19658852D01*
X8488925Y-19658852D02*
X8479401Y-19649328D01*
X8479401Y-19649328D02*
X8488925Y-19639804D01*
X8488925Y-19639804D02*
X8488925Y-19658852D01*
X8622258Y-19458852D02*
X8641306Y-19458852D01*
X8641306Y-19458852D02*
X8660354Y-19468375D01*
X8660354Y-19468375D02*
X8669877Y-19477899D01*
X8669877Y-19477899D02*
X8679401Y-19496947D01*
X8679401Y-19496947D02*
X8688925Y-19535042D01*
X8688925Y-19535042D02*
X8688925Y-19582661D01*
X8688925Y-19582661D02*
X8679401Y-19620756D01*
X8679401Y-19620756D02*
X8669877Y-19639804D01*
X8669877Y-19639804D02*
X8660354Y-19649328D01*
X8660354Y-19649328D02*
X8641306Y-19658852D01*
X8641306Y-19658852D02*
X8622258Y-19658852D01*
X8622258Y-19658852D02*
X8603211Y-19649328D01*
X8603211Y-19649328D02*
X8593687Y-19639804D01*
X8593687Y-19639804D02*
X8584163Y-19620756D01*
X8584163Y-19620756D02*
X8574639Y-19582661D01*
X8574639Y-19582661D02*
X8574639Y-19535042D01*
X8574639Y-19535042D02*
X8584163Y-19496947D01*
X8584163Y-19496947D02*
X8593687Y-19477899D01*
X8593687Y-19477899D02*
X8603211Y-19468375D01*
X8603211Y-19468375D02*
X8622258Y-19458852D01*
X8879401Y-19658852D02*
X8765116Y-19658852D01*
X8822258Y-19658852D02*
X8822258Y-19458852D01*
X8822258Y-19458852D02*
X8803211Y-19487423D01*
X8803211Y-19487423D02*
X8784163Y-19506471D01*
X8784163Y-19506471D02*
X8765116Y-19515994D01*
X9060354Y-19458852D02*
X8965116Y-19458852D01*
X8965116Y-19458852D02*
X8955592Y-19554090D01*
X8955592Y-19554090D02*
X8965116Y-19544566D01*
X8965116Y-19544566D02*
X8984163Y-19535042D01*
X8984163Y-19535042D02*
X9031782Y-19535042D01*
X9031782Y-19535042D02*
X9050830Y-19544566D01*
X9050830Y-19544566D02*
X9060354Y-19554090D01*
X9060354Y-19554090D02*
X9069877Y-19573137D01*
X9069877Y-19573137D02*
X9069877Y-19620756D01*
X9069877Y-19620756D02*
X9060354Y-19639804D01*
X9060354Y-19639804D02*
X9050830Y-19649328D01*
X9050830Y-19649328D02*
X9031782Y-19658852D01*
X9031782Y-19658852D02*
X8984163Y-19658852D01*
X8984163Y-19658852D02*
X8965116Y-19649328D01*
X8965116Y-19649328D02*
X8955592Y-19639804D01*
X9136544Y-19458852D02*
X9269877Y-19458852D01*
X9269877Y-19458852D02*
X9184163Y-19658852D01*
X9336544Y-19458852D02*
X9336544Y-19496947D01*
X9412735Y-19458852D02*
X9412735Y-19496947D01*
X9707973Y-19735042D02*
X9698449Y-19725518D01*
X9698449Y-19725518D02*
X9679401Y-19696947D01*
X9679401Y-19696947D02*
X9669878Y-19677899D01*
X9669878Y-19677899D02*
X9660354Y-19649328D01*
X9660354Y-19649328D02*
X9650830Y-19601709D01*
X9650830Y-19601709D02*
X9650830Y-19563614D01*
X9650830Y-19563614D02*
X9660354Y-19515994D01*
X9660354Y-19515994D02*
X9669878Y-19487423D01*
X9669878Y-19487423D02*
X9679401Y-19468375D01*
X9679401Y-19468375D02*
X9698449Y-19439804D01*
X9698449Y-19439804D02*
X9707973Y-19430280D01*
X9869878Y-19458852D02*
X9831782Y-19458852D01*
X9831782Y-19458852D02*
X9812735Y-19468375D01*
X9812735Y-19468375D02*
X9803211Y-19477899D01*
X9803211Y-19477899D02*
X9784163Y-19506471D01*
X9784163Y-19506471D02*
X9774639Y-19544566D01*
X9774639Y-19544566D02*
X9774639Y-19620756D01*
X9774639Y-19620756D02*
X9784163Y-19639804D01*
X9784163Y-19639804D02*
X9793687Y-19649328D01*
X9793687Y-19649328D02*
X9812735Y-19658852D01*
X9812735Y-19658852D02*
X9850830Y-19658852D01*
X9850830Y-19658852D02*
X9869878Y-19649328D01*
X9869878Y-19649328D02*
X9879401Y-19639804D01*
X9879401Y-19639804D02*
X9888925Y-19620756D01*
X9888925Y-19620756D02*
X9888925Y-19573137D01*
X9888925Y-19573137D02*
X9879401Y-19554090D01*
X9879401Y-19554090D02*
X9869878Y-19544566D01*
X9869878Y-19544566D02*
X9850830Y-19535042D01*
X9850830Y-19535042D02*
X9812735Y-19535042D01*
X9812735Y-19535042D02*
X9793687Y-19544566D01*
X9793687Y-19544566D02*
X9784163Y-19554090D01*
X9784163Y-19554090D02*
X9774639Y-19573137D01*
X10012735Y-19458852D02*
X10031782Y-19458852D01*
X10031782Y-19458852D02*
X10050830Y-19468375D01*
X10050830Y-19468375D02*
X10060354Y-19477899D01*
X10060354Y-19477899D02*
X10069878Y-19496947D01*
X10069878Y-19496947D02*
X10079401Y-19535042D01*
X10079401Y-19535042D02*
X10079401Y-19582661D01*
X10079401Y-19582661D02*
X10069878Y-19620756D01*
X10069878Y-19620756D02*
X10060354Y-19639804D01*
X10060354Y-19639804D02*
X10050830Y-19649328D01*
X10050830Y-19649328D02*
X10031782Y-19658852D01*
X10031782Y-19658852D02*
X10012735Y-19658852D01*
X10012735Y-19658852D02*
X9993687Y-19649328D01*
X9993687Y-19649328D02*
X9984163Y-19639804D01*
X9984163Y-19639804D02*
X9974639Y-19620756D01*
X9974639Y-19620756D02*
X9965116Y-19582661D01*
X9965116Y-19582661D02*
X9965116Y-19535042D01*
X9965116Y-19535042D02*
X9974639Y-19496947D01*
X9974639Y-19496947D02*
X9984163Y-19477899D01*
X9984163Y-19477899D02*
X9993687Y-19468375D01*
X9993687Y-19468375D02*
X10012735Y-19458852D01*
X10317497Y-19658852D02*
X10317497Y-19458852D01*
X10403211Y-19658852D02*
X10403211Y-19554090D01*
X10403211Y-19554090D02*
X10393687Y-19535042D01*
X10393687Y-19535042D02*
X10374640Y-19525518D01*
X10374640Y-19525518D02*
X10346068Y-19525518D01*
X10346068Y-19525518D02*
X10327020Y-19535042D01*
X10327020Y-19535042D02*
X10317497Y-19544566D01*
X10527020Y-19658852D02*
X10507973Y-19649328D01*
X10507973Y-19649328D02*
X10498449Y-19639804D01*
X10498449Y-19639804D02*
X10488925Y-19620756D01*
X10488925Y-19620756D02*
X10488925Y-19563614D01*
X10488925Y-19563614D02*
X10498449Y-19544566D01*
X10498449Y-19544566D02*
X10507973Y-19535042D01*
X10507973Y-19535042D02*
X10527020Y-19525518D01*
X10527020Y-19525518D02*
X10555592Y-19525518D01*
X10555592Y-19525518D02*
X10574640Y-19535042D01*
X10574640Y-19535042D02*
X10584163Y-19544566D01*
X10584163Y-19544566D02*
X10593687Y-19563614D01*
X10593687Y-19563614D02*
X10593687Y-19620756D01*
X10593687Y-19620756D02*
X10584163Y-19639804D01*
X10584163Y-19639804D02*
X10574640Y-19649328D01*
X10574640Y-19649328D02*
X10555592Y-19658852D01*
X10555592Y-19658852D02*
X10527020Y-19658852D01*
X10707973Y-19658852D02*
X10688925Y-19649328D01*
X10688925Y-19649328D02*
X10679401Y-19630280D01*
X10679401Y-19630280D02*
X10679401Y-19458852D01*
X10860354Y-19649328D02*
X10841306Y-19658852D01*
X10841306Y-19658852D02*
X10803211Y-19658852D01*
X10803211Y-19658852D02*
X10784163Y-19649328D01*
X10784163Y-19649328D02*
X10774640Y-19630280D01*
X10774640Y-19630280D02*
X10774640Y-19554090D01*
X10774640Y-19554090D02*
X10784163Y-19535042D01*
X10784163Y-19535042D02*
X10803211Y-19525518D01*
X10803211Y-19525518D02*
X10841306Y-19525518D01*
X10841306Y-19525518D02*
X10860354Y-19535042D01*
X10860354Y-19535042D02*
X10869878Y-19554090D01*
X10869878Y-19554090D02*
X10869878Y-19573137D01*
X10869878Y-19573137D02*
X10774640Y-19592185D01*
X10946068Y-19649328D02*
X10965116Y-19658852D01*
X10965116Y-19658852D02*
X11003211Y-19658852D01*
X11003211Y-19658852D02*
X11022259Y-19649328D01*
X11022259Y-19649328D02*
X11031782Y-19630280D01*
X11031782Y-19630280D02*
X11031782Y-19620756D01*
X11031782Y-19620756D02*
X11022259Y-19601709D01*
X11022259Y-19601709D02*
X11003211Y-19592185D01*
X11003211Y-19592185D02*
X10974640Y-19592185D01*
X10974640Y-19592185D02*
X10955592Y-19582661D01*
X10955592Y-19582661D02*
X10946068Y-19563614D01*
X10946068Y-19563614D02*
X10946068Y-19554090D01*
X10946068Y-19554090D02*
X10955592Y-19535042D01*
X10955592Y-19535042D02*
X10974640Y-19525518D01*
X10974640Y-19525518D02*
X11003211Y-19525518D01*
X11003211Y-19525518D02*
X11022259Y-19535042D01*
X11098449Y-19735042D02*
X11107973Y-19725518D01*
X11107973Y-19725518D02*
X11127021Y-19696947D01*
X11127021Y-19696947D02*
X11136544Y-19677899D01*
X11136544Y-19677899D02*
X11146068Y-19649328D01*
X11146068Y-19649328D02*
X11155592Y-19601709D01*
X11155592Y-19601709D02*
X11155592Y-19563614D01*
X11155592Y-19563614D02*
X11146068Y-19515994D01*
X11146068Y-19515994D02*
X11136544Y-19487423D01*
X11136544Y-19487423D02*
X11127021Y-19468375D01*
X11127021Y-19468375D02*
X11107973Y-19439804D01*
X11107973Y-19439804D02*
X11098449Y-19430280D01*
D12*
X6132910Y-19831368D02*
G75*
G02*
X6042910Y-19831368I-45000J0D01*
G01*
X6042910Y-19831368D02*
G75*
G02*
X6132910Y-19831368I45000J0D01*
G01*
D11*
X6431782Y-19722852D02*
X6450830Y-19722852D01*
X6450830Y-19722852D02*
X6469877Y-19732375D01*
X6469877Y-19732375D02*
X6479401Y-19741899D01*
X6479401Y-19741899D02*
X6488925Y-19760947D01*
X6488925Y-19760947D02*
X6498449Y-19799042D01*
X6498449Y-19799042D02*
X6498449Y-19846661D01*
X6498449Y-19846661D02*
X6488925Y-19884756D01*
X6488925Y-19884756D02*
X6479401Y-19903804D01*
X6479401Y-19903804D02*
X6469877Y-19913328D01*
X6469877Y-19913328D02*
X6450830Y-19922852D01*
X6450830Y-19922852D02*
X6431782Y-19922852D01*
X6431782Y-19922852D02*
X6412734Y-19913328D01*
X6412734Y-19913328D02*
X6403210Y-19903804D01*
X6403210Y-19903804D02*
X6393687Y-19884756D01*
X6393687Y-19884756D02*
X6384163Y-19846661D01*
X6384163Y-19846661D02*
X6384163Y-19799042D01*
X6384163Y-19799042D02*
X6393687Y-19760947D01*
X6393687Y-19760947D02*
X6403210Y-19741899D01*
X6403210Y-19741899D02*
X6412734Y-19732375D01*
X6412734Y-19732375D02*
X6431782Y-19722852D01*
X6584163Y-19903804D02*
X6593687Y-19913328D01*
X6593687Y-19913328D02*
X6584163Y-19922852D01*
X6584163Y-19922852D02*
X6574639Y-19913328D01*
X6574639Y-19913328D02*
X6584163Y-19903804D01*
X6584163Y-19903804D02*
X6584163Y-19922852D01*
X6688925Y-19922852D02*
X6727020Y-19922852D01*
X6727020Y-19922852D02*
X6746068Y-19913328D01*
X6746068Y-19913328D02*
X6755591Y-19903804D01*
X6755591Y-19903804D02*
X6774639Y-19875233D01*
X6774639Y-19875233D02*
X6784163Y-19837137D01*
X6784163Y-19837137D02*
X6784163Y-19760947D01*
X6784163Y-19760947D02*
X6774639Y-19741899D01*
X6774639Y-19741899D02*
X6765115Y-19732375D01*
X6765115Y-19732375D02*
X6746068Y-19722852D01*
X6746068Y-19722852D02*
X6707972Y-19722852D01*
X6707972Y-19722852D02*
X6688925Y-19732375D01*
X6688925Y-19732375D02*
X6679401Y-19741899D01*
X6679401Y-19741899D02*
X6669877Y-19760947D01*
X6669877Y-19760947D02*
X6669877Y-19808566D01*
X6669877Y-19808566D02*
X6679401Y-19827614D01*
X6679401Y-19827614D02*
X6688925Y-19837137D01*
X6688925Y-19837137D02*
X6707972Y-19846661D01*
X6707972Y-19846661D02*
X6746068Y-19846661D01*
X6746068Y-19846661D02*
X6765115Y-19837137D01*
X6765115Y-19837137D02*
X6774639Y-19827614D01*
X6774639Y-19827614D02*
X6784163Y-19808566D01*
X6907972Y-19722852D02*
X6927020Y-19722852D01*
X6927020Y-19722852D02*
X6946068Y-19732375D01*
X6946068Y-19732375D02*
X6955591Y-19741899D01*
X6955591Y-19741899D02*
X6965115Y-19760947D01*
X6965115Y-19760947D02*
X6974639Y-19799042D01*
X6974639Y-19799042D02*
X6974639Y-19846661D01*
X6974639Y-19846661D02*
X6965115Y-19884756D01*
X6965115Y-19884756D02*
X6955591Y-19903804D01*
X6955591Y-19903804D02*
X6946068Y-19913328D01*
X6946068Y-19913328D02*
X6927020Y-19922852D01*
X6927020Y-19922852D02*
X6907972Y-19922852D01*
X6907972Y-19922852D02*
X6888925Y-19913328D01*
X6888925Y-19913328D02*
X6879401Y-19903804D01*
X6879401Y-19903804D02*
X6869877Y-19884756D01*
X6869877Y-19884756D02*
X6860353Y-19846661D01*
X6860353Y-19846661D02*
X6860353Y-19799042D01*
X6860353Y-19799042D02*
X6869877Y-19760947D01*
X6869877Y-19760947D02*
X6879401Y-19741899D01*
X6879401Y-19741899D02*
X6888925Y-19732375D01*
X6888925Y-19732375D02*
X6907972Y-19722852D01*
X7098449Y-19722852D02*
X7117496Y-19722852D01*
X7117496Y-19722852D02*
X7136544Y-19732375D01*
X7136544Y-19732375D02*
X7146068Y-19741899D01*
X7146068Y-19741899D02*
X7155591Y-19760947D01*
X7155591Y-19760947D02*
X7165115Y-19799042D01*
X7165115Y-19799042D02*
X7165115Y-19846661D01*
X7165115Y-19846661D02*
X7155591Y-19884756D01*
X7155591Y-19884756D02*
X7146068Y-19903804D01*
X7146068Y-19903804D02*
X7136544Y-19913328D01*
X7136544Y-19913328D02*
X7117496Y-19922852D01*
X7117496Y-19922852D02*
X7098449Y-19922852D01*
X7098449Y-19922852D02*
X7079401Y-19913328D01*
X7079401Y-19913328D02*
X7069877Y-19903804D01*
X7069877Y-19903804D02*
X7060353Y-19884756D01*
X7060353Y-19884756D02*
X7050830Y-19846661D01*
X7050830Y-19846661D02*
X7050830Y-19799042D01*
X7050830Y-19799042D02*
X7060353Y-19760947D01*
X7060353Y-19760947D02*
X7069877Y-19741899D01*
X7069877Y-19741899D02*
X7079401Y-19732375D01*
X7079401Y-19732375D02*
X7098449Y-19722852D01*
X7250830Y-19922852D02*
X7250830Y-19789518D01*
X7250830Y-19808566D02*
X7260353Y-19799042D01*
X7260353Y-19799042D02*
X7279401Y-19789518D01*
X7279401Y-19789518D02*
X7307972Y-19789518D01*
X7307972Y-19789518D02*
X7327020Y-19799042D01*
X7327020Y-19799042D02*
X7336544Y-19818090D01*
X7336544Y-19818090D02*
X7336544Y-19922852D01*
X7336544Y-19818090D02*
X7346068Y-19799042D01*
X7346068Y-19799042D02*
X7365115Y-19789518D01*
X7365115Y-19789518D02*
X7393687Y-19789518D01*
X7393687Y-19789518D02*
X7412734Y-19799042D01*
X7412734Y-19799042D02*
X7422258Y-19818090D01*
X7422258Y-19818090D02*
X7422258Y-19922852D01*
X7517496Y-19922852D02*
X7517496Y-19789518D01*
X7517496Y-19808566D02*
X7527020Y-19799042D01*
X7527020Y-19799042D02*
X7546068Y-19789518D01*
X7546068Y-19789518D02*
X7574639Y-19789518D01*
X7574639Y-19789518D02*
X7593687Y-19799042D01*
X7593687Y-19799042D02*
X7603211Y-19818090D01*
X7603211Y-19818090D02*
X7603211Y-19922852D01*
X7603211Y-19818090D02*
X7612734Y-19799042D01*
X7612734Y-19799042D02*
X7631782Y-19789518D01*
X7631782Y-19789518D02*
X7660353Y-19789518D01*
X7660353Y-19789518D02*
X7679401Y-19799042D01*
X7679401Y-19799042D02*
X7688925Y-19818090D01*
X7688925Y-19818090D02*
X7688925Y-19922852D01*
X8079401Y-19713328D02*
X7907973Y-19970471D01*
X8336544Y-19722852D02*
X8355592Y-19722852D01*
X8355592Y-19722852D02*
X8374639Y-19732375D01*
X8374639Y-19732375D02*
X8384163Y-19741899D01*
X8384163Y-19741899D02*
X8393687Y-19760947D01*
X8393687Y-19760947D02*
X8403211Y-19799042D01*
X8403211Y-19799042D02*
X8403211Y-19846661D01*
X8403211Y-19846661D02*
X8393687Y-19884756D01*
X8393687Y-19884756D02*
X8384163Y-19903804D01*
X8384163Y-19903804D02*
X8374639Y-19913328D01*
X8374639Y-19913328D02*
X8355592Y-19922852D01*
X8355592Y-19922852D02*
X8336544Y-19922852D01*
X8336544Y-19922852D02*
X8317496Y-19913328D01*
X8317496Y-19913328D02*
X8307973Y-19903804D01*
X8307973Y-19903804D02*
X8298449Y-19884756D01*
X8298449Y-19884756D02*
X8288925Y-19846661D01*
X8288925Y-19846661D02*
X8288925Y-19799042D01*
X8288925Y-19799042D02*
X8298449Y-19760947D01*
X8298449Y-19760947D02*
X8307973Y-19741899D01*
X8307973Y-19741899D02*
X8317496Y-19732375D01*
X8317496Y-19732375D02*
X8336544Y-19722852D01*
X8488925Y-19903804D02*
X8498449Y-19913328D01*
X8498449Y-19913328D02*
X8488925Y-19922852D01*
X8488925Y-19922852D02*
X8479401Y-19913328D01*
X8479401Y-19913328D02*
X8488925Y-19903804D01*
X8488925Y-19903804D02*
X8488925Y-19922852D01*
X8622258Y-19722852D02*
X8641306Y-19722852D01*
X8641306Y-19722852D02*
X8660354Y-19732375D01*
X8660354Y-19732375D02*
X8669877Y-19741899D01*
X8669877Y-19741899D02*
X8679401Y-19760947D01*
X8679401Y-19760947D02*
X8688925Y-19799042D01*
X8688925Y-19799042D02*
X8688925Y-19846661D01*
X8688925Y-19846661D02*
X8679401Y-19884756D01*
X8679401Y-19884756D02*
X8669877Y-19903804D01*
X8669877Y-19903804D02*
X8660354Y-19913328D01*
X8660354Y-19913328D02*
X8641306Y-19922852D01*
X8641306Y-19922852D02*
X8622258Y-19922852D01*
X8622258Y-19922852D02*
X8603211Y-19913328D01*
X8603211Y-19913328D02*
X8593687Y-19903804D01*
X8593687Y-19903804D02*
X8584163Y-19884756D01*
X8584163Y-19884756D02*
X8574639Y-19846661D01*
X8574639Y-19846661D02*
X8574639Y-19799042D01*
X8574639Y-19799042D02*
X8584163Y-19760947D01*
X8584163Y-19760947D02*
X8593687Y-19741899D01*
X8593687Y-19741899D02*
X8603211Y-19732375D01*
X8603211Y-19732375D02*
X8622258Y-19722852D01*
X8755592Y-19722852D02*
X8879401Y-19722852D01*
X8879401Y-19722852D02*
X8812735Y-19799042D01*
X8812735Y-19799042D02*
X8841306Y-19799042D01*
X8841306Y-19799042D02*
X8860354Y-19808566D01*
X8860354Y-19808566D02*
X8869877Y-19818090D01*
X8869877Y-19818090D02*
X8879401Y-19837137D01*
X8879401Y-19837137D02*
X8879401Y-19884756D01*
X8879401Y-19884756D02*
X8869877Y-19903804D01*
X8869877Y-19903804D02*
X8860354Y-19913328D01*
X8860354Y-19913328D02*
X8841306Y-19922852D01*
X8841306Y-19922852D02*
X8784163Y-19922852D01*
X8784163Y-19922852D02*
X8765116Y-19913328D01*
X8765116Y-19913328D02*
X8755592Y-19903804D01*
X9060354Y-19722852D02*
X8965116Y-19722852D01*
X8965116Y-19722852D02*
X8955592Y-19818090D01*
X8955592Y-19818090D02*
X8965116Y-19808566D01*
X8965116Y-19808566D02*
X8984163Y-19799042D01*
X8984163Y-19799042D02*
X9031782Y-19799042D01*
X9031782Y-19799042D02*
X9050830Y-19808566D01*
X9050830Y-19808566D02*
X9060354Y-19818090D01*
X9060354Y-19818090D02*
X9069877Y-19837137D01*
X9069877Y-19837137D02*
X9069877Y-19884756D01*
X9069877Y-19884756D02*
X9060354Y-19903804D01*
X9060354Y-19903804D02*
X9050830Y-19913328D01*
X9050830Y-19913328D02*
X9031782Y-19922852D01*
X9031782Y-19922852D02*
X8984163Y-19922852D01*
X8984163Y-19922852D02*
X8965116Y-19913328D01*
X8965116Y-19913328D02*
X8955592Y-19903804D01*
X9241306Y-19789518D02*
X9241306Y-19922852D01*
X9193687Y-19713328D02*
X9146068Y-19856185D01*
X9146068Y-19856185D02*
X9269877Y-19856185D01*
X9336544Y-19722852D02*
X9336544Y-19760947D01*
X9412735Y-19722852D02*
X9412735Y-19760947D01*
X9707973Y-19999042D02*
X9698449Y-19989518D01*
X9698449Y-19989518D02*
X9679401Y-19960947D01*
X9679401Y-19960947D02*
X9669878Y-19941899D01*
X9669878Y-19941899D02*
X9660354Y-19913328D01*
X9660354Y-19913328D02*
X9650830Y-19865709D01*
X9650830Y-19865709D02*
X9650830Y-19827614D01*
X9650830Y-19827614D02*
X9660354Y-19779994D01*
X9660354Y-19779994D02*
X9669878Y-19751423D01*
X9669878Y-19751423D02*
X9679401Y-19732375D01*
X9679401Y-19732375D02*
X9698449Y-19703804D01*
X9698449Y-19703804D02*
X9707973Y-19694280D01*
X9888925Y-19922852D02*
X9774639Y-19922852D01*
X9831782Y-19922852D02*
X9831782Y-19722852D01*
X9831782Y-19722852D02*
X9812735Y-19751423D01*
X9812735Y-19751423D02*
X9793687Y-19770471D01*
X9793687Y-19770471D02*
X9774639Y-19779994D01*
X10127020Y-19922852D02*
X10127020Y-19722852D01*
X10212735Y-19922852D02*
X10212735Y-19818090D01*
X10212735Y-19818090D02*
X10203211Y-19799042D01*
X10203211Y-19799042D02*
X10184163Y-19789518D01*
X10184163Y-19789518D02*
X10155592Y-19789518D01*
X10155592Y-19789518D02*
X10136544Y-19799042D01*
X10136544Y-19799042D02*
X10127020Y-19808566D01*
X10336544Y-19922852D02*
X10317497Y-19913328D01*
X10317497Y-19913328D02*
X10307973Y-19903804D01*
X10307973Y-19903804D02*
X10298449Y-19884756D01*
X10298449Y-19884756D02*
X10298449Y-19827614D01*
X10298449Y-19827614D02*
X10307973Y-19808566D01*
X10307973Y-19808566D02*
X10317497Y-19799042D01*
X10317497Y-19799042D02*
X10336544Y-19789518D01*
X10336544Y-19789518D02*
X10365116Y-19789518D01*
X10365116Y-19789518D02*
X10384163Y-19799042D01*
X10384163Y-19799042D02*
X10393687Y-19808566D01*
X10393687Y-19808566D02*
X10403211Y-19827614D01*
X10403211Y-19827614D02*
X10403211Y-19884756D01*
X10403211Y-19884756D02*
X10393687Y-19903804D01*
X10393687Y-19903804D02*
X10384163Y-19913328D01*
X10384163Y-19913328D02*
X10365116Y-19922852D01*
X10365116Y-19922852D02*
X10336544Y-19922852D01*
X10517497Y-19922852D02*
X10498449Y-19913328D01*
X10498449Y-19913328D02*
X10488925Y-19894280D01*
X10488925Y-19894280D02*
X10488925Y-19722852D01*
X10669878Y-19913328D02*
X10650830Y-19922852D01*
X10650830Y-19922852D02*
X10612735Y-19922852D01*
X10612735Y-19922852D02*
X10593687Y-19913328D01*
X10593687Y-19913328D02*
X10584163Y-19894280D01*
X10584163Y-19894280D02*
X10584163Y-19818090D01*
X10584163Y-19818090D02*
X10593687Y-19799042D01*
X10593687Y-19799042D02*
X10612735Y-19789518D01*
X10612735Y-19789518D02*
X10650830Y-19789518D01*
X10650830Y-19789518D02*
X10669878Y-19799042D01*
X10669878Y-19799042D02*
X10679401Y-19818090D01*
X10679401Y-19818090D02*
X10679401Y-19837137D01*
X10679401Y-19837137D02*
X10584163Y-19856185D01*
X10746068Y-19999042D02*
X10755592Y-19989518D01*
X10755592Y-19989518D02*
X10774640Y-19960947D01*
X10774640Y-19960947D02*
X10784163Y-19941899D01*
X10784163Y-19941899D02*
X10793687Y-19913328D01*
X10793687Y-19913328D02*
X10803211Y-19865709D01*
X10803211Y-19865709D02*
X10803211Y-19827614D01*
X10803211Y-19827614D02*
X10793687Y-19779994D01*
X10793687Y-19779994D02*
X10784163Y-19751423D01*
X10784163Y-19751423D02*
X10774640Y-19732375D01*
X10774640Y-19732375D02*
X10755592Y-19703804D01*
X10755592Y-19703804D02*
X10746068Y-19694280D01*
D12*
X6082910Y-20045368D02*
X6082910Y-20145368D01*
X6032910Y-20095368D02*
X6132910Y-20095368D01*
D11*
X6498449Y-20186852D02*
X6384163Y-20186852D01*
X6441306Y-20186852D02*
X6441306Y-19986852D01*
X6441306Y-19986852D02*
X6422258Y-20015423D01*
X6422258Y-20015423D02*
X6403210Y-20034471D01*
X6403210Y-20034471D02*
X6384163Y-20043994D01*
X6584163Y-20167804D02*
X6593687Y-20177328D01*
X6593687Y-20177328D02*
X6584163Y-20186852D01*
X6584163Y-20186852D02*
X6574639Y-20177328D01*
X6574639Y-20177328D02*
X6584163Y-20167804D01*
X6584163Y-20167804D02*
X6584163Y-20186852D01*
X6717496Y-19986852D02*
X6736544Y-19986852D01*
X6736544Y-19986852D02*
X6755591Y-19996375D01*
X6755591Y-19996375D02*
X6765115Y-20005899D01*
X6765115Y-20005899D02*
X6774639Y-20024947D01*
X6774639Y-20024947D02*
X6784163Y-20063042D01*
X6784163Y-20063042D02*
X6784163Y-20110661D01*
X6784163Y-20110661D02*
X6774639Y-20148756D01*
X6774639Y-20148756D02*
X6765115Y-20167804D01*
X6765115Y-20167804D02*
X6755591Y-20177328D01*
X6755591Y-20177328D02*
X6736544Y-20186852D01*
X6736544Y-20186852D02*
X6717496Y-20186852D01*
X6717496Y-20186852D02*
X6698449Y-20177328D01*
X6698449Y-20177328D02*
X6688925Y-20167804D01*
X6688925Y-20167804D02*
X6679401Y-20148756D01*
X6679401Y-20148756D02*
X6669877Y-20110661D01*
X6669877Y-20110661D02*
X6669877Y-20063042D01*
X6669877Y-20063042D02*
X6679401Y-20024947D01*
X6679401Y-20024947D02*
X6688925Y-20005899D01*
X6688925Y-20005899D02*
X6698449Y-19996375D01*
X6698449Y-19996375D02*
X6717496Y-19986852D01*
X6907972Y-19986852D02*
X6927020Y-19986852D01*
X6927020Y-19986852D02*
X6946068Y-19996375D01*
X6946068Y-19996375D02*
X6955591Y-20005899D01*
X6955591Y-20005899D02*
X6965115Y-20024947D01*
X6965115Y-20024947D02*
X6974639Y-20063042D01*
X6974639Y-20063042D02*
X6974639Y-20110661D01*
X6974639Y-20110661D02*
X6965115Y-20148756D01*
X6965115Y-20148756D02*
X6955591Y-20167804D01*
X6955591Y-20167804D02*
X6946068Y-20177328D01*
X6946068Y-20177328D02*
X6927020Y-20186852D01*
X6927020Y-20186852D02*
X6907972Y-20186852D01*
X6907972Y-20186852D02*
X6888925Y-20177328D01*
X6888925Y-20177328D02*
X6879401Y-20167804D01*
X6879401Y-20167804D02*
X6869877Y-20148756D01*
X6869877Y-20148756D02*
X6860353Y-20110661D01*
X6860353Y-20110661D02*
X6860353Y-20063042D01*
X6860353Y-20063042D02*
X6869877Y-20024947D01*
X6869877Y-20024947D02*
X6879401Y-20005899D01*
X6879401Y-20005899D02*
X6888925Y-19996375D01*
X6888925Y-19996375D02*
X6907972Y-19986852D01*
X7098449Y-19986852D02*
X7117496Y-19986852D01*
X7117496Y-19986852D02*
X7136544Y-19996375D01*
X7136544Y-19996375D02*
X7146068Y-20005899D01*
X7146068Y-20005899D02*
X7155591Y-20024947D01*
X7155591Y-20024947D02*
X7165115Y-20063042D01*
X7165115Y-20063042D02*
X7165115Y-20110661D01*
X7165115Y-20110661D02*
X7155591Y-20148756D01*
X7155591Y-20148756D02*
X7146068Y-20167804D01*
X7146068Y-20167804D02*
X7136544Y-20177328D01*
X7136544Y-20177328D02*
X7117496Y-20186852D01*
X7117496Y-20186852D02*
X7098449Y-20186852D01*
X7098449Y-20186852D02*
X7079401Y-20177328D01*
X7079401Y-20177328D02*
X7069877Y-20167804D01*
X7069877Y-20167804D02*
X7060353Y-20148756D01*
X7060353Y-20148756D02*
X7050830Y-20110661D01*
X7050830Y-20110661D02*
X7050830Y-20063042D01*
X7050830Y-20063042D02*
X7060353Y-20024947D01*
X7060353Y-20024947D02*
X7069877Y-20005899D01*
X7069877Y-20005899D02*
X7079401Y-19996375D01*
X7079401Y-19996375D02*
X7098449Y-19986852D01*
X7250830Y-20186852D02*
X7250830Y-20053518D01*
X7250830Y-20072566D02*
X7260353Y-20063042D01*
X7260353Y-20063042D02*
X7279401Y-20053518D01*
X7279401Y-20053518D02*
X7307972Y-20053518D01*
X7307972Y-20053518D02*
X7327020Y-20063042D01*
X7327020Y-20063042D02*
X7336544Y-20082090D01*
X7336544Y-20082090D02*
X7336544Y-20186852D01*
X7336544Y-20082090D02*
X7346068Y-20063042D01*
X7346068Y-20063042D02*
X7365115Y-20053518D01*
X7365115Y-20053518D02*
X7393687Y-20053518D01*
X7393687Y-20053518D02*
X7412734Y-20063042D01*
X7412734Y-20063042D02*
X7422258Y-20082090D01*
X7422258Y-20082090D02*
X7422258Y-20186852D01*
X7517496Y-20186852D02*
X7517496Y-20053518D01*
X7517496Y-20072566D02*
X7527020Y-20063042D01*
X7527020Y-20063042D02*
X7546068Y-20053518D01*
X7546068Y-20053518D02*
X7574639Y-20053518D01*
X7574639Y-20053518D02*
X7593687Y-20063042D01*
X7593687Y-20063042D02*
X7603211Y-20082090D01*
X7603211Y-20082090D02*
X7603211Y-20186852D01*
X7603211Y-20082090D02*
X7612734Y-20063042D01*
X7612734Y-20063042D02*
X7631782Y-20053518D01*
X7631782Y-20053518D02*
X7660353Y-20053518D01*
X7660353Y-20053518D02*
X7679401Y-20063042D01*
X7679401Y-20063042D02*
X7688925Y-20082090D01*
X7688925Y-20082090D02*
X7688925Y-20186852D01*
X8079401Y-19977328D02*
X7907973Y-20234471D01*
X8336544Y-19986852D02*
X8355592Y-19986852D01*
X8355592Y-19986852D02*
X8374639Y-19996375D01*
X8374639Y-19996375D02*
X8384163Y-20005899D01*
X8384163Y-20005899D02*
X8393687Y-20024947D01*
X8393687Y-20024947D02*
X8403211Y-20063042D01*
X8403211Y-20063042D02*
X8403211Y-20110661D01*
X8403211Y-20110661D02*
X8393687Y-20148756D01*
X8393687Y-20148756D02*
X8384163Y-20167804D01*
X8384163Y-20167804D02*
X8374639Y-20177328D01*
X8374639Y-20177328D02*
X8355592Y-20186852D01*
X8355592Y-20186852D02*
X8336544Y-20186852D01*
X8336544Y-20186852D02*
X8317496Y-20177328D01*
X8317496Y-20177328D02*
X8307973Y-20167804D01*
X8307973Y-20167804D02*
X8298449Y-20148756D01*
X8298449Y-20148756D02*
X8288925Y-20110661D01*
X8288925Y-20110661D02*
X8288925Y-20063042D01*
X8288925Y-20063042D02*
X8298449Y-20024947D01*
X8298449Y-20024947D02*
X8307973Y-20005899D01*
X8307973Y-20005899D02*
X8317496Y-19996375D01*
X8317496Y-19996375D02*
X8336544Y-19986852D01*
X8488925Y-20167804D02*
X8498449Y-20177328D01*
X8498449Y-20177328D02*
X8488925Y-20186852D01*
X8488925Y-20186852D02*
X8479401Y-20177328D01*
X8479401Y-20177328D02*
X8488925Y-20167804D01*
X8488925Y-20167804D02*
X8488925Y-20186852D01*
X8622258Y-19986852D02*
X8641306Y-19986852D01*
X8641306Y-19986852D02*
X8660354Y-19996375D01*
X8660354Y-19996375D02*
X8669877Y-20005899D01*
X8669877Y-20005899D02*
X8679401Y-20024947D01*
X8679401Y-20024947D02*
X8688925Y-20063042D01*
X8688925Y-20063042D02*
X8688925Y-20110661D01*
X8688925Y-20110661D02*
X8679401Y-20148756D01*
X8679401Y-20148756D02*
X8669877Y-20167804D01*
X8669877Y-20167804D02*
X8660354Y-20177328D01*
X8660354Y-20177328D02*
X8641306Y-20186852D01*
X8641306Y-20186852D02*
X8622258Y-20186852D01*
X8622258Y-20186852D02*
X8603211Y-20177328D01*
X8603211Y-20177328D02*
X8593687Y-20167804D01*
X8593687Y-20167804D02*
X8584163Y-20148756D01*
X8584163Y-20148756D02*
X8574639Y-20110661D01*
X8574639Y-20110661D02*
X8574639Y-20063042D01*
X8574639Y-20063042D02*
X8584163Y-20024947D01*
X8584163Y-20024947D02*
X8593687Y-20005899D01*
X8593687Y-20005899D02*
X8603211Y-19996375D01*
X8603211Y-19996375D02*
X8622258Y-19986852D01*
X8755592Y-19986852D02*
X8879401Y-19986852D01*
X8879401Y-19986852D02*
X8812735Y-20063042D01*
X8812735Y-20063042D02*
X8841306Y-20063042D01*
X8841306Y-20063042D02*
X8860354Y-20072566D01*
X8860354Y-20072566D02*
X8869877Y-20082090D01*
X8869877Y-20082090D02*
X8879401Y-20101137D01*
X8879401Y-20101137D02*
X8879401Y-20148756D01*
X8879401Y-20148756D02*
X8869877Y-20167804D01*
X8869877Y-20167804D02*
X8860354Y-20177328D01*
X8860354Y-20177328D02*
X8841306Y-20186852D01*
X8841306Y-20186852D02*
X8784163Y-20186852D01*
X8784163Y-20186852D02*
X8765116Y-20177328D01*
X8765116Y-20177328D02*
X8755592Y-20167804D01*
X8974639Y-20186852D02*
X9012735Y-20186852D01*
X9012735Y-20186852D02*
X9031782Y-20177328D01*
X9031782Y-20177328D02*
X9041306Y-20167804D01*
X9041306Y-20167804D02*
X9060354Y-20139233D01*
X9060354Y-20139233D02*
X9069877Y-20101137D01*
X9069877Y-20101137D02*
X9069877Y-20024947D01*
X9069877Y-20024947D02*
X9060354Y-20005899D01*
X9060354Y-20005899D02*
X9050830Y-19996375D01*
X9050830Y-19996375D02*
X9031782Y-19986852D01*
X9031782Y-19986852D02*
X8993687Y-19986852D01*
X8993687Y-19986852D02*
X8974639Y-19996375D01*
X8974639Y-19996375D02*
X8965116Y-20005899D01*
X8965116Y-20005899D02*
X8955592Y-20024947D01*
X8955592Y-20024947D02*
X8955592Y-20072566D01*
X8955592Y-20072566D02*
X8965116Y-20091614D01*
X8965116Y-20091614D02*
X8974639Y-20101137D01*
X8974639Y-20101137D02*
X8993687Y-20110661D01*
X8993687Y-20110661D02*
X9031782Y-20110661D01*
X9031782Y-20110661D02*
X9050830Y-20101137D01*
X9050830Y-20101137D02*
X9060354Y-20091614D01*
X9060354Y-20091614D02*
X9069877Y-20072566D01*
X9241306Y-20053518D02*
X9241306Y-20186852D01*
X9193687Y-19977328D02*
X9146068Y-20120185D01*
X9146068Y-20120185D02*
X9269877Y-20120185D01*
X9336544Y-19986852D02*
X9336544Y-20024947D01*
X9412735Y-19986852D02*
X9412735Y-20024947D01*
X9707973Y-20263042D02*
X9698449Y-20253518D01*
X9698449Y-20253518D02*
X9679401Y-20224947D01*
X9679401Y-20224947D02*
X9669878Y-20205899D01*
X9669878Y-20205899D02*
X9660354Y-20177328D01*
X9660354Y-20177328D02*
X9650830Y-20129709D01*
X9650830Y-20129709D02*
X9650830Y-20091614D01*
X9650830Y-20091614D02*
X9660354Y-20043994D01*
X9660354Y-20043994D02*
X9669878Y-20015423D01*
X9669878Y-20015423D02*
X9679401Y-19996375D01*
X9679401Y-19996375D02*
X9698449Y-19967804D01*
X9698449Y-19967804D02*
X9707973Y-19958280D01*
X9888925Y-20186852D02*
X9774639Y-20186852D01*
X9831782Y-20186852D02*
X9831782Y-19986852D01*
X9831782Y-19986852D02*
X9812735Y-20015423D01*
X9812735Y-20015423D02*
X9793687Y-20034471D01*
X9793687Y-20034471D02*
X9774639Y-20043994D01*
X10060354Y-20053518D02*
X10060354Y-20186852D01*
X10012735Y-19977328D02*
X9965116Y-20120185D01*
X9965116Y-20120185D02*
X10088925Y-20120185D01*
X10317497Y-20186852D02*
X10317497Y-19986852D01*
X10403211Y-20186852D02*
X10403211Y-20082090D01*
X10403211Y-20082090D02*
X10393687Y-20063042D01*
X10393687Y-20063042D02*
X10374640Y-20053518D01*
X10374640Y-20053518D02*
X10346068Y-20053518D01*
X10346068Y-20053518D02*
X10327020Y-20063042D01*
X10327020Y-20063042D02*
X10317497Y-20072566D01*
X10527020Y-20186852D02*
X10507973Y-20177328D01*
X10507973Y-20177328D02*
X10498449Y-20167804D01*
X10498449Y-20167804D02*
X10488925Y-20148756D01*
X10488925Y-20148756D02*
X10488925Y-20091614D01*
X10488925Y-20091614D02*
X10498449Y-20072566D01*
X10498449Y-20072566D02*
X10507973Y-20063042D01*
X10507973Y-20063042D02*
X10527020Y-20053518D01*
X10527020Y-20053518D02*
X10555592Y-20053518D01*
X10555592Y-20053518D02*
X10574640Y-20063042D01*
X10574640Y-20063042D02*
X10584163Y-20072566D01*
X10584163Y-20072566D02*
X10593687Y-20091614D01*
X10593687Y-20091614D02*
X10593687Y-20148756D01*
X10593687Y-20148756D02*
X10584163Y-20167804D01*
X10584163Y-20167804D02*
X10574640Y-20177328D01*
X10574640Y-20177328D02*
X10555592Y-20186852D01*
X10555592Y-20186852D02*
X10527020Y-20186852D01*
X10707973Y-20186852D02*
X10688925Y-20177328D01*
X10688925Y-20177328D02*
X10679401Y-20158280D01*
X10679401Y-20158280D02*
X10679401Y-19986852D01*
X10860354Y-20177328D02*
X10841306Y-20186852D01*
X10841306Y-20186852D02*
X10803211Y-20186852D01*
X10803211Y-20186852D02*
X10784163Y-20177328D01*
X10784163Y-20177328D02*
X10774640Y-20158280D01*
X10774640Y-20158280D02*
X10774640Y-20082090D01*
X10774640Y-20082090D02*
X10784163Y-20063042D01*
X10784163Y-20063042D02*
X10803211Y-20053518D01*
X10803211Y-20053518D02*
X10841306Y-20053518D01*
X10841306Y-20053518D02*
X10860354Y-20063042D01*
X10860354Y-20063042D02*
X10869878Y-20082090D01*
X10869878Y-20082090D02*
X10869878Y-20101137D01*
X10869878Y-20101137D02*
X10774640Y-20120185D01*
X10946068Y-20177328D02*
X10965116Y-20186852D01*
X10965116Y-20186852D02*
X11003211Y-20186852D01*
X11003211Y-20186852D02*
X11022259Y-20177328D01*
X11022259Y-20177328D02*
X11031782Y-20158280D01*
X11031782Y-20158280D02*
X11031782Y-20148756D01*
X11031782Y-20148756D02*
X11022259Y-20129709D01*
X11022259Y-20129709D02*
X11003211Y-20120185D01*
X11003211Y-20120185D02*
X10974640Y-20120185D01*
X10974640Y-20120185D02*
X10955592Y-20110661D01*
X10955592Y-20110661D02*
X10946068Y-20091614D01*
X10946068Y-20091614D02*
X10946068Y-20082090D01*
X10946068Y-20082090D02*
X10955592Y-20063042D01*
X10955592Y-20063042D02*
X10974640Y-20053518D01*
X10974640Y-20053518D02*
X11003211Y-20053518D01*
X11003211Y-20053518D02*
X11022259Y-20063042D01*
X11098449Y-20263042D02*
X11107973Y-20253518D01*
X11107973Y-20253518D02*
X11127021Y-20224947D01*
X11127021Y-20224947D02*
X11136544Y-20205899D01*
X11136544Y-20205899D02*
X11146068Y-20177328D01*
X11146068Y-20177328D02*
X11155592Y-20129709D01*
X11155592Y-20129709D02*
X11155592Y-20091614D01*
X11155592Y-20091614D02*
X11146068Y-20043994D01*
X11146068Y-20043994D02*
X11136544Y-20015423D01*
X11136544Y-20015423D02*
X11127021Y-19996375D01*
X11127021Y-19996375D02*
X11107973Y-19967804D01*
X11107973Y-19967804D02*
X11098449Y-19958280D01*
D13*
X6116915Y-20397983D02*
X6116915Y-20320752D01*
X6039684Y-20320752D01*
X6039684Y-20397983D01*
X6116915Y-20397983D01*
D11*
X6498449Y-20450852D02*
X6384163Y-20450852D01*
X6441306Y-20450852D02*
X6441306Y-20250852D01*
X6441306Y-20250852D02*
X6422258Y-20279423D01*
X6422258Y-20279423D02*
X6403210Y-20298471D01*
X6403210Y-20298471D02*
X6384163Y-20307994D01*
X6584163Y-20431804D02*
X6593687Y-20441328D01*
X6593687Y-20441328D02*
X6584163Y-20450852D01*
X6584163Y-20450852D02*
X6574639Y-20441328D01*
X6574639Y-20441328D02*
X6584163Y-20431804D01*
X6584163Y-20431804D02*
X6584163Y-20450852D01*
X6717496Y-20250852D02*
X6736544Y-20250852D01*
X6736544Y-20250852D02*
X6755591Y-20260375D01*
X6755591Y-20260375D02*
X6765115Y-20269899D01*
X6765115Y-20269899D02*
X6774639Y-20288947D01*
X6774639Y-20288947D02*
X6784163Y-20327042D01*
X6784163Y-20327042D02*
X6784163Y-20374661D01*
X6784163Y-20374661D02*
X6774639Y-20412756D01*
X6774639Y-20412756D02*
X6765115Y-20431804D01*
X6765115Y-20431804D02*
X6755591Y-20441328D01*
X6755591Y-20441328D02*
X6736544Y-20450852D01*
X6736544Y-20450852D02*
X6717496Y-20450852D01*
X6717496Y-20450852D02*
X6698449Y-20441328D01*
X6698449Y-20441328D02*
X6688925Y-20431804D01*
X6688925Y-20431804D02*
X6679401Y-20412756D01*
X6679401Y-20412756D02*
X6669877Y-20374661D01*
X6669877Y-20374661D02*
X6669877Y-20327042D01*
X6669877Y-20327042D02*
X6679401Y-20288947D01*
X6679401Y-20288947D02*
X6688925Y-20269899D01*
X6688925Y-20269899D02*
X6698449Y-20260375D01*
X6698449Y-20260375D02*
X6717496Y-20250852D01*
X6879401Y-20450852D02*
X6917496Y-20450852D01*
X6917496Y-20450852D02*
X6936544Y-20441328D01*
X6936544Y-20441328D02*
X6946068Y-20431804D01*
X6946068Y-20431804D02*
X6965115Y-20403233D01*
X6965115Y-20403233D02*
X6974639Y-20365137D01*
X6974639Y-20365137D02*
X6974639Y-20288947D01*
X6974639Y-20288947D02*
X6965115Y-20269899D01*
X6965115Y-20269899D02*
X6955591Y-20260375D01*
X6955591Y-20260375D02*
X6936544Y-20250852D01*
X6936544Y-20250852D02*
X6898449Y-20250852D01*
X6898449Y-20250852D02*
X6879401Y-20260375D01*
X6879401Y-20260375D02*
X6869877Y-20269899D01*
X6869877Y-20269899D02*
X6860353Y-20288947D01*
X6860353Y-20288947D02*
X6860353Y-20336566D01*
X6860353Y-20336566D02*
X6869877Y-20355614D01*
X6869877Y-20355614D02*
X6879401Y-20365137D01*
X6879401Y-20365137D02*
X6898449Y-20374661D01*
X6898449Y-20374661D02*
X6936544Y-20374661D01*
X6936544Y-20374661D02*
X6955591Y-20365137D01*
X6955591Y-20365137D02*
X6965115Y-20355614D01*
X6965115Y-20355614D02*
X6974639Y-20336566D01*
X7050830Y-20269899D02*
X7060353Y-20260375D01*
X7060353Y-20260375D02*
X7079401Y-20250852D01*
X7079401Y-20250852D02*
X7127020Y-20250852D01*
X7127020Y-20250852D02*
X7146068Y-20260375D01*
X7146068Y-20260375D02*
X7155591Y-20269899D01*
X7155591Y-20269899D02*
X7165115Y-20288947D01*
X7165115Y-20288947D02*
X7165115Y-20307994D01*
X7165115Y-20307994D02*
X7155591Y-20336566D01*
X7155591Y-20336566D02*
X7041306Y-20450852D01*
X7041306Y-20450852D02*
X7165115Y-20450852D01*
X7250830Y-20450852D02*
X7250830Y-20317518D01*
X7250830Y-20336566D02*
X7260353Y-20327042D01*
X7260353Y-20327042D02*
X7279401Y-20317518D01*
X7279401Y-20317518D02*
X7307972Y-20317518D01*
X7307972Y-20317518D02*
X7327020Y-20327042D01*
X7327020Y-20327042D02*
X7336544Y-20346090D01*
X7336544Y-20346090D02*
X7336544Y-20450852D01*
X7336544Y-20346090D02*
X7346068Y-20327042D01*
X7346068Y-20327042D02*
X7365115Y-20317518D01*
X7365115Y-20317518D02*
X7393687Y-20317518D01*
X7393687Y-20317518D02*
X7412734Y-20327042D01*
X7412734Y-20327042D02*
X7422258Y-20346090D01*
X7422258Y-20346090D02*
X7422258Y-20450852D01*
X7517496Y-20450852D02*
X7517496Y-20317518D01*
X7517496Y-20336566D02*
X7527020Y-20327042D01*
X7527020Y-20327042D02*
X7546068Y-20317518D01*
X7546068Y-20317518D02*
X7574639Y-20317518D01*
X7574639Y-20317518D02*
X7593687Y-20327042D01*
X7593687Y-20327042D02*
X7603211Y-20346090D01*
X7603211Y-20346090D02*
X7603211Y-20450852D01*
X7603211Y-20346090D02*
X7612734Y-20327042D01*
X7612734Y-20327042D02*
X7631782Y-20317518D01*
X7631782Y-20317518D02*
X7660353Y-20317518D01*
X7660353Y-20317518D02*
X7679401Y-20327042D01*
X7679401Y-20327042D02*
X7688925Y-20346090D01*
X7688925Y-20346090D02*
X7688925Y-20450852D01*
X8079401Y-20241328D02*
X7907973Y-20498471D01*
X8336544Y-20250852D02*
X8355592Y-20250852D01*
X8355592Y-20250852D02*
X8374639Y-20260375D01*
X8374639Y-20260375D02*
X8384163Y-20269899D01*
X8384163Y-20269899D02*
X8393687Y-20288947D01*
X8393687Y-20288947D02*
X8403211Y-20327042D01*
X8403211Y-20327042D02*
X8403211Y-20374661D01*
X8403211Y-20374661D02*
X8393687Y-20412756D01*
X8393687Y-20412756D02*
X8384163Y-20431804D01*
X8384163Y-20431804D02*
X8374639Y-20441328D01*
X8374639Y-20441328D02*
X8355592Y-20450852D01*
X8355592Y-20450852D02*
X8336544Y-20450852D01*
X8336544Y-20450852D02*
X8317496Y-20441328D01*
X8317496Y-20441328D02*
X8307973Y-20431804D01*
X8307973Y-20431804D02*
X8298449Y-20412756D01*
X8298449Y-20412756D02*
X8288925Y-20374661D01*
X8288925Y-20374661D02*
X8288925Y-20327042D01*
X8288925Y-20327042D02*
X8298449Y-20288947D01*
X8298449Y-20288947D02*
X8307973Y-20269899D01*
X8307973Y-20269899D02*
X8317496Y-20260375D01*
X8317496Y-20260375D02*
X8336544Y-20250852D01*
X8488925Y-20431804D02*
X8498449Y-20441328D01*
X8498449Y-20441328D02*
X8488925Y-20450852D01*
X8488925Y-20450852D02*
X8479401Y-20441328D01*
X8479401Y-20441328D02*
X8488925Y-20431804D01*
X8488925Y-20431804D02*
X8488925Y-20450852D01*
X8622258Y-20250852D02*
X8641306Y-20250852D01*
X8641306Y-20250852D02*
X8660354Y-20260375D01*
X8660354Y-20260375D02*
X8669877Y-20269899D01*
X8669877Y-20269899D02*
X8679401Y-20288947D01*
X8679401Y-20288947D02*
X8688925Y-20327042D01*
X8688925Y-20327042D02*
X8688925Y-20374661D01*
X8688925Y-20374661D02*
X8679401Y-20412756D01*
X8679401Y-20412756D02*
X8669877Y-20431804D01*
X8669877Y-20431804D02*
X8660354Y-20441328D01*
X8660354Y-20441328D02*
X8641306Y-20450852D01*
X8641306Y-20450852D02*
X8622258Y-20450852D01*
X8622258Y-20450852D02*
X8603211Y-20441328D01*
X8603211Y-20441328D02*
X8593687Y-20431804D01*
X8593687Y-20431804D02*
X8584163Y-20412756D01*
X8584163Y-20412756D02*
X8574639Y-20374661D01*
X8574639Y-20374661D02*
X8574639Y-20327042D01*
X8574639Y-20327042D02*
X8584163Y-20288947D01*
X8584163Y-20288947D02*
X8593687Y-20269899D01*
X8593687Y-20269899D02*
X8603211Y-20260375D01*
X8603211Y-20260375D02*
X8622258Y-20250852D01*
X8860354Y-20317518D02*
X8860354Y-20450852D01*
X8812735Y-20241328D02*
X8765116Y-20384185D01*
X8765116Y-20384185D02*
X8888925Y-20384185D01*
X8946068Y-20250852D02*
X9069877Y-20250852D01*
X9069877Y-20250852D02*
X9003211Y-20327042D01*
X9003211Y-20327042D02*
X9031782Y-20327042D01*
X9031782Y-20327042D02*
X9050830Y-20336566D01*
X9050830Y-20336566D02*
X9060354Y-20346090D01*
X9060354Y-20346090D02*
X9069877Y-20365137D01*
X9069877Y-20365137D02*
X9069877Y-20412756D01*
X9069877Y-20412756D02*
X9060354Y-20431804D01*
X9060354Y-20431804D02*
X9050830Y-20441328D01*
X9050830Y-20441328D02*
X9031782Y-20450852D01*
X9031782Y-20450852D02*
X8974639Y-20450852D01*
X8974639Y-20450852D02*
X8955592Y-20441328D01*
X8955592Y-20441328D02*
X8946068Y-20431804D01*
X9193687Y-20250852D02*
X9212735Y-20250852D01*
X9212735Y-20250852D02*
X9231782Y-20260375D01*
X9231782Y-20260375D02*
X9241306Y-20269899D01*
X9241306Y-20269899D02*
X9250830Y-20288947D01*
X9250830Y-20288947D02*
X9260354Y-20327042D01*
X9260354Y-20327042D02*
X9260354Y-20374661D01*
X9260354Y-20374661D02*
X9250830Y-20412756D01*
X9250830Y-20412756D02*
X9241306Y-20431804D01*
X9241306Y-20431804D02*
X9231782Y-20441328D01*
X9231782Y-20441328D02*
X9212735Y-20450852D01*
X9212735Y-20450852D02*
X9193687Y-20450852D01*
X9193687Y-20450852D02*
X9174639Y-20441328D01*
X9174639Y-20441328D02*
X9165116Y-20431804D01*
X9165116Y-20431804D02*
X9155592Y-20412756D01*
X9155592Y-20412756D02*
X9146068Y-20374661D01*
X9146068Y-20374661D02*
X9146068Y-20327042D01*
X9146068Y-20327042D02*
X9155592Y-20288947D01*
X9155592Y-20288947D02*
X9165116Y-20269899D01*
X9165116Y-20269899D02*
X9174639Y-20260375D01*
X9174639Y-20260375D02*
X9193687Y-20250852D01*
X9336544Y-20250852D02*
X9336544Y-20288947D01*
X9412735Y-20250852D02*
X9412735Y-20288947D01*
X9707973Y-20527042D02*
X9698449Y-20517518D01*
X9698449Y-20517518D02*
X9679401Y-20488947D01*
X9679401Y-20488947D02*
X9669878Y-20469899D01*
X9669878Y-20469899D02*
X9660354Y-20441328D01*
X9660354Y-20441328D02*
X9650830Y-20393709D01*
X9650830Y-20393709D02*
X9650830Y-20355614D01*
X9650830Y-20355614D02*
X9660354Y-20307994D01*
X9660354Y-20307994D02*
X9669878Y-20279423D01*
X9669878Y-20279423D02*
X9679401Y-20260375D01*
X9679401Y-20260375D02*
X9698449Y-20231804D01*
X9698449Y-20231804D02*
X9707973Y-20222280D01*
X9765116Y-20250852D02*
X9888925Y-20250852D01*
X9888925Y-20250852D02*
X9822258Y-20327042D01*
X9822258Y-20327042D02*
X9850830Y-20327042D01*
X9850830Y-20327042D02*
X9869878Y-20336566D01*
X9869878Y-20336566D02*
X9879401Y-20346090D01*
X9879401Y-20346090D02*
X9888925Y-20365137D01*
X9888925Y-20365137D02*
X9888925Y-20412756D01*
X9888925Y-20412756D02*
X9879401Y-20431804D01*
X9879401Y-20431804D02*
X9869878Y-20441328D01*
X9869878Y-20441328D02*
X9850830Y-20450852D01*
X9850830Y-20450852D02*
X9793687Y-20450852D01*
X9793687Y-20450852D02*
X9774639Y-20441328D01*
X9774639Y-20441328D02*
X9765116Y-20431804D01*
X10127020Y-20450852D02*
X10127020Y-20250852D01*
X10212735Y-20450852D02*
X10212735Y-20346090D01*
X10212735Y-20346090D02*
X10203211Y-20327042D01*
X10203211Y-20327042D02*
X10184163Y-20317518D01*
X10184163Y-20317518D02*
X10155592Y-20317518D01*
X10155592Y-20317518D02*
X10136544Y-20327042D01*
X10136544Y-20327042D02*
X10127020Y-20336566D01*
X10336544Y-20450852D02*
X10317497Y-20441328D01*
X10317497Y-20441328D02*
X10307973Y-20431804D01*
X10307973Y-20431804D02*
X10298449Y-20412756D01*
X10298449Y-20412756D02*
X10298449Y-20355614D01*
X10298449Y-20355614D02*
X10307973Y-20336566D01*
X10307973Y-20336566D02*
X10317497Y-20327042D01*
X10317497Y-20327042D02*
X10336544Y-20317518D01*
X10336544Y-20317518D02*
X10365116Y-20317518D01*
X10365116Y-20317518D02*
X10384163Y-20327042D01*
X10384163Y-20327042D02*
X10393687Y-20336566D01*
X10393687Y-20336566D02*
X10403211Y-20355614D01*
X10403211Y-20355614D02*
X10403211Y-20412756D01*
X10403211Y-20412756D02*
X10393687Y-20431804D01*
X10393687Y-20431804D02*
X10384163Y-20441328D01*
X10384163Y-20441328D02*
X10365116Y-20450852D01*
X10365116Y-20450852D02*
X10336544Y-20450852D01*
X10517497Y-20450852D02*
X10498449Y-20441328D01*
X10498449Y-20441328D02*
X10488925Y-20422280D01*
X10488925Y-20422280D02*
X10488925Y-20250852D01*
X10669878Y-20441328D02*
X10650830Y-20450852D01*
X10650830Y-20450852D02*
X10612735Y-20450852D01*
X10612735Y-20450852D02*
X10593687Y-20441328D01*
X10593687Y-20441328D02*
X10584163Y-20422280D01*
X10584163Y-20422280D02*
X10584163Y-20346090D01*
X10584163Y-20346090D02*
X10593687Y-20327042D01*
X10593687Y-20327042D02*
X10612735Y-20317518D01*
X10612735Y-20317518D02*
X10650830Y-20317518D01*
X10650830Y-20317518D02*
X10669878Y-20327042D01*
X10669878Y-20327042D02*
X10679401Y-20346090D01*
X10679401Y-20346090D02*
X10679401Y-20365137D01*
X10679401Y-20365137D02*
X10584163Y-20384185D01*
X10755592Y-20441328D02*
X10774640Y-20450852D01*
X10774640Y-20450852D02*
X10812735Y-20450852D01*
X10812735Y-20450852D02*
X10831782Y-20441328D01*
X10831782Y-20441328D02*
X10841306Y-20422280D01*
X10841306Y-20422280D02*
X10841306Y-20412756D01*
X10841306Y-20412756D02*
X10831782Y-20393709D01*
X10831782Y-20393709D02*
X10812735Y-20384185D01*
X10812735Y-20384185D02*
X10784163Y-20384185D01*
X10784163Y-20384185D02*
X10765116Y-20374661D01*
X10765116Y-20374661D02*
X10755592Y-20355614D01*
X10755592Y-20355614D02*
X10755592Y-20346090D01*
X10755592Y-20346090D02*
X10765116Y-20327042D01*
X10765116Y-20327042D02*
X10784163Y-20317518D01*
X10784163Y-20317518D02*
X10812735Y-20317518D01*
X10812735Y-20317518D02*
X10831782Y-20327042D01*
X10907973Y-20527042D02*
X10917497Y-20517518D01*
X10917497Y-20517518D02*
X10936544Y-20488947D01*
X10936544Y-20488947D02*
X10946068Y-20469899D01*
X10946068Y-20469899D02*
X10955592Y-20441328D01*
X10955592Y-20441328D02*
X10965116Y-20393709D01*
X10965116Y-20393709D02*
X10965116Y-20355614D01*
X10965116Y-20355614D02*
X10955592Y-20307994D01*
X10955592Y-20307994D02*
X10946068Y-20279423D01*
X10946068Y-20279423D02*
X10936544Y-20260375D01*
X10936544Y-20260375D02*
X10917497Y-20231804D01*
X10917497Y-20231804D02*
X10907973Y-20222280D01*
D14*
X6069410Y-20686868D02*
X6132910Y-20623368D01*
X6069410Y-20559868D01*
X6005910Y-20623368D01*
X6069410Y-20686868D01*
D11*
X6498449Y-20714852D02*
X6384163Y-20714852D01*
X6441306Y-20714852D02*
X6441306Y-20514852D01*
X6441306Y-20514852D02*
X6422258Y-20543423D01*
X6422258Y-20543423D02*
X6403210Y-20562471D01*
X6403210Y-20562471D02*
X6384163Y-20571994D01*
X6584163Y-20695804D02*
X6593687Y-20705328D01*
X6593687Y-20705328D02*
X6584163Y-20714852D01*
X6584163Y-20714852D02*
X6574639Y-20705328D01*
X6574639Y-20705328D02*
X6584163Y-20695804D01*
X6584163Y-20695804D02*
X6584163Y-20714852D01*
X6669877Y-20533899D02*
X6679401Y-20524375D01*
X6679401Y-20524375D02*
X6698449Y-20514852D01*
X6698449Y-20514852D02*
X6746068Y-20514852D01*
X6746068Y-20514852D02*
X6765115Y-20524375D01*
X6765115Y-20524375D02*
X6774639Y-20533899D01*
X6774639Y-20533899D02*
X6784163Y-20552947D01*
X6784163Y-20552947D02*
X6784163Y-20571994D01*
X6784163Y-20571994D02*
X6774639Y-20600566D01*
X6774639Y-20600566D02*
X6660353Y-20714852D01*
X6660353Y-20714852D02*
X6784163Y-20714852D01*
X6850830Y-20514852D02*
X6984163Y-20514852D01*
X6984163Y-20514852D02*
X6898449Y-20714852D01*
X7098449Y-20514852D02*
X7117496Y-20514852D01*
X7117496Y-20514852D02*
X7136544Y-20524375D01*
X7136544Y-20524375D02*
X7146068Y-20533899D01*
X7146068Y-20533899D02*
X7155591Y-20552947D01*
X7155591Y-20552947D02*
X7165115Y-20591042D01*
X7165115Y-20591042D02*
X7165115Y-20638661D01*
X7165115Y-20638661D02*
X7155591Y-20676756D01*
X7155591Y-20676756D02*
X7146068Y-20695804D01*
X7146068Y-20695804D02*
X7136544Y-20705328D01*
X7136544Y-20705328D02*
X7117496Y-20714852D01*
X7117496Y-20714852D02*
X7098449Y-20714852D01*
X7098449Y-20714852D02*
X7079401Y-20705328D01*
X7079401Y-20705328D02*
X7069877Y-20695804D01*
X7069877Y-20695804D02*
X7060353Y-20676756D01*
X7060353Y-20676756D02*
X7050830Y-20638661D01*
X7050830Y-20638661D02*
X7050830Y-20591042D01*
X7050830Y-20591042D02*
X7060353Y-20552947D01*
X7060353Y-20552947D02*
X7069877Y-20533899D01*
X7069877Y-20533899D02*
X7079401Y-20524375D01*
X7079401Y-20524375D02*
X7098449Y-20514852D01*
X7250830Y-20714852D02*
X7250830Y-20581518D01*
X7250830Y-20600566D02*
X7260353Y-20591042D01*
X7260353Y-20591042D02*
X7279401Y-20581518D01*
X7279401Y-20581518D02*
X7307972Y-20581518D01*
X7307972Y-20581518D02*
X7327020Y-20591042D01*
X7327020Y-20591042D02*
X7336544Y-20610090D01*
X7336544Y-20610090D02*
X7336544Y-20714852D01*
X7336544Y-20610090D02*
X7346068Y-20591042D01*
X7346068Y-20591042D02*
X7365115Y-20581518D01*
X7365115Y-20581518D02*
X7393687Y-20581518D01*
X7393687Y-20581518D02*
X7412734Y-20591042D01*
X7412734Y-20591042D02*
X7422258Y-20610090D01*
X7422258Y-20610090D02*
X7422258Y-20714852D01*
X7517496Y-20714852D02*
X7517496Y-20581518D01*
X7517496Y-20600566D02*
X7527020Y-20591042D01*
X7527020Y-20591042D02*
X7546068Y-20581518D01*
X7546068Y-20581518D02*
X7574639Y-20581518D01*
X7574639Y-20581518D02*
X7593687Y-20591042D01*
X7593687Y-20591042D02*
X7603211Y-20610090D01*
X7603211Y-20610090D02*
X7603211Y-20714852D01*
X7603211Y-20610090D02*
X7612734Y-20591042D01*
X7612734Y-20591042D02*
X7631782Y-20581518D01*
X7631782Y-20581518D02*
X7660353Y-20581518D01*
X7660353Y-20581518D02*
X7679401Y-20591042D01*
X7679401Y-20591042D02*
X7688925Y-20610090D01*
X7688925Y-20610090D02*
X7688925Y-20714852D01*
X8079401Y-20505328D02*
X7907973Y-20762471D01*
X8336544Y-20514852D02*
X8355592Y-20514852D01*
X8355592Y-20514852D02*
X8374639Y-20524375D01*
X8374639Y-20524375D02*
X8384163Y-20533899D01*
X8384163Y-20533899D02*
X8393687Y-20552947D01*
X8393687Y-20552947D02*
X8403211Y-20591042D01*
X8403211Y-20591042D02*
X8403211Y-20638661D01*
X8403211Y-20638661D02*
X8393687Y-20676756D01*
X8393687Y-20676756D02*
X8384163Y-20695804D01*
X8384163Y-20695804D02*
X8374639Y-20705328D01*
X8374639Y-20705328D02*
X8355592Y-20714852D01*
X8355592Y-20714852D02*
X8336544Y-20714852D01*
X8336544Y-20714852D02*
X8317496Y-20705328D01*
X8317496Y-20705328D02*
X8307973Y-20695804D01*
X8307973Y-20695804D02*
X8298449Y-20676756D01*
X8298449Y-20676756D02*
X8288925Y-20638661D01*
X8288925Y-20638661D02*
X8288925Y-20591042D01*
X8288925Y-20591042D02*
X8298449Y-20552947D01*
X8298449Y-20552947D02*
X8307973Y-20533899D01*
X8307973Y-20533899D02*
X8317496Y-20524375D01*
X8317496Y-20524375D02*
X8336544Y-20514852D01*
X8488925Y-20695804D02*
X8498449Y-20705328D01*
X8498449Y-20705328D02*
X8488925Y-20714852D01*
X8488925Y-20714852D02*
X8479401Y-20705328D01*
X8479401Y-20705328D02*
X8488925Y-20695804D01*
X8488925Y-20695804D02*
X8488925Y-20714852D01*
X8622258Y-20514852D02*
X8641306Y-20514852D01*
X8641306Y-20514852D02*
X8660354Y-20524375D01*
X8660354Y-20524375D02*
X8669877Y-20533899D01*
X8669877Y-20533899D02*
X8679401Y-20552947D01*
X8679401Y-20552947D02*
X8688925Y-20591042D01*
X8688925Y-20591042D02*
X8688925Y-20638661D01*
X8688925Y-20638661D02*
X8679401Y-20676756D01*
X8679401Y-20676756D02*
X8669877Y-20695804D01*
X8669877Y-20695804D02*
X8660354Y-20705328D01*
X8660354Y-20705328D02*
X8641306Y-20714852D01*
X8641306Y-20714852D02*
X8622258Y-20714852D01*
X8622258Y-20714852D02*
X8603211Y-20705328D01*
X8603211Y-20705328D02*
X8593687Y-20695804D01*
X8593687Y-20695804D02*
X8584163Y-20676756D01*
X8584163Y-20676756D02*
X8574639Y-20638661D01*
X8574639Y-20638661D02*
X8574639Y-20591042D01*
X8574639Y-20591042D02*
X8584163Y-20552947D01*
X8584163Y-20552947D02*
X8593687Y-20533899D01*
X8593687Y-20533899D02*
X8603211Y-20524375D01*
X8603211Y-20524375D02*
X8622258Y-20514852D01*
X8869877Y-20514852D02*
X8774639Y-20514852D01*
X8774639Y-20514852D02*
X8765116Y-20610090D01*
X8765116Y-20610090D02*
X8774639Y-20600566D01*
X8774639Y-20600566D02*
X8793687Y-20591042D01*
X8793687Y-20591042D02*
X8841306Y-20591042D01*
X8841306Y-20591042D02*
X8860354Y-20600566D01*
X8860354Y-20600566D02*
X8869877Y-20610090D01*
X8869877Y-20610090D02*
X8879401Y-20629137D01*
X8879401Y-20629137D02*
X8879401Y-20676756D01*
X8879401Y-20676756D02*
X8869877Y-20695804D01*
X8869877Y-20695804D02*
X8860354Y-20705328D01*
X8860354Y-20705328D02*
X8841306Y-20714852D01*
X8841306Y-20714852D02*
X8793687Y-20714852D01*
X8793687Y-20714852D02*
X8774639Y-20705328D01*
X8774639Y-20705328D02*
X8765116Y-20695804D01*
X9003211Y-20514852D02*
X9022258Y-20514852D01*
X9022258Y-20514852D02*
X9041306Y-20524375D01*
X9041306Y-20524375D02*
X9050830Y-20533899D01*
X9050830Y-20533899D02*
X9060354Y-20552947D01*
X9060354Y-20552947D02*
X9069877Y-20591042D01*
X9069877Y-20591042D02*
X9069877Y-20638661D01*
X9069877Y-20638661D02*
X9060354Y-20676756D01*
X9060354Y-20676756D02*
X9050830Y-20695804D01*
X9050830Y-20695804D02*
X9041306Y-20705328D01*
X9041306Y-20705328D02*
X9022258Y-20714852D01*
X9022258Y-20714852D02*
X9003211Y-20714852D01*
X9003211Y-20714852D02*
X8984163Y-20705328D01*
X8984163Y-20705328D02*
X8974639Y-20695804D01*
X8974639Y-20695804D02*
X8965116Y-20676756D01*
X8965116Y-20676756D02*
X8955592Y-20638661D01*
X8955592Y-20638661D02*
X8955592Y-20591042D01*
X8955592Y-20591042D02*
X8965116Y-20552947D01*
X8965116Y-20552947D02*
X8974639Y-20533899D01*
X8974639Y-20533899D02*
X8984163Y-20524375D01*
X8984163Y-20524375D02*
X9003211Y-20514852D01*
X9193687Y-20514852D02*
X9212735Y-20514852D01*
X9212735Y-20514852D02*
X9231782Y-20524375D01*
X9231782Y-20524375D02*
X9241306Y-20533899D01*
X9241306Y-20533899D02*
X9250830Y-20552947D01*
X9250830Y-20552947D02*
X9260354Y-20591042D01*
X9260354Y-20591042D02*
X9260354Y-20638661D01*
X9260354Y-20638661D02*
X9250830Y-20676756D01*
X9250830Y-20676756D02*
X9241306Y-20695804D01*
X9241306Y-20695804D02*
X9231782Y-20705328D01*
X9231782Y-20705328D02*
X9212735Y-20714852D01*
X9212735Y-20714852D02*
X9193687Y-20714852D01*
X9193687Y-20714852D02*
X9174639Y-20705328D01*
X9174639Y-20705328D02*
X9165116Y-20695804D01*
X9165116Y-20695804D02*
X9155592Y-20676756D01*
X9155592Y-20676756D02*
X9146068Y-20638661D01*
X9146068Y-20638661D02*
X9146068Y-20591042D01*
X9146068Y-20591042D02*
X9155592Y-20552947D01*
X9155592Y-20552947D02*
X9165116Y-20533899D01*
X9165116Y-20533899D02*
X9174639Y-20524375D01*
X9174639Y-20524375D02*
X9193687Y-20514852D01*
X9336544Y-20514852D02*
X9336544Y-20552947D01*
X9412735Y-20514852D02*
X9412735Y-20552947D01*
X9707973Y-20791042D02*
X9698449Y-20781518D01*
X9698449Y-20781518D02*
X9679401Y-20752947D01*
X9679401Y-20752947D02*
X9669878Y-20733899D01*
X9669878Y-20733899D02*
X9660354Y-20705328D01*
X9660354Y-20705328D02*
X9650830Y-20657709D01*
X9650830Y-20657709D02*
X9650830Y-20619614D01*
X9650830Y-20619614D02*
X9660354Y-20571994D01*
X9660354Y-20571994D02*
X9669878Y-20543423D01*
X9669878Y-20543423D02*
X9679401Y-20524375D01*
X9679401Y-20524375D02*
X9698449Y-20495804D01*
X9698449Y-20495804D02*
X9707973Y-20486280D01*
X9869878Y-20514852D02*
X9831782Y-20514852D01*
X9831782Y-20514852D02*
X9812735Y-20524375D01*
X9812735Y-20524375D02*
X9803211Y-20533899D01*
X9803211Y-20533899D02*
X9784163Y-20562471D01*
X9784163Y-20562471D02*
X9774639Y-20600566D01*
X9774639Y-20600566D02*
X9774639Y-20676756D01*
X9774639Y-20676756D02*
X9784163Y-20695804D01*
X9784163Y-20695804D02*
X9793687Y-20705328D01*
X9793687Y-20705328D02*
X9812735Y-20714852D01*
X9812735Y-20714852D02*
X9850830Y-20714852D01*
X9850830Y-20714852D02*
X9869878Y-20705328D01*
X9869878Y-20705328D02*
X9879401Y-20695804D01*
X9879401Y-20695804D02*
X9888925Y-20676756D01*
X9888925Y-20676756D02*
X9888925Y-20629137D01*
X9888925Y-20629137D02*
X9879401Y-20610090D01*
X9879401Y-20610090D02*
X9869878Y-20600566D01*
X9869878Y-20600566D02*
X9850830Y-20591042D01*
X9850830Y-20591042D02*
X9812735Y-20591042D01*
X9812735Y-20591042D02*
X9793687Y-20600566D01*
X9793687Y-20600566D02*
X9784163Y-20610090D01*
X9784163Y-20610090D02*
X9774639Y-20629137D01*
X10012735Y-20514852D02*
X10031782Y-20514852D01*
X10031782Y-20514852D02*
X10050830Y-20524375D01*
X10050830Y-20524375D02*
X10060354Y-20533899D01*
X10060354Y-20533899D02*
X10069878Y-20552947D01*
X10069878Y-20552947D02*
X10079401Y-20591042D01*
X10079401Y-20591042D02*
X10079401Y-20638661D01*
X10079401Y-20638661D02*
X10069878Y-20676756D01*
X10069878Y-20676756D02*
X10060354Y-20695804D01*
X10060354Y-20695804D02*
X10050830Y-20705328D01*
X10050830Y-20705328D02*
X10031782Y-20714852D01*
X10031782Y-20714852D02*
X10012735Y-20714852D01*
X10012735Y-20714852D02*
X9993687Y-20705328D01*
X9993687Y-20705328D02*
X9984163Y-20695804D01*
X9984163Y-20695804D02*
X9974639Y-20676756D01*
X9974639Y-20676756D02*
X9965116Y-20638661D01*
X9965116Y-20638661D02*
X9965116Y-20591042D01*
X9965116Y-20591042D02*
X9974639Y-20552947D01*
X9974639Y-20552947D02*
X9984163Y-20533899D01*
X9984163Y-20533899D02*
X9993687Y-20524375D01*
X9993687Y-20524375D02*
X10012735Y-20514852D01*
X10317497Y-20714852D02*
X10317497Y-20514852D01*
X10403211Y-20714852D02*
X10403211Y-20610090D01*
X10403211Y-20610090D02*
X10393687Y-20591042D01*
X10393687Y-20591042D02*
X10374640Y-20581518D01*
X10374640Y-20581518D02*
X10346068Y-20581518D01*
X10346068Y-20581518D02*
X10327020Y-20591042D01*
X10327020Y-20591042D02*
X10317497Y-20600566D01*
X10527020Y-20714852D02*
X10507973Y-20705328D01*
X10507973Y-20705328D02*
X10498449Y-20695804D01*
X10498449Y-20695804D02*
X10488925Y-20676756D01*
X10488925Y-20676756D02*
X10488925Y-20619614D01*
X10488925Y-20619614D02*
X10498449Y-20600566D01*
X10498449Y-20600566D02*
X10507973Y-20591042D01*
X10507973Y-20591042D02*
X10527020Y-20581518D01*
X10527020Y-20581518D02*
X10555592Y-20581518D01*
X10555592Y-20581518D02*
X10574640Y-20591042D01*
X10574640Y-20591042D02*
X10584163Y-20600566D01*
X10584163Y-20600566D02*
X10593687Y-20619614D01*
X10593687Y-20619614D02*
X10593687Y-20676756D01*
X10593687Y-20676756D02*
X10584163Y-20695804D01*
X10584163Y-20695804D02*
X10574640Y-20705328D01*
X10574640Y-20705328D02*
X10555592Y-20714852D01*
X10555592Y-20714852D02*
X10527020Y-20714852D01*
X10707973Y-20714852D02*
X10688925Y-20705328D01*
X10688925Y-20705328D02*
X10679401Y-20686280D01*
X10679401Y-20686280D02*
X10679401Y-20514852D01*
X10860354Y-20705328D02*
X10841306Y-20714852D01*
X10841306Y-20714852D02*
X10803211Y-20714852D01*
X10803211Y-20714852D02*
X10784163Y-20705328D01*
X10784163Y-20705328D02*
X10774640Y-20686280D01*
X10774640Y-20686280D02*
X10774640Y-20610090D01*
X10774640Y-20610090D02*
X10784163Y-20591042D01*
X10784163Y-20591042D02*
X10803211Y-20581518D01*
X10803211Y-20581518D02*
X10841306Y-20581518D01*
X10841306Y-20581518D02*
X10860354Y-20591042D01*
X10860354Y-20591042D02*
X10869878Y-20610090D01*
X10869878Y-20610090D02*
X10869878Y-20629137D01*
X10869878Y-20629137D02*
X10774640Y-20648185D01*
X10946068Y-20705328D02*
X10965116Y-20714852D01*
X10965116Y-20714852D02*
X11003211Y-20714852D01*
X11003211Y-20714852D02*
X11022259Y-20705328D01*
X11022259Y-20705328D02*
X11031782Y-20686280D01*
X11031782Y-20686280D02*
X11031782Y-20676756D01*
X11031782Y-20676756D02*
X11022259Y-20657709D01*
X11022259Y-20657709D02*
X11003211Y-20648185D01*
X11003211Y-20648185D02*
X10974640Y-20648185D01*
X10974640Y-20648185D02*
X10955592Y-20638661D01*
X10955592Y-20638661D02*
X10946068Y-20619614D01*
X10946068Y-20619614D02*
X10946068Y-20610090D01*
X10946068Y-20610090D02*
X10955592Y-20591042D01*
X10955592Y-20591042D02*
X10974640Y-20581518D01*
X10974640Y-20581518D02*
X11003211Y-20581518D01*
X11003211Y-20581518D02*
X11022259Y-20591042D01*
X11098449Y-20791042D02*
X11107973Y-20781518D01*
X11107973Y-20781518D02*
X11127021Y-20752947D01*
X11127021Y-20752947D02*
X11136544Y-20733899D01*
X11136544Y-20733899D02*
X11146068Y-20705328D01*
X11146068Y-20705328D02*
X11155592Y-20657709D01*
X11155592Y-20657709D02*
X11155592Y-20619614D01*
X11155592Y-20619614D02*
X11146068Y-20571994D01*
X11146068Y-20571994D02*
X11136544Y-20543423D01*
X11136544Y-20543423D02*
X11127021Y-20524375D01*
X11127021Y-20524375D02*
X11107973Y-20495804D01*
X11107973Y-20495804D02*
X11098449Y-20486280D01*
M02*
