M48
; DRILL file {KiCad 9.0.1-1.fc42} date 2025-04-18T11:34:46+1000
; FORMAT={-:-/ absolute / inch / decimal}
; #@! TF.CreationDate,2025-04-18T11:34:46+10:00
; #@! TF.GenerationSoftware,Kicad,Pcbnew,9.0.1-1.fc42
; #@! TF.FileFunction,NonPlated,1,2,NPTH
FMAT,2
INCH
; #@! TA.AperFunction,NonPlated,NPTH,ComponentDrill
T1C0.0670
; #@! TA.AperFunction,NonPlated,NPTH,ComponentDrill
T2C0.0866
; #@! TA.AperFunction,NonPlated,NPTH,ComponentDrill
T3C0.1350
%
G90
G05
T1
X2.5766Y-5.3586
X2.7433Y-4.6901
X2.9969Y-5.4634
X3.1635Y-4.7949
X3.4784Y-4.8837
X3.7027Y-4.2323
X3.8879Y-5.0247
X3.927Y-3.5808
X4.1122Y-4.3733
X4.2425Y-4.9531
X4.3365Y-3.7218
X4.5006Y-4.3143
X4.6441Y-5.1154
X4.7587Y-3.6755
X4.8533Y-5.3857
X4.9022Y-4.4765
X5.1114Y-4.7469
X5.1603Y-3.8377
X5.2549Y-5.5479
X5.3056Y-6.2298
X5.3695Y-4.1081
X5.513Y-4.9091
X5.6514Y-6.4904
X5.6577Y-5.3391
X5.771Y-4.2703
X5.9158Y-4.7003
X5.923Y-6.7393
X6.0592Y-5.5013
X6.2183Y-7.056
X6.3173Y-4.8625
X7.2475Y-4.8625
X7.3466Y-7.056
X7.5057Y-5.5013
X7.642Y-6.7393
X7.649Y-4.7002
X7.7941Y-4.2704
X7.9072Y-5.3391
X7.913Y-6.4904
X8.052Y-4.9091
X8.1957Y-4.1082
X8.2589Y-6.2297
X8.3101Y-5.5479
X8.4046Y-3.8376
X8.4535Y-4.7469
X8.6628Y-4.4765
X8.7116Y-5.3857
X8.8061Y-3.6754
X8.9209Y-5.1154
X9.0643Y-4.3143
X9.2288Y-3.7221
X9.3224Y-4.9531
X9.4525Y-4.373
X9.6383Y-3.5811
X9.6771Y-5.0247
X9.862Y-4.232
X10.0865Y-4.8837
X10.4014Y-4.7949
X10.5681Y-5.4634
X10.8216Y-4.6901
X10.9883Y-5.3586
T2
X5.4677Y-5.8356
X5.4677Y-5.8356
X8.0972Y-5.8356
T3
X2.7868Y-5.411
X2.9534Y-4.7425
X3.6831Y-4.9542
X3.9074Y-4.3028
X4.1317Y-3.6513
X4.4433Y-5.0342
X4.7014Y-4.3954
X4.9595Y-3.7566
X5.0541Y-5.4668
X5.3122Y-4.828
X5.4785Y-6.3601
X5.5703Y-4.1892
X5.8584Y-5.4202
X6.0706Y-6.8976
X6.1165Y-4.7814
X7.4482Y-4.7813
X7.4943Y-6.8976
X7.7065Y-5.4202
X7.9949Y-4.1893
X8.086Y-6.36
X8.2527Y-4.828
X8.5108Y-5.4668
X8.6054Y-3.7565
X8.8635Y-4.3954
X9.1216Y-5.0342
X9.4335Y-3.6516
X9.6572Y-4.3025
X9.8818Y-4.9542
X10.6115Y-4.7425
X10.7782Y-5.411
M30
