%TF.GenerationSoftware,KiCad,Pcbnew,8.0.9-1.fc41*%
%TF.CreationDate,2025-03-23T19:42:44+11:00*%
%TF.ProjectId,iiwi,69697769-2e6b-4696-9361-645f70636258,0.1*%
%TF.SameCoordinates,Original*%
%TF.FileFunction,Legend,Top*%
%TF.FilePolarity,Positive*%
%FSLAX46Y46*%
G04 Gerber Fmt 4.6, Leading zero omitted, Abs format (unit mm)*
G04 Created by KiCad (PCBNEW 8.0.9-1.fc41) date 2025-03-23 19:42:44*
%MOMM*%
%LPD*%
G01*
G04 APERTURE LIST*
%ADD10C,0.200000*%
%ADD11C,0.100000*%
G04 APERTURE END LIST*
D10*
X169603347Y-138998983D02*
X169603347Y-138237079D01*
X169603349Y-136398981D02*
X169603349Y-135637077D01*
X169984302Y-136018029D02*
X169222397Y-136018029D01*
D11*
%TO.C,SW12*%
X126231574Y-143491342D02*
X126531254Y-142749584D01*
X126381417Y-143120475D02*
X125917820Y-142933168D01*
X126531254Y-142749584D02*
X126937733Y-143345203D01*
X126937733Y-143345203D02*
X126231574Y-143491342D01*
X126937733Y-143345203D02*
X126731689Y-143855193D01*
X126937733Y-143345203D02*
X127143759Y-142835254D01*
X127308610Y-143495062D02*
X126937733Y-143345203D01*
%TO.C,S14*%
X274563184Y-141671825D02*
X275242131Y-141914791D01*
X274659954Y-142059942D02*
X274174805Y-142180901D01*
X274756724Y-142448061D02*
X274563184Y-141671825D01*
X275242131Y-141914791D02*
X274756724Y-142448061D01*
X275242131Y-141914791D02*
X275109073Y-141381130D01*
X275242131Y-141914791D02*
X275375187Y-142448454D01*
X275630248Y-141818021D02*
X275242131Y-141914791D01*
%TO.C,SW1*%
X103049217Y-97484221D02*
X103309653Y-96727795D01*
X103179449Y-97106015D02*
X102706684Y-96943234D01*
X103309653Y-96727795D02*
X103746773Y-97301331D01*
X103746773Y-97301331D02*
X103049217Y-97484221D01*
X103746773Y-97301331D02*
X103567707Y-97821385D01*
X103746773Y-97301331D02*
X103925829Y-96781299D01*
X104124980Y-97431555D02*
X103746773Y-97301331D01*
%TO.C,S27*%
X150293917Y-178495650D02*
X150878994Y-177950054D01*
X150586464Y-178222864D02*
X150245461Y-177857171D01*
X150878994Y-177950054D02*
X150995664Y-178661646D01*
X150995664Y-178661646D02*
X150293917Y-178495650D01*
X150995664Y-178661646D02*
X150593418Y-179036767D01*
X150995664Y-178661646D02*
X151397919Y-178286549D01*
X151268470Y-178954221D02*
X150995664Y-178661646D01*
%TO.C,SW26*%
X204449343Y-110489582D02*
X205155504Y-110635664D01*
X204599224Y-110860448D02*
X204135619Y-111047747D01*
X204749051Y-111231336D02*
X204449343Y-110489582D01*
X205155504Y-110635664D02*
X204749051Y-111231336D01*
X205155504Y-110635664D02*
X204949468Y-110125704D01*
X205155504Y-110635664D02*
X205361554Y-111145632D01*
X205526384Y-110485823D02*
X205155504Y-110635664D01*
%TO.C,SW27*%
X219955321Y-99496182D02*
X220661482Y-99642264D01*
X220105202Y-99867048D02*
X219641597Y-100054347D01*
X220255029Y-100237936D02*
X219955321Y-99496182D01*
X220661482Y-99642264D02*
X220255029Y-100237936D01*
X220661482Y-99642264D02*
X220455446Y-99132304D01*
X220661482Y-99642264D02*
X220867532Y-100152232D01*
X221032362Y-99492423D02*
X220661482Y-99642264D01*
%TO.C,SW3*%
X139342812Y-111039861D02*
X139642492Y-110298103D01*
X139492655Y-110668994D02*
X139029058Y-110481687D01*
X139642492Y-110298103D02*
X140048971Y-110893722D01*
X140048971Y-110893722D02*
X139342812Y-111039861D01*
X140048971Y-110893722D02*
X139842927Y-111403712D01*
X140048971Y-110893722D02*
X140254997Y-110383773D01*
X140419848Y-111043581D02*
X140048971Y-110893722D01*
%TO.C,SW6*%
X117273194Y-116278921D02*
X117572874Y-115537163D01*
X117423037Y-115908054D02*
X116959440Y-115720747D01*
X117572874Y-115537163D02*
X117979353Y-116132782D01*
X117979353Y-116132782D02*
X117273194Y-116278921D01*
X117979353Y-116132782D02*
X117773309Y-116642772D01*
X117979353Y-116132782D02*
X118185379Y-115622833D01*
X118350230Y-116282641D02*
X117979353Y-116132782D01*
%TO.C,S14*%
X201956196Y-158242999D02*
X202275648Y-158002275D01*
X202275648Y-158002275D02*
X201944650Y-157563025D01*
X202275648Y-158002275D02*
X202514103Y-157321735D01*
X202275648Y-158002275D02*
X202606644Y-158441522D01*
X202514103Y-157321735D02*
X202995554Y-157960637D01*
X202754827Y-157641188D02*
X203154147Y-157340283D01*
X202995554Y-157960637D02*
X202275648Y-158002275D01*
%TO.C,SW10*%
X91654308Y-130577385D02*
X91914744Y-129820959D01*
X91784540Y-130199179D02*
X91311775Y-130036398D01*
X91914744Y-129820959D02*
X92351864Y-130394495D01*
X92351864Y-130394495D02*
X91654308Y-130577385D01*
X92351864Y-130394495D02*
X92172798Y-130914549D01*
X92351864Y-130394495D02*
X92530920Y-129874463D01*
X92730071Y-130524719D02*
X92351864Y-130394495D01*
%TO.C,SW19*%
X252161465Y-129983780D02*
X252859005Y-130166624D01*
X252291725Y-130361989D02*
X251818960Y-130524777D01*
X252421938Y-130740195D02*
X252161465Y-129983780D01*
X252859005Y-130166624D02*
X252421938Y-130740195D01*
X252859005Y-130166624D02*
X252679949Y-129646586D01*
X252859005Y-130166624D02*
X253038077Y-130686668D01*
X253237226Y-130036394D02*
X252859005Y-130166624D01*
%TO.C,SW21*%
X197123468Y-141754240D02*
X197829629Y-141900322D01*
X197273349Y-142125106D02*
X196809744Y-142312405D01*
X197423176Y-142495994D02*
X197123468Y-141754240D01*
X197829629Y-141900322D02*
X197423176Y-142495994D01*
X197829629Y-141900322D02*
X197623593Y-141390362D01*
X197829629Y-141900322D02*
X198035679Y-142410290D01*
X198200509Y-141750481D02*
X197829629Y-141900322D01*
%TO.C,SW22*%
X210998560Y-126711160D02*
X211704721Y-126857242D01*
X211148441Y-127082026D02*
X210684836Y-127269325D01*
X211298268Y-127452914D02*
X210998560Y-126711160D01*
X211704721Y-126857242D02*
X211298268Y-127452914D01*
X211704721Y-126857242D02*
X211498685Y-126347282D01*
X211704721Y-126857242D02*
X211910771Y-127367210D01*
X212075601Y-126707401D02*
X211704721Y-126857242D01*
%TO.C,SW23*%
X226512519Y-115724489D02*
X227218680Y-115870571D01*
X226662400Y-116095355D02*
X226198795Y-116282654D01*
X226812227Y-116466243D02*
X226512519Y-115724489D01*
X227218680Y-115870571D02*
X226812227Y-116466243D01*
X227218680Y-115870571D02*
X227012644Y-115360611D01*
X227218680Y-115870571D02*
X227424730Y-116380539D01*
X227589560Y-115720730D02*
X227218680Y-115870571D01*
%TO.C,SW2*%
X123828811Y-100053230D02*
X124128491Y-99311472D01*
X123978654Y-99682363D02*
X123515057Y-99495056D01*
X124128491Y-99311472D02*
X124534970Y-99907091D01*
X124534970Y-99907091D02*
X123828811Y-100053230D01*
X124534970Y-99907091D02*
X124328926Y-100417081D01*
X124534970Y-99907091D02*
X124740996Y-99397142D01*
X124905847Y-100056950D02*
X124534970Y-99907091D01*
%TO.C,SW9*%
X73540784Y-125346931D02*
X73734300Y-124570684D01*
X73637554Y-124958821D02*
X73152406Y-124837837D01*
X73734300Y-124570684D02*
X74219736Y-125103939D01*
X74219736Y-125103939D02*
X73540784Y-125346931D01*
X74219736Y-125103939D02*
X74086671Y-125637634D01*
X74219736Y-125103939D02*
X74352779Y-124570283D01*
X74607862Y-125200710D02*
X74219736Y-125103939D01*
%TO.C,SW11*%
X110717529Y-132504694D02*
X111017209Y-131762936D01*
X110867372Y-132133827D02*
X110403775Y-131946520D01*
X111017209Y-131762936D02*
X111423688Y-132358555D01*
X111423688Y-132358555D02*
X110717529Y-132504694D01*
X111423688Y-132358555D02*
X111217644Y-132868545D01*
X111423688Y-132358555D02*
X111629714Y-131848606D01*
X111794565Y-132508414D02*
X111423688Y-132358555D01*
%TO.C,S1*%
X69307150Y-142327103D02*
X69500690Y-141550863D01*
X69403921Y-141938981D02*
X68918769Y-141818020D01*
X69500690Y-141550863D02*
X69986098Y-142084138D01*
X69986098Y-142084138D02*
X69307150Y-142327103D01*
X69986098Y-142084138D02*
X69853042Y-142617798D01*
X69986098Y-142084138D02*
X70119155Y-141550474D01*
X70374214Y-142180905D02*
X69986098Y-142084138D01*
%TO.C,S28*%
X193329013Y-178315737D02*
X194030738Y-178149715D01*
X193621565Y-178588527D02*
X193280550Y-178954212D01*
X193914102Y-178861327D02*
X193329013Y-178315737D01*
X194030738Y-178149715D02*
X193628490Y-177774605D01*
X194030738Y-178149715D02*
X193914102Y-178861327D01*
X194030738Y-178149715D02*
X194433003Y-178524811D01*
X194303565Y-177857163D02*
X194030738Y-178149715D01*
%TO.C,SW7*%
X132787155Y-127265604D02*
X133086835Y-126523846D01*
X132936998Y-126894737D02*
X132473401Y-126707430D01*
X133086835Y-126523846D02*
X133493314Y-127119465D01*
X133493314Y-127119465D02*
X132787155Y-127265604D01*
X133493314Y-127119465D02*
X133287270Y-127629455D01*
X133493314Y-127119465D02*
X133699340Y-126609516D01*
X133864191Y-127269324D02*
X133493314Y-127119465D01*
%TO.C,S15*%
X270329549Y-124691650D02*
X271008496Y-124934616D01*
X270426319Y-125079767D02*
X269941170Y-125200726D01*
X270523089Y-125467886D02*
X270329549Y-124691650D01*
X271008496Y-124934616D02*
X270523089Y-125467886D01*
X271008496Y-124934616D02*
X270875438Y-124400955D01*
X271008496Y-124934616D02*
X271141552Y-125468279D01*
X271396613Y-124837846D02*
X271008496Y-124934616D01*
%TO.C,SW24*%
X246457329Y-113430977D02*
X247154869Y-113613821D01*
X246587589Y-113809186D02*
X246114824Y-113971974D01*
X246717802Y-114187392D02*
X246457329Y-113430977D01*
X247154869Y-113613821D02*
X246717802Y-114187392D01*
X247154869Y-113613821D02*
X246975813Y-113093783D01*
X247154869Y-113613821D02*
X247333941Y-114133865D01*
X247533090Y-113483591D02*
X247154869Y-113613821D01*
%TO.C,SW25*%
X190564400Y-125526462D02*
X191270561Y-125672544D01*
X190714281Y-125897328D02*
X190250676Y-126084627D01*
X190864108Y-126268216D02*
X190564400Y-125526462D01*
X191270561Y-125672544D02*
X190864108Y-126268216D01*
X191270561Y-125672544D02*
X191064525Y-125162584D01*
X191270561Y-125672544D02*
X191476611Y-126182512D01*
X191641441Y-125522703D02*
X191270561Y-125672544D01*
%TO.C,SW5*%
X97351771Y-114030785D02*
X97612207Y-113274359D01*
X97482003Y-113652579D02*
X97009238Y-113489798D01*
X97612207Y-113274359D02*
X98049327Y-113847895D01*
X98049327Y-113847895D02*
X97351771Y-114030785D01*
X98049327Y-113847895D02*
X97870261Y-114367949D01*
X98049327Y-113847895D02*
X98228383Y-113327863D01*
X98427534Y-113978119D02*
X98049327Y-113847895D01*
%TO.C,SW4*%
X153217902Y-126082982D02*
X153517582Y-125341224D01*
X153367745Y-125712115D02*
X152904148Y-125524808D01*
X153517582Y-125341224D02*
X153924061Y-125936843D01*
X153924061Y-125936843D02*
X153217902Y-126082982D01*
X153924061Y-125936843D02*
X153718017Y-126446833D01*
X153924061Y-125936843D02*
X154130087Y-125426894D01*
X154294938Y-126086702D02*
X153924061Y-125936843D01*
%TO.C,S14*%
X141383693Y-157340868D02*
X141703145Y-157581593D01*
X141703145Y-157581593D02*
X141372149Y-158020843D01*
X141703145Y-157581593D02*
X142034143Y-157142344D01*
X141703145Y-157581593D02*
X142423052Y-157623228D01*
X141941600Y-158262135D02*
X141703145Y-157581593D01*
X142182326Y-157942682D02*
X142581643Y-158243591D01*
X142423052Y-157623228D02*
X141941600Y-158262135D01*
%TO.C,SW17*%
X217554144Y-142936876D02*
X218260305Y-143082958D01*
X217704025Y-143307742D02*
X217240420Y-143495041D01*
X217853852Y-143678630D02*
X217554144Y-142936876D01*
X218260305Y-143082958D02*
X217853852Y-143678630D01*
X218260305Y-143082958D02*
X218054269Y-142572998D01*
X218260305Y-143082958D02*
X218466355Y-143592926D01*
X218631185Y-142933117D02*
X218260305Y-143082958D01*
%TO.C,SW28*%
X240774787Y-96897484D02*
X241472327Y-97080328D01*
X240905047Y-97275693D02*
X240432282Y-97438481D01*
X241035260Y-97653899D02*
X240774787Y-96897484D01*
X241472327Y-97080328D02*
X241035260Y-97653899D01*
X241472327Y-97080328D02*
X241293271Y-96560290D01*
X241472327Y-97080328D02*
X241651399Y-97600372D01*
X241850548Y-96950098D02*
X241472327Y-97080328D01*
%TO.C,SW18*%
X233068110Y-131950247D02*
X233774271Y-132096329D01*
X233217991Y-132321113D02*
X232754386Y-132508412D01*
X233367818Y-132692001D02*
X233068110Y-131950247D01*
X233774271Y-132096329D02*
X233367818Y-132692001D01*
X233774271Y-132096329D02*
X233568235Y-131586369D01*
X233774271Y-132096329D02*
X233980321Y-132606297D01*
X234145151Y-131946488D02*
X233774271Y-132096329D01*
%TO.C,SW8*%
X146662280Y-142308707D02*
X146961960Y-141566949D01*
X146812123Y-141937840D02*
X146348526Y-141750533D01*
X146961960Y-141566949D02*
X147368439Y-142162568D01*
X147368439Y-142162568D02*
X146662280Y-142308707D01*
X147368439Y-142162568D02*
X147162395Y-142672558D01*
X147368439Y-142162568D02*
X147574465Y-141652619D01*
X147739316Y-142312427D02*
X147368439Y-142162568D01*
%TD*%
M02*
